<svg width="133" height="46" viewBox="0 0 133 46" fill="none" xmlns="http://www.w3.org/2000/svg">
<path d="M100.095 12.6864V13.7902C100.095 13.9399 100.157 14.0026 100.307 14.0026H102.44V14.8905H99.9943C99.3993 14.8905 99.1443 14.6328 99.1443 14.0374V10.5555C99.1443 9.95832 99.3993 9.70239 99.9943 9.70239H102.44V10.5903H100.307C100.157 10.5903 100.095 10.653 100.095 10.8027V11.7985H102.156V12.6864H100.095Z" fill="#95E3CA"/>
<path d="M106.508 14.8904H105.582V11.9186C105.582 11.5861 105.464 11.4294 105.177 11.4294C104.987 11.4294 104.822 11.513 104.673 11.6766C104.523 11.8437 104.327 12.1658 104.081 12.6446V14.8904H103.151V10.6251H103.941L104.01 11.3859C104.104 11.2396 104.183 11.1247 104.251 11.0394C104.317 10.9524 104.404 10.8688 104.508 10.7852C104.716 10.6216 104.974 10.5554 105.334 10.5554C106.147 10.5554 106.51 10.9785 106.51 11.9395V14.8904H106.508Z" fill="#95E3CA"/>
<path d="M107.242 12.0753C107.242 11.607 107.387 11.2379 107.68 10.9645C107.972 10.6912 108.397 10.5554 108.957 10.5554C109.316 10.5554 109.649 10.6111 109.956 10.726V11.6C109.641 11.4851 109.334 11.4294 109.04 11.4294C108.72 11.4294 108.494 11.4747 108.366 11.5652C108.237 11.6592 108.171 11.8316 108.171 12.0892V13.4124C108.171 13.6631 108.244 13.8354 108.39 13.9364C108.532 14.0374 108.77 14.0896 109.106 14.0896C109.391 14.0896 109.694 14.0408 110.019 13.9399V14.8034C109.663 14.9079 109.344 14.9601 109.065 14.9601C107.816 14.9601 107.242 14.4395 107.242 13.4402V12.077V12.0753Z" fill="#95E3CA"/>
<path d="M110.452 13.3828V12.1293C110.452 11.1126 111.051 10.5537 112.154 10.5537C113.257 10.5537 113.838 11.0708 113.838 12.1293V13.3828C113.838 14.4065 113.25 14.9584 112.154 14.9584C110.995 14.9584 110.452 14.4413 110.452 13.3828ZM112.91 12.1293C112.91 11.8821 112.879 11.7376 112.772 11.6087C112.661 11.4834 112.466 11.4277 112.152 11.4277C111.838 11.4277 111.648 11.4834 111.54 11.5948C111.433 11.7062 111.38 11.8821 111.38 12.1293V13.3828C111.38 13.63 111.433 13.8059 111.54 13.9173C111.648 14.0322 111.851 14.0879 112.152 14.0879C112.454 14.0879 112.664 14.0322 112.772 13.9033C112.879 13.7745 112.91 13.63 112.91 13.3828V12.1293Z" fill="#95E3CA"/>
<path d="M118.009 14.8904H117.082V11.9186C117.082 11.5861 116.964 11.4294 116.678 11.4294C116.487 11.4294 116.322 11.513 116.173 11.6766C116.024 11.8437 115.828 12.1658 115.582 12.6446V14.8904H114.652V10.6251H115.441L115.511 11.3859C115.604 11.2396 115.684 11.1247 115.752 11.0394C115.818 10.9524 115.904 10.8688 116.008 10.7852C116.217 10.6216 116.475 10.5554 116.834 10.5554C117.648 10.5554 118.01 10.9785 118.01 11.9395V14.8904H118.009Z" fill="#95E3CA"/>
<path d="M118.558 11.4641V10.766L119.282 10.6233L119.424 9.84155H120.203V10.6233H121.323V11.4624H120.203V13.5376C120.203 13.9572 120.408 14.093 120.777 14.093C121.041 14.093 121.264 14.0512 121.452 13.9642V14.8381C121.219 14.9182 120.947 14.9565 120.637 14.9565C120.222 14.9565 119.913 14.8695 119.665 14.6571C119.415 14.4482 119.285 14.0669 119.285 13.5289V11.4607H118.562L118.558 11.4641Z" fill="#95E3CA"/>
<path d="M124.376 10.5624V11.5547C124.217 11.5408 124.104 11.5338 124.035 11.5338C123.858 11.5338 123.707 11.6105 123.572 11.7602C123.436 11.9099 123.251 12.2041 123.011 12.6446V14.8904H122.081V10.6251H122.871L122.94 11.3859C123.027 11.2396 123.107 11.1247 123.173 11.0394C123.238 10.9524 123.318 10.8688 123.414 10.7852C123.608 10.6216 123.853 10.5554 124.196 10.5554C124.272 10.5554 124.335 10.5589 124.38 10.5624H124.376Z" fill="#95E3CA"/>
<path d="M124.753 13.3828V12.1293C124.753 11.1126 125.351 10.5537 126.454 10.5537C127.558 10.5537 128.139 11.0708 128.139 12.1293V13.3828C128.139 14.4065 127.551 14.9584 126.454 14.9584C125.296 14.9584 124.753 14.4413 124.753 13.3828ZM127.211 12.1293C127.211 11.8821 127.18 11.7376 127.072 11.6087C126.961 11.4834 126.767 11.4277 126.453 11.4277C126.139 11.4277 125.948 11.4834 125.84 11.5948C125.733 11.7062 125.681 11.8821 125.681 12.1293V13.3828C125.681 13.63 125.733 13.8059 125.84 13.9173C125.948 14.0322 126.151 14.0879 126.453 14.0879C126.755 14.0879 126.964 14.0322 127.072 13.9033C127.18 13.7745 127.211 13.63 127.211 13.3828V12.1293Z" fill="#95E3CA"/>
<path d="M102.36 18.0173V21.9328C102.36 22.4742 102.18 22.8903 101.869 23.1306C101.557 23.3708 101.156 23.4875 100.676 23.4875C99.5728 23.4875 98.9813 23.0157 98.9813 21.9328V20.4686C98.9813 19.5006 99.3438 19.0846 100.164 19.0846C100.513 19.0846 100.766 19.1507 100.964 19.3144C101.065 19.3979 101.144 19.4815 101.209 19.5685C101.274 19.6556 101.351 19.7705 101.441 19.915V18.0191H102.36V18.0173ZM99.911 21.9119C99.911 22.1591 99.9388 22.3036 100.046 22.4324C100.154 22.5613 100.35 22.617 100.669 22.617C100.971 22.617 101.174 22.5613 101.281 22.4464C101.389 22.3349 101.441 22.1591 101.441 21.9119V21.172C101.196 20.7002 100.999 20.3798 100.843 20.211C100.686 20.0403 100.511 19.9585 100.32 19.9585C100.029 19.9585 99.9128 20.1152 99.9128 20.4477V21.9119H99.911Z" fill="#95E3CA"/>
<path d="M106.315 21.642H104.022V22.0024C104.022 22.2426 104.095 22.4011 104.244 22.4881C104.39 22.5752 104.641 22.6169 104.999 22.6169C105.203 22.6169 105.434 22.596 105.691 22.5543C105.944 22.5125 106.14 22.4637 106.282 22.408V23.282C105.937 23.4178 105.507 23.4874 104.992 23.4874C104.334 23.4874 103.854 23.369 103.55 23.1305C103.247 22.8903 103.094 22.4916 103.094 21.9327V20.6827C103.094 20.2074 103.209 19.8366 103.471 19.5406C103.731 19.2482 104.183 19.0828 104.796 19.0828C105.857 19.0828 106.397 19.6277 106.397 20.6827C106.397 21.1162 106.369 21.4366 106.317 21.6403L106.315 21.642ZM104.022 20.8533H105.516V20.4547C105.516 20.0943 105.266 19.9132 104.765 19.9132C104.263 19.9132 104.02 20.0943 104.02 20.4547V20.8533H104.022Z" fill="#95E3CA"/>
<path d="M110.114 18.2298V22.1522C110.114 23.0645 109.889 23.7626 109.54 24.2205C109.363 24.4468 109.143 24.6574 108.869 24.8559L108.371 24.109C108.631 23.9175 108.827 23.6755 108.962 23.3796C109.098 23.0871 109.167 22.7023 109.167 22.2236V18.228H110.114V18.2298Z" fill="#95E3CA"/>
<path d="M110.968 21.9118V20.6583C110.968 19.6416 111.566 19.0828 112.669 19.0828C113.773 19.0828 114.354 19.5998 114.354 20.6583V21.9118C114.354 22.9355 113.766 23.4874 112.669 23.4874C111.511 23.4874 110.968 22.9704 110.968 21.9118ZM113.426 20.6583C113.426 20.4111 113.394 20.2666 113.287 20.1378C113.176 20.0124 112.982 19.9567 112.668 19.9567C112.354 19.9567 112.163 20.0124 112.055 20.1239C111.948 20.2353 111.896 20.4111 111.896 20.6583V21.9118C111.896 22.1591 111.948 22.3349 112.055 22.4463C112.163 22.5612 112.366 22.6169 112.668 22.6169C112.969 22.6169 113.179 22.5612 113.287 22.4324C113.394 22.3036 113.426 22.1591 113.426 21.9118V20.6583Z" fill="#95E3CA"/>
<path d="M115.691 19.1523L116.314 22.3871C116.359 22.6378 116.435 22.6865 116.619 22.6865C116.803 22.6865 116.864 22.6378 116.91 22.3871L117.533 19.1523H118.484L117.816 22.495C117.76 22.7771 117.712 22.932 117.603 23.1131C117.544 23.2036 117.474 23.2732 117.394 23.322C117.228 23.423 116.973 23.4891 116.614 23.4891C116.168 23.4891 115.884 23.4125 115.715 23.2245C115.629 23.1305 115.566 23.033 115.528 22.9268C115.486 22.8188 115.448 22.6761 115.41 22.4968L114.742 19.1541H115.693L115.691 19.1523Z" fill="#95E3CA"/>
<path d="M122.088 21.642H119.795V22.0024C119.795 22.2426 119.868 22.4011 120.017 22.4881C120.163 22.5752 120.414 22.6169 120.772 22.6169C120.976 22.6169 121.207 22.596 121.464 22.5543C121.717 22.5125 121.913 22.4637 122.055 22.408V23.282C121.71 23.4178 121.28 23.4874 120.765 23.4874C120.107 23.4874 119.627 23.369 119.323 23.1305C119.02 22.8903 118.867 22.4916 118.867 21.9327V20.6827C118.867 20.2074 118.982 19.8366 119.244 19.5406C119.504 19.2482 119.957 19.0828 120.569 19.0828C121.63 19.0828 122.17 19.6277 122.17 20.6827C122.17 21.1162 122.142 21.4366 122.09 21.6403L122.088 21.642ZM119.795 20.8533H121.289V20.4547C121.289 20.0943 121.039 19.9132 120.538 19.9132C120.036 19.9132 119.793 20.0943 119.793 20.4547V20.8533H119.795Z" fill="#95E3CA"/>
<path d="M126.345 23.4178H125.419V20.4459C125.419 20.1134 125.301 19.9567 125.015 19.9567C124.824 19.9567 124.659 20.0403 124.51 20.204C124.361 20.3711 124.165 20.6932 123.918 21.1719V23.4178H122.989V19.1524H123.778L123.847 19.9132C123.941 19.767 124.021 19.6521 124.088 19.5668C124.154 19.4797 124.241 19.3961 124.345 19.3126C124.553 19.1489 124.812 19.0828 125.171 19.0828C125.984 19.0828 126.347 19.5058 126.347 20.4668V23.4178H126.345Z" fill="#95E3CA"/>
<path d="M127.022 22.4011C127.266 22.4812 127.485 22.5404 127.676 22.5752C127.866 22.6135 128.108 22.6309 128.402 22.6309C128.89 22.6309 129.063 22.5717 129.063 22.3593C129.063 22.2862 129.043 22.2235 128.997 22.1782C128.952 22.133 128.866 22.0703 128.737 21.9867C128.727 21.9763 128.716 21.9763 128.706 21.9658L127.78 21.3548C127.582 21.2259 127.455 21.1215 127.306 20.9387C127.157 20.7576 127.077 20.5121 127.077 20.2162C127.077 19.8384 127.199 19.5529 127.436 19.3614C127.676 19.1733 128.069 19.0811 128.616 19.0811C129.027 19.0811 129.426 19.1507 129.806 19.2935V20.1605C129.608 20.0873 129.426 20.0316 129.252 19.9933C129.079 19.9585 128.869 19.9411 128.616 19.9411C128.363 19.9411 128.201 19.962 128.115 20.0003C128.028 20.0386 127.983 20.1082 127.983 20.2092C127.983 20.3311 128.056 20.432 128.115 20.4721C128.142 20.4965 128.194 20.5313 128.267 20.58L129.19 21.1911C129.318 21.2782 129.422 21.3513 129.497 21.4105C129.573 21.4732 129.653 21.5498 129.733 21.6438C129.896 21.8318 129.967 22.0564 129.967 22.3384C129.967 22.7232 129.842 23.0087 129.591 23.1985C129.337 23.39 128.923 23.4875 128.352 23.4875C127.847 23.4875 127.405 23.4178 127.022 23.2751V22.4011Z" fill="#95E3CA"/>
<path d="M98.9813 29.1317C98.9813 28.6634 99.127 28.2943 99.4201 28.0209C99.7115 27.7476 100.137 27.6118 100.697 27.6118C101.056 27.6118 101.389 27.6675 101.696 27.7824V28.6564C101.38 28.5415 101.073 28.4858 100.78 28.4858C100.459 28.4858 100.234 28.531 100.105 28.6216C99.9769 28.7156 99.911 28.8879 99.911 29.1456V30.4688C99.911 30.7195 99.9839 30.8918 100.13 30.9928C100.272 31.0938 100.509 31.146 100.846 31.146C101.13 31.146 101.434 31.0972 101.758 30.9963V31.8598C101.403 31.9642 101.084 32.0165 100.804 32.0165C99.5554 32.0165 98.9813 31.4959 98.9813 30.4966V29.1334V29.1317Z" fill="#95E3CA"/>
<path d="M102.194 30.4409V29.1874C102.194 28.1707 102.792 27.6118 103.895 27.6118C104.999 27.6118 105.58 28.1289 105.58 29.1874V30.4409C105.58 31.4646 104.992 32.0165 103.895 32.0165C102.737 32.0165 102.194 31.4994 102.194 30.4409ZM104.652 29.1874C104.652 28.9402 104.621 28.7957 104.513 28.6668C104.402 28.5415 104.208 28.4858 103.894 28.4858C103.58 28.4858 103.389 28.5415 103.281 28.6529C103.174 28.7643 103.122 28.9402 103.122 29.1874V30.4409C103.122 30.6881 103.174 30.864 103.281 30.9754C103.389 31.0903 103.592 31.146 103.894 31.146C104.196 31.146 104.405 31.0903 104.513 30.9614C104.621 30.8326 104.652 30.6881 104.652 30.4409V29.1874Z" fill="#95E3CA"/>
<path d="M111.783 31.9469H110.853V28.975C110.853 28.6495 110.732 28.4858 110.494 28.4858C110.334 28.4858 110.189 28.5659 110.062 28.7278C109.934 28.8915 109.759 29.2101 109.54 29.6923V31.9451H108.638V28.9733C108.638 28.6477 108.517 28.4841 108.279 28.4841C108.116 28.4841 107.972 28.5676 107.847 28.7313C107.719 28.8949 107.545 29.217 107.325 29.6993V31.9451H106.395V27.6797H107.184L107.254 28.4406C107.34 28.2943 107.413 28.1794 107.476 28.0941C107.535 28.007 107.611 27.9235 107.705 27.8399C107.889 27.6763 108.119 27.6101 108.439 27.6101C109.03 27.6101 109.379 27.8939 109.493 28.4597L109.5 28.498C109.597 28.3274 109.681 28.1933 109.746 28.0993C109.812 28.0053 109.889 27.9148 109.979 27.833C110.159 27.6658 110.362 27.6101 110.657 27.6101C111.429 27.6101 111.792 28.0366 111.792 28.9942V31.9451L111.783 31.9469Z" fill="#95E3CA"/>
<path d="M115.339 30.2319C115.339 30.5 115.391 30.6933 115.542 30.8639C115.695 31.0345 115.984 31.1285 116.414 31.1285C116.888 31.1285 117.275 31.0345 117.57 30.8465V31.7274C117.4 31.8284 117.228 31.9015 117.051 31.9503C116.871 31.9955 116.647 32.0164 116.373 32.0164C115.034 32.0164 114.361 31.482 114.361 30.2319V28.5415C114.361 27.9582 114.531 27.5038 114.869 27.1731C115.204 26.8475 115.708 26.6838 116.38 26.6838C116.642 26.6838 116.857 26.7082 117.023 26.757C117.186 26.8092 117.368 26.8858 117.57 26.9937V27.8712C117.224 27.6727 116.825 27.5735 116.38 27.5735C115.646 27.5735 115.339 27.8781 115.339 28.5415V30.2319Z" fill="#95E3CA"/>
<path d="M120.55 27.6188V28.6111C120.39 28.5972 120.277 28.5902 120.208 28.5902C120.031 28.5902 119.88 28.6668 119.745 28.8166C119.61 28.9663 119.424 29.2605 119.185 29.701V31.9468H118.255V27.6815H119.044L119.113 28.4423C119.2 28.296 119.28 28.1811 119.346 28.0958C119.412 28.0088 119.492 27.9252 119.587 27.8416C119.781 27.678 120.026 27.6118 120.369 27.6118C120.446 27.6118 120.508 27.6153 120.553 27.6188H120.55Z" fill="#95E3CA"/>
<path d="M121.209 26.8265C121.209 26.6733 121.264 26.5428 121.372 26.4348C121.48 26.3269 121.611 26.2747 121.762 26.2747C121.913 26.2747 122.047 26.3304 122.153 26.4383C122.26 26.5463 122.316 26.6786 122.316 26.8265C122.316 26.9745 122.26 27.1086 122.153 27.2148C122.045 27.3262 121.913 27.3819 121.762 27.3819C121.611 27.3819 121.48 27.3262 121.372 27.2183C121.264 27.1103 121.209 26.978 121.209 26.8265ZM121.303 31.9468V27.6814H122.222V31.9468H121.303Z" fill="#95E3CA"/>
<path d="M123.101 30.9301C123.346 31.0102 123.565 31.0694 123.755 31.1042C123.946 31.1425 124.187 31.16 124.482 31.16C124.97 31.16 125.143 31.1008 125.143 30.8884C125.143 30.8152 125.122 30.7526 125.077 30.7073C125.032 30.662 124.945 30.5994 124.817 30.5158C124.807 30.5053 124.796 30.5053 124.786 30.4949L123.859 29.8838C123.662 29.755 123.535 29.6505 123.386 29.4677C123.237 29.2867 123.157 29.0412 123.157 28.7452C123.157 28.3674 123.278 28.0819 123.516 27.8921C123.755 27.7041 124.149 27.6101 124.696 27.6101C125.107 27.6101 125.506 27.6797 125.886 27.8225V28.6895C125.688 28.6164 125.506 28.5607 125.332 28.5224C125.159 28.4876 124.949 28.4701 124.696 28.4701C124.442 28.4701 124.281 28.491 124.194 28.5293C124.108 28.5676 124.062 28.6373 124.062 28.7383C124.062 28.8601 124.135 28.9611 124.194 29.0029C124.222 29.0273 124.274 29.0621 124.347 29.1108L125.27 29.7219C125.398 29.809 125.502 29.8821 125.577 29.9413C125.653 30.0039 125.733 30.0806 125.813 30.1746C125.976 30.3626 126.047 30.5872 126.047 30.8692C126.047 31.254 125.922 31.5395 125.67 31.7293C125.417 31.9208 125.003 32.0183 124.432 32.0183C123.927 32.0183 123.485 31.9486 123.101 31.8059V30.9319V30.9301Z" fill="#95E3CA"/>
<path d="M126.305 28.5205V27.8224L127.029 27.6796L127.171 26.8979H127.95V27.6796H129.07V28.5188H127.95V30.594C127.95 31.0136 128.154 31.1494 128.524 31.1494C128.788 31.1494 129.011 31.1076 129.199 31.0206V31.8945C128.966 31.9746 128.694 32.0129 128.383 32.0129C127.969 32.0129 127.66 31.9259 127.412 31.7135C127.162 31.5046 127.032 31.1233 127.032 30.5853V28.5171H126.309L126.305 28.5205Z" fill="#95E3CA"/>
<path d="M129.615 30.4409V29.1874C129.615 28.1707 130.213 27.6118 131.317 27.6118C132.42 27.6118 133.001 28.1289 133.001 29.1874V30.4409C133.001 31.4646 132.413 32.0165 131.317 32.0165C130.158 32.0165 129.615 31.4994 129.615 30.4409ZM132.073 29.1874C132.073 28.9402 132.042 28.7957 131.934 28.6668C131.823 28.5415 131.629 28.4858 131.315 28.4858C131.001 28.4858 130.81 28.5415 130.703 28.6529C130.595 28.7643 130.543 28.9402 130.543 29.1874V30.4409C130.543 30.6881 130.595 30.864 130.703 30.9754C130.81 31.0903 131.013 31.146 131.315 31.146C131.617 31.146 131.827 31.0903 131.934 30.9614C132.042 30.8326 132.073 30.6881 132.073 30.4409V29.1874Z" fill="#95E3CA"/>
<path d="M59.0256 27.45H51.3914V23.4005H57.6257C58.1374 23.4005 58.493 23.2943 58.6925 23.0819C58.892 22.8695 58.9926 22.5195 58.9926 22.0286V19.6191C58.9926 19.1281 58.892 18.7764 58.6925 18.5658C58.493 18.3534 58.1374 18.2472 57.6257 18.2472H51.3914V14.2656H58.8591C59.3482 14.2656 59.6969 14.1646 59.9085 13.9644C60.1201 13.7642 60.2259 13.4073 60.2259 12.8937V10.4842C60.2259 9.9706 60.1201 9.6137 59.9085 9.41349C59.6969 9.21328 59.3465 9.1123 58.8591 9.1123H46.6229C46.1112 9.1123 45.7556 9.21328 45.5561 9.41349C45.3566 9.6137 45.256 9.9706 45.256 10.4842V31.2296C45.256 31.7432 45.3566 32.1001 45.5561 32.3003C45.7556 32.5005 46.1112 32.6015 46.6229 32.6015H59.0256C59.5373 32.6015 59.8929 32.5005 60.0924 32.3003C60.2919 32.1001 60.3925 31.7432 60.3925 31.2296V28.8201C60.3925 28.3065 60.2919 27.9496 60.0924 27.7494C59.8929 27.5492 59.5373 27.4482 59.0256 27.4482V27.45Z" fill="#FFF9F3"/>
<path d="M87.9663 18.2489C88.1658 18.4492 88.5214 18.5501 89.0331 18.5501H92.4347C92.9464 18.5501 93.3021 18.4492 93.5015 18.2489C93.701 18.0487 93.8016 17.6918 93.8016 17.1782V16.5759C93.8016 15.0368 93.6906 13.799 93.4686 12.8624C93.2448 11.9257 92.8285 11.1388 92.2179 10.5033C91.6073 9.86789 90.7851 9.4222 89.7512 9.16454C88.7174 8.90862 87.3557 8.77979 85.6679 8.77979H83.5673C81.8777 8.77979 80.516 8.90862 79.4839 9.16454C78.4501 9.42046 77.6278 9.86789 77.0173 10.5033C76.4049 11.1388 75.9886 11.9257 75.7666 12.8624C75.5445 13.799 75.4335 15.0368 75.4335 16.5759V25.1415C75.4335 26.6805 75.5445 27.9183 75.7666 28.8549C75.9886 29.7916 76.4049 30.5785 77.0173 31.214C77.6278 31.8494 78.4501 32.2969 79.4839 32.5528C80.5178 32.8087 81.8777 32.9375 83.5673 32.9375H85.6679C87.3574 32.9375 88.7191 32.8087 89.7512 32.5528C90.7851 32.2969 91.6073 31.8494 92.2179 31.214C92.8285 30.5785 93.2448 29.7916 93.4686 28.8549C93.6906 27.9183 93.8016 26.6805 93.8016 25.1415V24.5391C93.8016 24.0255 93.7028 23.6686 93.5015 23.4684C93.3003 23.2682 92.9464 23.1672 92.4347 23.1672H89.0331C88.5214 23.1672 88.1658 23.2682 87.9663 23.4684C87.7668 23.6686 87.6662 24.0255 87.6662 24.5391V25.0074C87.6662 26.0781 87.4997 26.8145 87.1666 27.215C86.8336 27.6171 86.2213 27.8173 85.3331 27.8173H83.9003C83.0104 27.8173 82.3998 27.6171 82.0668 27.215C81.7337 26.8128 81.5672 26.0781 81.5672 25.0074V16.7099C81.5672 15.6392 81.7337 14.9028 82.0668 14.5024C82.3998 14.1002 83.0104 13.9 83.9003 13.9H85.3331C86.2213 13.9 86.8336 14.1002 87.1666 14.5024C87.4997 14.9045 87.6662 15.6392 87.6662 16.7099V17.1782C87.6662 17.6918 87.7668 18.0487 87.9663 18.2489Z" fill="#FFF9F3"/>
<path d="M72.3615 9.1123H63.0309C62.5417 9.1123 62.193 9.21328 61.9814 9.41349C61.7698 9.6137 61.664 9.9706 61.664 10.4842V12.8937C61.664 13.4073 61.7698 13.7642 61.9814 13.9644C62.193 14.1646 62.5434 14.2656 63.0309 14.2656H67.593V25.1066C67.593 25.9771 67.4316 26.5847 67.109 26.9294C66.7864 27.2759 66.1584 27.4482 65.2252 27.4482H63.0257C62.5139 27.4482 62.1583 27.5492 61.9589 27.7494C61.7594 27.9496 61.6588 28.3065 61.6588 28.8201V31.2296C61.6588 31.7432 61.7594 32.1001 61.9589 32.3003C62.1583 32.5005 62.5139 32.6015 63.0257 32.6015H66.0925C69.0934 32.6015 71.116 32.0775 72.1603 31.0294C73.2045 29.9814 73.7266 28.0175 73.7266 25.1397V10.4842C73.7266 9.9706 73.626 9.6137 73.4266 9.41349C73.2271 9.21328 72.8715 9.1123 72.3598 9.1123H72.3615Z" fill="#FFF9F3"/>
<path d="M33.7899 5.82007C30.0518 2.06654 25.0786 0 19.7896 0C14.5007 0 9.52924 2.06654 5.78936 5.82007C-1.92979 13.5674 -1.92979 26.1738 5.78936 33.9229L16.4331 44.6055C17.3299 45.5056 18.5216 46.0017 19.7896 46.0017C21.0577 46.0017 22.2494 45.5056 23.1462 44.6055L33.7899 33.9229C41.5091 26.1755 41.5091 13.5691 33.7899 5.82007ZM32.1576 32.2846L21.5139 42.9672C21.0525 43.4303 20.4401 43.6845 19.7896 43.6845C19.1391 43.6845 18.5251 43.4303 18.0654 42.9672L7.42165 32.2846C0.602787 25.4391 0.602788 14.3021 7.42339 7.45833C10.7261 4.14178 15.12 2.31724 19.7914 2.31724C24.4628 2.31724 28.8549 4.14352 32.1593 7.46007C38.9782 14.3038 38.9782 25.4408 32.1593 32.2864L32.1576 32.2846Z" fill="#96E4CB"/>
<path d="M19.7915 5.9751C12.1747 5.9751 6.00114 12.1712 6.00114 19.8158C6.00114 25.9388 9.96305 31.1339 15.4549 32.9584C15.4549 32.9584 17.5035 32.0758 18.6224 30.3923C22.05 25.2303 15.1756 23.5624 15.3977 20.4391C15.559 18.1654 22.9399 18.1985 23.096 15.9491C23.2313 13.9818 16.7698 13.9488 16.7698 13.9488C16.7698 13.9488 17.9008 13.8199 19.3388 13.8356V11.1475H18.3396V10.237H19.3388V9.21505H20.246V10.237H21.2451V11.1475H20.246V13.8652C22.4212 13.9853 24.8862 14.5076 25.2834 16.2155C25.7639 18.2733 20.9156 18.6685 20.8392 20.4983C20.6797 24.3371 32.5394 25.1014 32.5394 25.1014C33.2107 23.4736 33.5802 21.6874 33.5802 19.8158C33.5802 12.1712 27.4066 5.9751 19.7898 5.9751H19.7915Z" fill="#96E4CB"/>
</svg>
