<svg width="313" height="203" viewBox="0 0 313 203" fill="none" xmlns="http://www.w3.org/2000/svg">
<path d="M160.037 202.54C169.441 202.54 177.064 194.916 177.064 185.511C177.064 176.106 169.441 168.481 160.037 168.481C150.634 168.481 143.011 176.106 143.011 185.511C143.011 194.916 150.634 202.54 160.037 202.54Z" fill="#95E3CA"/>
<path d="M261.752 201.583C271.277 198.722 281.404 195.739 288.958 188.937C295.708 182.859 300.265 173.577 297.469 164.462C294.678 155.366 286.319 149.3 277.688 146.283C272.793 144.572 267.672 143.623 262.553 142.877C256.988 142.066 251.399 141.402 245.812 140.763C223.19 138.175 200.483 136.594 177.692 136.021C166.445 135.737 155.201 135.744 143.953 135.907C133.908 136.053 123.329 136.05 114.01 131.779C106.763 128.459 100.186 122.417 98.1672 114.478C95.8364 105.314 100.136 95.9816 106.303 89.3446C109.553 85.8461 113.353 82.9016 117.272 80.1941C121.524 77.2568 125.924 74.5276 130.419 71.9799C139.273 66.9647 148.53 62.6964 158.093 59.2195C162.81 57.5038 167.598 56.0236 172.427 54.6581C176.505 53.505 180.595 52.3503 184.536 50.7793C192.155 47.7422 199.401 42.5978 201.338 34.164C203.174 26.1707 200.079 17.4935 194.652 11.5554C188.373 4.68553 178.907 1.67399 169.831 1.18674C159.642 0.639703 149.687 3.19028 140.11 6.42729C129.896 9.87982 119.902 13.8496 109.472 16.6461C99.1286 19.4165 88.5855 21.3767 77.938 22.5089C72.7257 23.064 67.3559 23.6908 62.1126 23.2658C57.7182 22.9097 53.3463 21.6171 50.1077 18.4978C47.3308 15.8231 45.6766 12.1473 46.2453 8.26813C46.3486 7.56356 47.4187 7.8631 47.316 8.56338C46.6237 13.2854 49.8329 17.6366 53.7875 19.8654C58.3579 22.4415 63.9195 22.445 69.0079 22.1504C80.0411 21.4838 90.9997 19.8994 101.77 17.4134C112.353 14.9957 122.558 11.5396 132.751 7.84763C142.432 4.34123 152.33 0.918962 162.673 0.159489C171.647 -0.499501 181.087 0.808167 188.906 5.49899C195.777 9.62158 200.829 16.4967 202.439 24.3861C204.012 32.0955 201.834 39.8551 195.999 45.235C189.958 50.8052 181.675 53.1866 173.955 55.3799C164.164 58.1618 154.584 61.4135 145.31 65.6357C135.91 69.9033 126.895 74.9726 118.364 80.7875C110.13 86.4154 102.004 93.4968 99.4 103.537C98.1869 108.214 98.4109 113.174 100.441 117.592C102.245 121.519 105.218 124.823 108.68 127.372C116.942 133.452 127.354 134.701 137.334 134.825C148.542 134.964 159.75 134.586 170.962 134.77C193.811 135.145 216.614 136.536 239.369 138.943C245.071 139.547 250.766 140.214 256.454 140.945C261.569 141.602 266.702 142.256 271.732 143.423C280.675 145.5 289.378 149.492 294.936 157.076C297.403 160.363 298.932 164.259 299.358 168.347C299.747 172.613 298.703 176.887 296.775 180.682C292.506 189.083 284.511 194.426 276.02 197.936C271.472 199.816 266.755 201.24 262.047 202.654C261.361 202.86 261.068 201.789 261.752 201.583Z" fill="#F2F2F2"/>
<path d="M108.589 34.0972C113.495 34.0972 117.472 30.1193 117.472 25.2123C117.472 20.3053 113.495 16.3274 108.589 16.3274C103.683 16.3274 99.706 20.3053 99.706 25.2123C99.706 30.1193 103.683 34.0972 108.589 34.0972Z" fill="#F2F2F2"/>
<path d="M193.349 38.1695C198.255 38.1695 202.232 34.1916 202.232 29.2846C202.232 24.3776 198.255 20.3997 193.349 20.3997C188.443 20.3997 184.466 24.3776 184.466 29.2846C184.466 34.1916 188.443 38.1695 193.349 38.1695Z" fill="#F2F2F2"/>
<path d="M149.304 81.8538C154.21 81.8538 158.187 77.8759 158.187 72.9689C158.187 68.0619 154.21 64.084 149.304 64.084C144.398 64.084 140.421 68.0619 140.421 72.9689C140.421 77.8759 144.398 81.8538 149.304 81.8538Z" fill="#F2F2F2"/>
<path d="M93.4138 102.955C98.3199 102.955 102.297 98.9774 102.297 94.0704C102.297 89.1635 98.3199 85.1855 93.4138 85.1855C88.5078 85.1855 84.5307 89.1635 84.5307 94.0704C84.5307 98.9774 88.5078 102.955 93.4138 102.955Z" fill="#F2F2F2"/>
<path d="M152.635 135.903C157.541 135.903 161.518 131.925 161.518 127.018C161.518 122.111 157.541 118.134 152.635 118.134C147.729 118.134 143.752 122.111 143.752 127.018C143.752 131.925 147.729 135.903 152.635 135.903Z" fill="#F2F2F2"/>
<path d="M216.297 154.414C221.203 154.414 225.181 150.436 225.181 145.529C225.181 140.622 221.203 136.644 216.297 136.644C211.391 136.644 207.414 140.622 207.414 145.529C207.414 150.436 211.391 154.414 216.297 154.414Z" fill="#F2F2F2"/>
<path d="M290.694 150.341C295.6 150.341 299.577 146.364 299.577 141.457C299.577 136.55 295.6 132.572 290.694 132.572C285.788 132.572 281.811 136.55 281.811 141.457C281.811 146.364 285.788 150.341 290.694 150.341Z" fill="#F2F2F2"/>
<path d="M158.214 7.81403C131.604 8.00202 109.817 29.6301 109.439 56.2428C109.435 56.4885 109.434 58.2162 109.434 60.4758C109.434 63.7889 110.75 66.9663 113.092 69.3091C115.434 71.6519 118.611 72.9683 121.923 72.9687C123.566 72.9683 125.191 72.6444 126.708 72.0153C128.225 71.3862 129.603 70.4643 130.764 69.3024C131.924 68.1404 132.844 66.7611 133.472 65.2433C134.099 63.7255 134.421 62.099 134.42 60.4566C134.418 58.9195 134.418 57.8556 134.418 57.7903C134.417 53.6774 135.486 49.635 137.521 46.0609C139.556 42.4869 142.486 39.5042 146.023 37.4062C149.56 35.3083 153.582 34.1674 157.694 34.0958C161.805 34.0242 165.864 35.0243 169.472 36.9978C173.08 38.9712 176.112 41.8501 178.27 45.3511C180.428 48.8522 181.638 52.8548 181.78 56.9653C181.923 61.0758 180.993 65.1525 179.082 68.7945C177.171 72.4365 174.346 75.5183 170.883 77.7367L170.887 77.742C170.887 77.742 153.11 89.1885 147.691 104.891L147.695 104.892C146.742 108.109 146.26 111.447 146.262 114.802C146.262 116.181 146.343 128.248 146.5 138.042C146.554 141.422 147.935 144.644 150.344 147.014C152.753 149.384 155.997 150.712 159.376 150.712C161.074 150.712 162.756 150.376 164.323 149.723C165.891 149.071 167.314 148.115 168.511 146.91C169.708 145.706 170.655 144.276 171.297 142.704C171.94 141.132 172.265 139.449 172.255 137.751C172.2 128.781 172.171 118.336 172.171 117.578C172.171 107.936 181.471 98.3296 189.109 92.0648C197.906 84.8506 204.236 75.0195 206.778 63.9296C207.341 61.6464 207.651 59.3083 207.703 56.9574C207.703 50.4737 206.421 44.0542 203.929 38.0686C201.438 32.083 197.787 26.6496 193.186 22.0816C188.586 17.5135 183.128 13.9011 177.125 11.4524C171.123 9.00374 164.696 7.76719 158.214 7.81403Z" fill="#95E3CA"/>
<path d="M312.566 203.007H0.806165C0.689502 203.007 0.577736 202.96 0.495363 202.878C0.41299 202.795 0.36673 202.683 0.36673 202.567C0.36673 202.45 0.41299 202.338 0.495363 202.255C0.577736 202.173 0.689502 202.126 0.806165 202.126H312.566C312.682 202.126 312.795 202.172 312.877 202.255C312.96 202.338 313.006 202.45 313.006 202.567C313.006 202.683 312.96 202.796 312.877 202.878C312.795 202.961 312.682 203.007 312.566 203.007Z" fill="#3F3D56"/>
<path d="M232.974 83.7032C239.107 83.7032 244.078 78.7308 244.078 72.5971C244.078 66.4633 239.107 61.491 232.974 61.491C226.842 61.491 221.87 66.4633 221.87 72.5971C221.87 78.7308 226.842 83.7032 232.974 83.7032Z" fill="#2F2E41"/>
<path d="M212.455 198.146H207.918L205.759 180.639H212.456L212.455 198.146Z" fill="#A0616A"/>
<path d="M204.676 196.848H213.428V202.36H199.166C199.166 201.636 199.309 200.919 199.586 200.251C199.863 199.582 200.268 198.974 200.78 198.463C201.292 197.951 201.899 197.545 202.568 197.268C203.236 196.991 203.953 196.848 204.676 196.848Z" fill="#2F2E41"/>
<path d="M247.618 198.146H243.08L240.921 180.639H247.619L247.618 198.146Z" fill="#A0616A"/>
<path d="M239.839 196.848H248.59V202.36H234.329C234.329 201.636 234.471 200.919 234.748 200.251C235.025 199.582 235.431 198.974 235.943 198.463C236.454 197.951 237.062 197.545 237.73 197.268C238.399 196.991 239.115 196.848 239.839 196.848Z" fill="#2F2E41"/>
<path d="M231.287 83.7678C236.307 83.7678 240.377 79.6969 240.377 74.6752C240.377 69.6535 236.307 65.5826 231.287 65.5826C226.266 65.5826 222.196 69.6535 222.196 74.6752C222.196 79.6969 226.266 83.7678 231.287 83.7678Z" fill="#A0616A"/>
<path d="M236.705 113.101L240.773 103.753C241.761 101.56 242.044 99.1149 241.583 96.7543C241.122 94.3937 239.94 92.2342 238.2 90.574C237.843 90.2207 237.463 89.8905 237.064 89.5856C235.057 88.0151 232.583 87.1592 230.035 87.1533C228.322 87.16 226.63 87.5363 225.075 88.2565C224.942 88.3158 224.813 88.3787 224.679 88.4416C224.424 88.5638 224.172 88.6971 223.928 88.8341C222.335 89.7491 220.979 91.026 219.969 92.5616C218.96 94.0972 218.325 95.8486 218.117 97.6745L216.322 112.72C215.87 113.901 199.762 156.548 205.396 189.108C205.456 189.455 205.625 189.775 205.879 190.019C206.134 190.264 206.46 190.42 206.809 190.466L212.521 191.244C212.938 191.301 213.361 191.198 213.705 190.955C214.049 190.713 214.288 190.349 214.375 189.937L223.958 144.25C224.017 143.966 224.171 143.71 224.393 143.524C224.615 143.337 224.893 143.231 225.183 143.221C225.473 143.211 225.757 143.299 225.992 143.47C226.226 143.641 226.396 143.886 226.475 144.165L240.014 192.21C240.11 192.559 240.319 192.867 240.607 193.086C240.895 193.305 241.247 193.424 241.609 193.424C241.717 193.423 241.825 193.414 241.931 193.395L248.908 192.051C249.314 191.975 249.676 191.75 249.925 191.421C250.174 191.091 250.29 190.681 250.252 190.27C249.227 178.834 243.778 121.553 236.705 113.101Z" fill="#2F2E41"/>
<path d="M195.957 82.2423C195.894 82.7828 195.951 83.3307 196.122 83.8472C196.294 84.3637 196.576 84.8363 196.95 85.2317C197.324 85.6271 197.78 85.9358 198.286 86.1359C198.792 86.336 199.336 86.4226 199.879 86.3898L204.96 98.6037L208.804 92.9047L203.389 82.1799C203.274 81.2709 202.829 80.4359 202.139 79.8332C201.449 79.2304 200.562 78.9017 199.646 78.9094C198.73 78.9171 197.848 79.2606 197.168 79.8749C196.489 80.4892 196.058 81.3315 195.957 82.2423Z" fill="#A0616A"/>
<path d="M230.783 125.399C231.323 125.335 231.842 125.152 232.305 124.865C232.767 124.578 233.16 124.193 233.458 123.737C233.755 123.282 233.949 122.766 234.026 122.227C234.102 121.689 234.06 121.139 233.901 120.619L244.593 112.83L238.156 110.419L228.99 118.185C228.133 118.509 227.425 119.137 227 119.948C226.575 120.76 226.462 121.699 226.683 122.588C226.904 123.478 227.443 124.255 228.199 124.773C228.954 125.291 229.874 125.514 230.783 125.399Z" fill="#A0616A"/>
<path d="M213.354 106.747C212.944 106.746 212.535 106.706 212.133 106.626C211.16 106.441 210.248 106.02 209.477 105.399C208.706 104.778 208.099 103.977 207.711 103.066L200.591 94.3838C200.441 94.2002 200.331 93.9866 200.27 93.7572C200.209 93.5279 200.197 93.2881 200.236 93.0539C200.275 92.8197 200.364 92.5965 200.496 92.3994C200.628 92.2022 200.801 92.0355 201.003 91.9106L206.068 88.7747C206.255 88.6589 206.463 88.5813 206.68 88.5463C206.897 88.5114 207.119 88.5198 207.333 88.5711C207.547 88.6223 207.748 88.7155 207.926 88.8451C208.104 88.9748 208.254 89.1383 208.368 89.3264L213.386 97.5945L222.995 90.4915C223.76 90.0903 224.644 89.9778 225.485 90.1745C226.326 90.3713 227.069 90.8641 227.577 91.5631C228.084 92.262 228.324 93.1204 228.251 93.9814C228.179 94.8424 227.799 95.6485 227.181 96.2525L217.59 105.003C216.463 106.12 214.941 106.747 213.354 106.747Z" fill="#2F2E41"/>
<path d="M239.318 119.805C239.305 119.805 239.292 119.805 239.279 119.804C239.046 119.799 238.816 119.744 238.605 119.644C238.394 119.544 238.206 119.4 238.054 119.223L233.551 113.968C233.397 113.789 233.284 113.58 233.217 113.354C233.151 113.128 233.133 112.89 233.165 112.657C233.198 112.423 233.279 112.199 233.404 111.999C233.529 111.8 233.695 111.629 233.891 111.498L242.324 105.876L234.685 96.6899C234.24 95.949 234.077 95.0729 234.225 94.2216C234.374 93.3704 234.823 92.6009 235.492 92.0537C236.16 91.5065 237.003 91.2181 237.867 91.2413C238.73 91.2645 239.557 91.5976 240.195 92.1799L249.479 101.255C250.21 101.922 250.768 102.757 251.105 103.688C251.442 104.619 251.548 105.617 251.414 106.598C251.28 107.579 250.911 108.513 250.337 109.319C249.763 110.126 249.002 110.781 248.119 111.228L240.531 119.281C240.375 119.447 240.187 119.578 239.978 119.668C239.77 119.758 239.545 119.804 239.318 119.805Z" fill="#2F2E41"/>
<path d="M228.975 100.443C228.903 100.443 228.831 100.439 228.759 100.429C228.445 100.391 228.149 100.264 227.906 100.063C227.662 99.8613 227.482 99.5943 227.386 99.2934L224.002 88.9168C223.917 88.6544 223.93 88.3703 224.038 88.1168C224.147 87.8633 224.343 87.6577 224.592 87.5379L224.702 87.486C224.801 87.4387 224.9 87.3919 225 87.347C226.578 86.6151 228.296 86.2333 230.035 86.2279C232.293 86.2321 234.501 86.8956 236.387 88.137C236.64 88.3053 236.817 88.5662 236.879 88.8636C236.942 89.161 236.885 89.4709 236.721 89.7268L230.373 99.6733C230.224 99.9095 230.018 100.104 229.773 100.239C229.529 100.373 229.254 100.444 228.975 100.443Z" fill="#E6E6E6"/>
<path d="M241.728 67.6387C243.735 67.6387 245.362 66.0116 245.362 64.0045C245.362 61.9974 243.735 60.3704 241.728 60.3704C239.722 60.3704 238.095 61.9974 238.095 64.0045C238.095 66.0116 239.722 67.6387 241.728 67.6387Z" fill="#2F2E41"/>
<path d="M229.273 60.0101C226.72 60.0101 224.273 61.0242 222.468 62.8293C220.663 64.6344 219.649 67.0826 219.649 69.6354V73.7077H224.657L227.052 69.6354L227.77 73.7077H242.968L238.896 69.6354C238.896 67.0826 237.882 64.6344 236.077 62.8293C234.273 61.0242 231.825 60.0101 229.273 60.0101Z" fill="#2F2E41"/>
<path d="M243.596 61.5155C243.998 60.2588 244.83 59.1841 245.945 58.4802C247.061 57.7763 248.389 57.4884 249.696 57.667C252.012 58.0542 253.842 59.9158 254.933 61.9951C256.024 64.0743 256.528 66.4014 257.261 68.6321C257.994 70.8627 259.034 73.1055 260.886 74.5494C262.737 75.9934 265.578 76.385 267.396 74.8996C267.189 76.4477 266.499 77.8912 265.427 79.0261C264.354 80.161 262.951 80.9298 261.417 81.2237C259.884 81.5177 258.296 81.3219 256.88 80.6641C255.464 80.0063 254.29 78.9198 253.525 77.5582C252.565 75.8509 252.318 73.8499 252.033 71.9122C251.749 69.9745 251.379 67.9696 250.234 66.3812C249.088 64.7928 246.944 63.7553 245.124 64.4788L243.596 61.5155Z" fill="#2F2E41"/>
<path d="M125.45 67.0596C122.138 67.0593 118.961 65.7429 116.619 63.4001C114.276 61.0573 112.96 57.8799 112.96 54.5667C112.96 52.3071 112.962 50.5794 112.965 50.3337C113.07 42.594 115.019 34.991 118.65 28.1553C112.685 36.3231 109.405 46.1431 109.264 56.257C109.26 56.5027 109.259 58.2304 109.259 60.49C109.259 63.8031 110.575 66.9805 112.917 69.3234C115.26 71.6662 118.436 72.9825 121.749 72.9829C124.471 72.9819 127.118 72.0922 129.288 70.4491C131.459 68.8061 133.033 66.4993 133.773 63.8794C131.486 65.9306 128.522 67.0634 125.45 67.0596Z" fill="#3F3D56"/>
<path d="M159.06 34.1378C162.89 34.3207 166.618 35.4305 169.924 37.3718C173.23 39.3132 176.016 42.0281 178.042 45.2835C180.068 48.5388 181.274 52.2374 181.556 56.0616C181.838 59.8857 181.188 63.7213 179.661 67.2388C181.869 64.6454 183.492 61.6063 184.419 58.3288C185.346 55.0512 185.556 51.6123 185.033 48.2464C184.511 44.8805 183.27 41.6668 181.393 38.8244C179.517 35.9819 177.049 33.5777 174.16 31.7754C171.27 29.9731 168.025 28.8153 164.648 28.3808C161.27 27.9463 157.838 28.2454 154.587 29.2576C151.335 30.2699 148.34 31.9715 145.805 34.2465C143.271 36.5215 141.257 39.3164 139.9 42.4406C142.245 39.6816 145.192 37.4981 148.514 36.0586C151.836 34.619 155.444 33.9619 159.06 34.1378Z" fill="#3F3D56"/>
<path d="M162.903 144.803C159.524 144.803 156.28 143.475 153.871 141.105C151.462 138.735 150.081 135.513 150.026 132.133C149.869 122.339 149.788 110.272 149.788 108.893C149.786 105.538 150.269 102.2 151.222 98.9832L151.217 98.9821C151.78 97.3674 152.46 95.796 153.251 94.2802C150.822 97.5173 148.889 101.098 147.516 104.905L147.521 104.906C146.568 108.123 146.085 111.461 146.087 114.816C146.087 116.195 146.168 128.262 146.325 138.057C146.38 141.436 147.76 144.658 150.169 147.029C152.578 149.399 155.822 150.727 159.202 150.726C161.988 150.725 164.699 149.821 166.928 148.149C169.157 146.478 170.784 144.128 171.565 141.453C169.197 143.612 166.107 144.807 162.903 144.803Z" fill="#3F3D56"/>
<path d="M47.2023 198.314L51.7397 198.314L53.8987 180.808L47.2012 180.808L47.2023 198.314Z" fill="#FFB8B8"/>
<path d="M60.4913 202.528L46.2299 202.529L46.2296 197.018L54.981 197.017C56.4423 197.017 57.8439 197.598 58.8773 198.631C59.9107 199.665 60.4912 201.066 60.4913 202.528Z" fill="#2F2E41"/>
<path d="M30.9164 198.314L35.4539 198.314L37.6129 180.808L30.9153 180.808L30.9164 198.314Z" fill="#FFB8B8"/>
<path d="M44.2055 202.528L29.9441 202.529L29.9439 197.018L38.6952 197.017C40.1566 197.017 41.5581 197.598 42.5915 198.631C43.6249 199.665 44.2055 201.066 44.2055 202.528Z" fill="#2F2E41"/>
<path d="M34.8818 192.93L30.4495 192.697C30.2209 192.685 29.997 192.628 29.7908 192.529C29.5845 192.429 29.4 192.29 29.2478 192.119C29.0957 191.948 28.9791 191.749 28.9046 191.532C28.8301 191.316 28.7994 191.087 28.814 190.858L34.1116 132.193L58.5073 138.778L60.8577 138.136L53.5076 190.07C53.445 190.461 53.251 190.819 52.9577 191.084C52.6644 191.35 52.2894 191.507 51.8945 191.531L47.1165 191.753C46.8776 191.767 46.6385 191.73 46.4144 191.646C46.1903 191.563 45.986 191.433 45.8145 191.266C45.6429 191.099 45.5079 190.899 45.4178 190.677C45.3277 190.455 45.2846 190.217 45.2912 189.978L46.1569 158.808C46.161 158.664 46.1109 158.524 46.0166 158.415C45.9223 158.306 45.7905 158.236 45.6473 158.219C45.5042 158.202 45.3599 158.24 45.243 158.324C45.1261 158.409 45.045 158.534 45.0157 158.675L36.6667 191.554C36.5879 191.944 36.3763 192.294 36.0679 192.546C35.7595 192.797 35.3734 192.934 34.9755 192.933C34.9445 192.933 34.9132 192.932 34.8818 192.93Z" fill="#2F2E41"/>
<path d="M48.0169 84.1933C53.0376 84.1933 57.1077 80.1224 57.1077 75.1007C57.1077 70.079 53.0376 66.0081 48.0169 66.0081C42.9962 66.0081 38.9261 70.079 38.9261 75.1007C38.9261 80.1224 42.9962 84.1933 48.0169 84.1933Z" fill="#FFB8B8"/>
<path d="M32.8814 101.814L33.8809 123.385L34.2423 131.233C34.2567 131.574 34.3726 131.904 34.5753 132.179C34.778 132.455 35.0583 132.663 35.3802 132.779L58.8228 141.272C59.0122 141.343 59.2128 141.378 59.4148 141.376C59.6458 141.377 59.8745 141.332 60.0875 141.243C60.3004 141.153 60.4932 141.022 60.6543 140.857C60.8155 140.691 60.9416 140.495 61.0252 140.28C61.1088 140.064 61.1482 139.834 61.141 139.604L60.1799 100.818C60.1168 97.6362 58.9457 94.5758 56.8684 92.1648C54.7912 89.7537 51.938 88.1431 48.8007 87.6105C48.574 87.5759 48.3433 87.5413 48.1126 87.5105C46.1672 87.269 44.1926 87.4568 42.3276 88.0606C40.4626 88.6645 38.7525 89.6698 37.3177 91.0057C35.832 92.3725 34.6646 94.0489 33.898 95.9166C33.1314 97.7843 32.7844 99.7976 32.8814 101.814Z" fill="#CCCCCC"/>
<path d="M70.0213 136.968C69.4669 136.796 68.9603 136.497 68.542 136.094C68.1238 135.691 67.8055 135.196 67.6124 134.649C67.4194 134.101 67.357 133.516 67.4302 132.94C67.5034 132.364 67.7103 131.813 68.0342 131.331L60.0845 120.758L66.9446 120.333L73.442 130.439C74.1376 130.977 74.6216 131.742 74.8092 132.602C74.9968 133.461 74.8759 134.359 74.4678 135.137C74.0597 135.916 73.3905 136.527 72.5774 136.861C71.7643 137.196 70.8594 137.234 70.0213 136.968Z" fill="#FFB8B8"/>
<path d="M64.4319 129.418C64.2213 129.332 64.0297 129.206 63.8682 129.046C63.7068 128.886 63.5787 128.695 63.4913 128.485L51.5145 99.9447C51.2795 99.3859 51.1569 98.7863 51.1537 98.1801C51.1505 97.5739 51.2668 96.973 51.4959 96.4117C51.725 95.8505 52.0625 95.3399 52.4889 94.9091C52.9154 94.4784 53.4226 94.1359 53.9815 93.9013C54.5403 93.6667 55.1399 93.5445 55.746 93.5418C56.3521 93.5391 56.9528 93.6558 57.5138 93.8854C58.0747 94.115 58.585 94.4529 59.0153 94.8798C59.4456 95.3067 59.7876 95.8142 60.0218 96.3734L71.9986 124.914C72.1756 125.338 72.1775 125.814 72.004 126.238C71.8305 126.663 71.4957 127.001 71.0731 127.179L65.756 129.411C65.5467 129.5 65.3218 129.546 65.0945 129.547C64.8673 129.548 64.642 129.504 64.4319 129.418Z" fill="#CCCCCC"/>
<path d="M45.0942 128.411L56.5976 106.381C56.8194 105.957 57.2002 105.639 57.6565 105.495C58.1127 105.352 58.6071 105.396 59.0312 105.617L75.7284 114.339C76.152 114.561 76.4703 114.942 76.6134 115.398C76.7566 115.854 76.713 116.349 76.4921 116.773L64.9887 138.803C64.7669 139.227 64.386 139.545 63.9298 139.689C63.4736 139.832 62.9792 139.788 62.5551 139.567L45.8579 130.845C45.4343 130.623 45.116 130.242 44.9728 129.786C44.8297 129.33 44.8733 128.835 45.0942 128.411Z" fill="#3F3D56"/>
<path d="M52.8088 118.346C52.6043 117.802 52.2756 117.314 51.849 116.92C51.4224 116.527 50.9096 116.238 50.3517 116.078C49.7938 115.917 49.206 115.889 48.6355 115.997C48.0649 116.104 47.5273 116.343 47.0655 116.695L36.0435 109.382L36.0248 116.256L46.4943 122.147C47.0722 122.81 47.865 123.248 48.7335 123.384C49.6021 123.521 50.491 123.347 51.2444 122.894C51.9977 122.44 52.5674 121.736 52.8534 120.904C53.1395 120.073 53.1237 119.167 52.8088 118.346Z" fill="#FFB8B8"/>
<path d="M38.8733 119.892L29.8655 112.755C28.8911 112.428 28.0105 111.869 27.2996 111.126C26.5886 110.384 26.0684 109.48 25.7836 108.492C25.4989 107.504 25.458 106.462 25.6646 105.455C25.8713 104.447 26.3191 103.505 26.9698 102.71L35.1487 91.9886C35.717 91.2939 36.5164 90.827 37.4006 90.6733C38.2847 90.5195 39.1947 90.6892 39.9641 91.1512C40.7335 91.6133 41.311 92.3368 41.591 93.1897C41.871 94.0425 41.8347 94.9676 41.4889 95.7959L35.0176 106.384L44.5277 110.895C44.7489 111 44.9452 111.151 45.1039 111.337C45.2625 111.524 45.3797 111.742 45.4479 111.977C45.5161 112.212 45.5336 112.459 45.4992 112.701C45.4649 112.944 45.3795 113.176 45.2488 113.383L41.4099 119.46C41.2801 119.665 41.1087 119.84 40.9068 119.975C40.7049 120.109 40.477 120.2 40.2378 120.241C40.2283 120.243 40.2187 120.244 40.2092 120.246C39.9741 120.281 39.7343 120.268 39.5046 120.207C39.2748 120.146 39.06 120.039 38.8733 119.892Z" fill="#CCCCCC"/>
<path d="M41.1477 81.1893C41.1087 81.0752 41.0963 80.9536 41.1115 80.834C41.1267 80.7143 41.1691 80.5997 41.2354 80.499C41.3018 80.3983 41.3903 80.3141 41.4941 80.2528C41.598 80.1916 41.7145 80.1549 41.8348 80.1457C42.081 80.1591 42.322 80.2222 42.5431 80.3314C42.7642 80.4405 42.9609 80.5933 43.1214 80.7806C43.4504 81.16 43.8334 81.4889 44.2581 81.7568C44.6979 81.9785 45.2943 81.9469 45.545 81.5242C45.7804 81.1273 45.6191 80.5958 45.4766 80.1347C45.1139 78.9617 44.911 77.7451 44.8733 76.5178C44.8323 75.1479 45.0255 73.7183 45.7837 72.6499C46.7623 71.271 48.5121 70.7475 50.1681 70.7854C51.8241 70.8234 53.4532 71.3347 55.0935 71.6579C55.6598 71.7694 56.3254 71.8265 56.7041 71.3875C57.1069 70.9208 56.959 70.1653 56.7877 69.5351C56.3431 67.8998 55.8716 66.209 54.8388 64.8882C53.7221 63.5158 52.127 62.6176 50.3747 62.3745C48.6924 62.166 46.9847 62.36 45.3919 62.9403C42.7969 63.7584 40.5134 65.3494 38.8469 67.5007C37.129 69.7885 36.3867 72.6635 36.7823 75.4972C37.1687 77.9652 38.4763 80.1949 40.4413 81.7368L41.1477 81.1893Z" fill="#2F2E41"/>
<path d="M156.286 198.387C153.868 197.333 151.727 195.732 150.033 193.709C148.339 191.686 147.138 189.297 146.526 186.73C145.913 184.164 145.905 181.49 146.502 178.92C147.1 176.35 148.286 173.954 149.968 171.921C148.018 173.345 146.393 175.168 145.201 177.268C144.01 179.368 143.278 181.697 143.055 184.102C142.832 186.506 143.123 188.931 143.909 191.214C144.694 193.497 145.956 195.588 147.611 197.346C149.266 199.104 151.276 200.49 153.507 201.412C155.739 202.334 158.141 202.771 160.554 202.693C162.967 202.616 165.336 202.026 167.504 200.963C169.671 199.899 171.588 198.387 173.127 196.526C170.727 198.281 167.909 199.376 164.954 199.702C162 200.029 159.011 199.575 156.286 198.387Z" fill="#3F3D56"/>
</svg>
