<svg width="124" height="187" viewBox="0 0 124 187" fill="none" xmlns="http://www.w3.org/2000/svg">
<path d="M35.3366 173.133H15.9584V162.897H31.7833C33.0822 162.897 33.9849 162.628 34.4912 162.091C34.9976 161.554 35.253 160.67 35.253 159.429V153.338C35.253 152.097 34.9976 151.208 34.4912 150.675C33.9849 150.138 33.0822 149.87 31.7833 149.87H15.9584V139.805H34.9139C36.1556 139.805 37.0407 139.55 37.5778 139.044C38.115 138.538 38.3836 137.635 38.3836 136.337V130.246C38.3836 128.948 38.115 128.046 37.5778 127.54C37.0407 127.034 36.1512 126.778 34.9139 126.778H3.85418C2.55526 126.778 1.65261 127.034 1.14625 127.54C0.639892 128.046 0.38451 128.948 0.38451 130.246V182.687C0.38451 183.986 0.639892 184.888 1.14625 185.394C1.65261 185.9 2.55526 186.155 3.85418 186.155H35.3366C36.6356 186.155 37.5382 185.9 38.0446 185.394C38.5509 184.888 38.8063 183.986 38.8063 182.687V176.597C38.8063 175.298 38.5509 174.396 38.0446 173.89C37.5382 173.384 36.6356 173.129 35.3366 173.129V173.133Z" fill="#FFF9F3"/>
<path d="M108.799 149.87C109.305 150.376 110.208 150.631 111.507 150.631H120.141C121.44 150.631 122.343 150.376 122.849 149.87C123.355 149.364 123.611 148.461 123.611 147.163V145.64C123.611 141.75 123.329 138.621 122.765 136.253C122.197 133.886 121.141 131.896 119.591 130.29C118.041 128.684 115.954 127.557 113.329 126.906C110.705 126.259 107.249 125.933 102.964 125.933H97.6323C93.3436 125.933 89.8871 126.259 87.2673 126.906C84.643 127.553 82.5559 128.684 81.006 130.29C79.4517 131.896 78.3949 133.886 77.8313 136.253C77.2677 138.621 76.9859 141.75 76.9859 145.64V167.293C76.9859 171.183 77.2677 174.312 77.8313 176.68C78.3949 179.048 79.4517 181.037 81.006 182.643C82.5559 184.25 84.643 185.381 87.2673 186.028C89.8915 186.674 93.3436 187 97.6323 187H102.964C107.253 187 110.71 186.674 113.329 186.028C115.954 185.381 118.041 184.25 119.591 182.643C121.141 181.037 122.197 179.048 122.765 176.68C123.329 174.312 123.611 171.183 123.611 167.293V165.77C123.611 164.472 123.36 163.57 122.849 163.064C122.338 162.557 121.44 162.302 120.141 162.302H111.507C110.208 162.302 109.305 162.557 108.799 163.064C108.292 163.57 108.037 164.472 108.037 165.77V166.954C108.037 169.661 107.614 171.522 106.769 172.534C105.923 173.551 104.369 174.057 102.115 174.057H98.4777C96.2189 174.057 94.669 173.551 93.8236 172.534C92.9781 171.518 92.5554 169.661 92.5554 166.954V145.979C92.5554 143.273 92.9781 141.411 93.8236 140.399C94.669 139.382 96.2189 138.876 98.4777 138.876H102.115C104.369 138.876 105.923 139.382 106.769 140.399C107.614 141.416 108.037 143.273 108.037 145.979V147.163C108.037 148.461 108.292 149.364 108.799 149.87Z" fill="#FFF9F3"/>
<path d="M69.188 126.773H45.5035C44.2618 126.773 43.3768 127.029 42.8396 127.535C42.3024 128.041 42.0338 128.943 42.0338 130.241V136.332C42.0338 137.63 42.3024 138.533 42.8396 139.039C43.3768 139.545 44.2662 139.8 45.5035 139.8H57.0837V167.205C57.0837 169.405 56.6743 170.941 55.8553 171.812C55.0363 172.688 53.4423 173.124 51.0735 173.124H45.4903C44.1913 173.124 43.2887 173.379 42.7823 173.885C42.276 174.391 42.0206 175.293 42.0206 176.592V182.683C42.0206 183.981 42.276 184.883 42.7823 185.389C43.2887 185.895 44.1913 186.151 45.4903 186.151H53.275C60.8925 186.151 66.0265 184.826 68.6772 182.177C71.3279 179.527 72.6533 174.563 72.6533 167.288V130.241C72.6533 128.943 72.3979 128.041 71.8915 127.535C71.3851 127.029 70.4825 126.773 69.1836 126.773H69.188Z" fill="#FFF9F3"/>
<path d="M97.531 15.0247C88.0423 5.53638 75.4184 0.3125 61.9933 0.3125C48.5681 0.3125 35.9487 5.53638 26.4555 15.0247C6.86155 34.6088 6.86155 66.4758 26.4555 86.0642L53.4732 113.068C55.7496 115.343 58.7746 116.598 61.9933 116.598C65.212 116.598 68.2369 115.343 70.5133 113.068L97.531 86.0642C117.125 66.4802 117.125 34.6132 97.531 15.0247ZM93.3877 81.923L66.37 108.927C65.1988 110.098 63.6445 110.74 61.9933 110.74C60.3421 110.74 58.7834 110.098 57.6166 108.927L30.5989 81.923C13.2901 64.623 13.2901 36.4704 30.5989 19.166C38.9825 10.7823 50.1356 6.17011 61.9933 6.17011C73.8509 6.17011 84.9997 10.7867 93.3877 19.1704C110.696 36.4704 110.696 64.623 93.3877 81.9274V81.923Z" fill="#96E4CB"/>
<path d="M61.9977 15.4165C42.6635 15.4165 26.9927 31.0793 26.9927 50.4037C26.9927 65.8817 37.0495 79.0141 50.9898 83.6262C50.9898 83.6262 56.1899 81.395 59.0299 77.1393C67.7306 64.0906 50.2809 59.8745 50.8445 51.9793C51.254 46.2317 69.9894 46.3153 70.3856 40.6293C70.7291 35.6563 54.3274 35.5727 54.3274 35.5727C54.3274 35.5727 57.1982 35.247 60.8484 35.2866V28.4916H58.3122V26.1899H60.8484V23.6066H63.1513V26.1899H65.6875V28.4916H63.1513V35.3614C68.6728 35.6651 74.9297 36.9854 75.938 41.3027C77.1577 46.5045 64.8509 47.5035 64.6572 52.1289C64.2521 61.8329 94.3563 63.7649 94.3563 63.7649C96.0604 59.6501 96.9982 55.1347 96.9982 50.4037C96.9982 31.0793 81.3275 15.4165 61.9933 15.4165H61.9977Z" fill="#96E4CB"/>
</svg>
