<svg width="387" height="212" viewBox="0 0 387 212" fill="none" xmlns="http://www.w3.org/2000/svg">
<path d="M70.4619 210.252C56.8056 206.698 44.7382 198.662 36.1939 187.431C27.6497 176.201 23.1235 162.427 23.3409 148.317C23.395 144.802 23.7646 141.213 25.2424 138.022C26.7202 134.832 29.4652 132.073 32.8988 131.317C36.6462 130.492 40.6004 132.178 43.393 134.81C46.1857 137.441 48.0168 140.913 49.7014 144.36C59.8487 165.125 67.5583 187.406 70.4448 210.336L70.4619 210.252Z" fill="#F2F2F2"/>
<path d="M31.1988 132.01L38.3106 148.168L45.4223 164.327C47.6746 169.444 49.9226 174.564 52.2506 179.648C54.5582 184.687 56.9448 189.691 59.4909 194.614C62.0333 199.53 64.7355 204.366 67.6686 209.061C68.0338 209.646 68.4027 210.228 68.7751 210.808C69.0328 211.21 69.6771 210.837 69.4176 210.433C66.4282 205.773 63.6738 200.966 61.0904 196.071C58.5041 191.17 56.087 186.181 53.759 181.153C51.4187 176.098 49.1683 171.002 46.924 165.904C44.5616 160.537 42.1996 155.171 39.838 149.804L32.7263 133.645L31.8413 131.634C31.6488 131.197 31.0075 131.575 31.1988 132.01Z" fill="white"/>
<path d="M67.4952 210.365C59.4456 212.206 51.0108 211.291 43.543 207.767C36.0752 204.243 30.0068 198.314 26.3106 190.93C25.3897 189.09 24.6126 187.127 24.5186 185.072C24.4247 183.016 25.1049 180.843 26.6835 179.523C28.4064 178.083 30.9146 177.891 33.0749 178.504C35.2351 179.116 37.123 180.424 38.9284 181.759C49.8023 189.8 59.82 199.287 67.509 210.413L67.4952 210.365Z" fill="#F2F2F2"/>
<path d="M25.9879 180.342L34.0424 186.811L42.0969 193.281C44.6478 195.33 47.197 197.381 49.7781 199.392C52.3365 201.385 54.9265 203.339 57.5775 205.207C60.2247 207.073 62.9331 208.855 65.7233 210.5C66.0708 210.705 66.4195 210.908 66.7695 211.109C67.0118 211.248 67.2456 210.88 67.0017 210.74C64.1917 209.128 61.464 207.376 58.8011 205.532C56.1353 203.685 53.5336 201.748 50.9676 199.766C48.3878 197.773 45.8438 195.735 43.3022 193.694C40.6269 191.545 37.9519 189.397 35.2769 187.248L27.2224 180.779L26.2201 179.974C26.0021 179.799 25.7713 180.168 25.9879 180.342Z" fill="white"/>
<path d="M320.033 209.848C339.077 204.891 355.906 193.684 367.821 178.023C379.737 162.361 386.048 143.153 385.745 123.477C385.67 118.574 385.154 113.569 383.094 109.12C381.033 104.671 377.205 100.823 372.416 99.7693C367.191 98.6188 361.676 100.971 357.782 104.64C353.887 108.31 351.334 113.151 348.984 117.959C334.834 146.916 324.082 177.987 320.057 209.965L320.033 209.848Z" fill="#F2F2F2"/>
<path d="M374.787 100.735L364.87 123.269L354.952 145.803C351.811 152.939 348.676 160.079 345.43 167.168C342.212 174.195 338.883 181.174 335.333 188.039C331.787 194.895 328.019 201.639 323.929 208.186C323.419 209.002 322.905 209.814 322.385 210.623C322.026 211.183 321.128 210.663 321.49 210.099C325.658 203.601 329.499 196.898 333.102 190.071C336.709 183.236 340.08 176.279 343.326 169.267C346.59 162.218 349.728 155.111 352.858 148.001C356.152 140.518 359.446 133.034 362.739 125.55L372.657 103.016L373.891 100.212C374.16 99.6019 375.054 100.129 374.787 100.735Z" fill="white"/>
<path d="M324.17 210.004C335.396 212.572 347.158 211.297 357.573 206.382C367.987 201.468 376.449 193.199 381.604 182.902C382.888 180.336 383.972 177.598 384.103 174.732C384.234 171.866 383.285 168.835 381.084 166.995C378.681 164.987 375.183 164.719 372.171 165.573C369.158 166.427 366.526 168.251 364.008 170.113C348.844 181.327 334.874 194.556 324.151 210.072L324.17 210.004Z" fill="#F2F2F2"/>
<path d="M382.054 168.137L370.822 177.158L359.589 186.18C356.032 189.037 352.477 191.898 348.878 194.702C345.31 197.482 341.698 200.206 338.001 202.812C334.309 205.414 330.532 207.899 326.641 210.193C326.157 210.479 325.67 210.762 325.182 211.042C324.844 211.236 324.518 210.723 324.859 210.528C328.777 208.28 332.581 205.837 336.295 203.265C340.012 200.69 343.64 197.988 347.219 195.224C350.816 192.445 354.364 189.603 357.908 186.756C361.639 183.76 365.37 180.764 369.1 177.767L380.332 168.746L381.73 167.623C382.034 167.379 382.356 167.894 382.054 168.137Z" fill="white"/>
<path d="M95.9427 65.2052V65.2097L92.2372 68.3065L66.7556 73.9671C65.9713 74.2843 65.2573 74.7528 64.6541 75.3458C64.051 75.9389 63.5706 76.645 63.2403 77.4238C62.5733 78.9966 62.5584 80.7699 63.1988 82.3536C63.5159 83.1379 63.9844 83.8519 64.5775 84.4551C65.1706 85.0582 65.8767 85.5386 66.6555 85.8689C68.2282 86.5359 70.0016 86.5508 71.5853 85.9104L87.8161 83.1778C88.7152 83.0286 89.6029 82.8178 90.4731 82.5469C90.8153 82.4447 91.1531 82.3292 91.4863 82.2092C92.9288 75.9235 94.9548 69.786 97.5377 63.8767L95.9427 65.2052Z" fill="#2F2E41"/>
<path d="M307.589 80.8452L304.056 80.8229L302.168 80.8141L291.349 61.8995C291.44 61.7016 291.518 61.4983 291.584 61.2908C292.789 57.5763 289.612 55.0215 286.586 55.0748C286.242 55.0744 285.899 55.1147 285.564 55.1948C291.524 65.9804 295.521 77.739 297.369 89.9226C297.676 90.0095 297.99 90.0719 298.307 90.1092C299.957 90.2579 301.62 90.2012 303.256 89.9403C305.46 89.6604 307.544 89.265 308.655 89.3494L307.589 80.8452Z" fill="#A0616A"/>
<path d="M319.234 81.205L306.251 79.4011C305.776 79.3355 305.292 79.443 304.889 79.704C304.487 79.965 304.191 80.3621 304.056 80.8229C304.029 80.9161 304.008 81.0111 303.994 81.1073L302.954 88.5851C302.884 89.1095 303.023 89.6405 303.342 90.063C303.661 90.4855 304.133 90.7654 304.656 90.8422L317.639 92.6462C319.156 92.8577 320.695 92.4578 321.918 91.5346C323.14 90.6113 323.946 89.2403 324.157 87.7231C324.369 86.2059 323.969 84.6668 323.046 83.4445C322.122 82.2221 320.751 81.4165 319.234 81.205Z" fill="#C47169"/>
<path d="M298.307 90.1091C296.511 77.8277 292.542 65.9643 286.586 55.0747C277.011 37.5664 262.683 23.1206 245.254 13.4026C227.824 3.68467 208.004 -0.909706 188.076 0.149192C168.149 1.20809 148.927 7.87714 132.626 19.3875C116.324 30.8978 103.608 46.7807 95.9427 65.2051V65.2096C93.6181 70.8183 91.788 76.6195 90.4731 82.5468C88.7876 90.1476 87.9398 97.9102 87.945 105.696C87.945 133.742 99.0862 160.639 118.918 180.47C138.749 200.302 165.646 211.443 193.692 211.443C221.738 211.443 248.636 200.302 268.467 180.47C288.299 160.639 299.44 133.742 299.44 105.696C299.442 100.48 299.063 95.2702 298.307 90.1091ZM193.692 210.554C135.873 210.554 88.8336 163.515 88.8336 105.696C88.817 91.3046 91.7806 77.066 97.5377 63.8766C113.72 26.8073 150.731 0.836929 193.692 0.836929C233.214 0.836929 267.698 22.8173 285.564 55.1947C291.524 65.9803 295.521 77.7389 297.369 89.9225C298.157 95.1432 298.552 100.416 298.551 105.696C298.551 163.515 251.511 210.554 193.692 210.554Z" fill="#3F3D56"/>
<path d="M159.369 95.0322C154.224 95.0313 149.239 93.2444 145.265 89.9765C141.291 86.7087 138.574 82.1626 137.579 77.1145C136.585 72.0665 137.373 66.8297 139.81 62.2985C142.247 57.7672 146.182 54.2225 150.942 52.2697C155.702 50.3169 160.993 50.0772 165.91 51.5914C170.827 53.1057 175.066 56.2799 177.903 60.5722C180.74 64.8645 181.999 70.0085 181.465 75.1258C180.931 80.243 178.637 85.0162 174.974 88.6301C170.824 92.7443 165.213 95.0463 159.369 95.0322ZM159.369 51.4891C155.15 51.4888 151.026 52.7395 147.519 55.083C144.011 57.4265 141.277 60.7576 139.662 64.655C138.048 68.5524 137.625 72.841 138.448 76.9785C139.271 81.116 141.303 84.9166 144.286 87.8996C147.269 90.8825 151.069 92.914 155.207 93.7369C159.344 94.5598 163.633 94.1373 167.53 92.5228C171.428 90.9083 174.759 88.1743 177.102 84.6665C179.446 81.1588 180.696 77.0349 180.696 72.8163C180.69 67.162 178.441 61.741 174.442 57.7428C170.444 53.7445 165.023 51.4955 159.369 51.4891Z" fill="#3F3D56"/>
<path d="M227.794 95.0323C223.4 95.0323 219.105 93.7293 215.451 91.2882C211.798 88.8471 208.95 85.3775 207.269 81.3181C205.588 77.2587 205.148 72.7918 206.005 68.4823C206.862 64.1729 208.978 60.2144 212.085 57.1075C215.192 54.0005 219.15 51.8847 223.46 51.0275C227.769 50.1703 232.236 50.6102 236.295 52.2917C240.355 53.9731 243.824 56.8206 246.266 60.474C248.707 64.1274 250.01 68.4226 250.01 72.8164C250.003 78.7064 247.66 84.3532 243.495 88.5181C239.331 92.6829 233.684 95.0256 227.794 95.0323ZM227.794 51.4892C223.576 51.4892 219.452 52.74 215.945 55.0835C212.438 57.427 209.704 60.7578 208.09 64.6549C206.476 68.5519 206.053 72.8401 206.876 76.9772C207.699 81.1142 209.73 84.9144 212.713 87.897C215.696 90.8797 219.496 92.9109 223.633 93.7338C227.77 94.5568 232.058 94.1344 235.955 92.5202C239.852 90.906 243.183 88.1724 245.527 84.6652C247.87 81.1579 249.121 77.0346 249.121 72.8164C249.115 67.1621 246.866 61.7411 242.867 57.7429C238.869 53.7446 233.448 51.4956 227.794 51.4892Z" fill="#3F3D56"/>
<path d="M174.662 88.3142C170.587 92.3341 165.093 94.5879 159.369 94.5879C153.645 94.5879 148.151 92.3341 144.076 88.3142C145.438 85.4082 147.6 82.9504 150.308 81.2287C153.017 79.5069 156.16 78.5925 159.369 78.5925C162.578 78.5925 165.721 79.5069 168.43 81.2287C171.138 82.9504 173.3 85.4082 174.662 88.3142Z" fill="#3F3D56"/>
<path d="M243.087 88.3142C239.012 92.3341 233.518 94.5879 227.794 94.5879C222.07 94.5879 216.576 92.3341 212.5 88.3142C213.863 85.4082 216.024 82.9504 218.733 81.2287C221.441 79.5069 224.584 78.5925 227.794 78.5925C231.003 78.5925 234.146 79.5069 236.855 81.2287C239.563 82.9504 241.725 85.4082 243.087 88.3142Z" fill="#3F3D56"/>
<path d="M179.363 109.25C179.363 106.796 187.32 104.807 197.136 104.807C206.951 104.807 214.909 106.796 214.909 109.25C214.909 111.704 206.951 120.803 197.136 120.803C187.32 120.803 179.363 111.704 179.363 109.25Z" fill="#3F3D56"/>
<path d="M137.82 108.584C141.991 108.584 145.373 105.202 145.373 101.03C145.373 96.8588 141.991 93.4771 137.82 93.4771C133.648 93.4771 130.266 96.8588 130.266 101.03C130.266 105.202 133.648 108.584 137.82 108.584Z" fill="#FF6584"/>
<path d="M249.565 108.806C253.737 108.806 257.119 105.424 257.119 101.253C257.119 97.081 253.737 93.6992 249.565 93.6992C245.394 93.6992 242.012 97.081 242.012 101.253C242.012 105.424 245.394 108.806 249.565 108.806Z" fill="#FF6584"/>
<path d="M87.9121 205.828L93.3594 205.828L95.9507 184.817L87.9112 184.818L87.9121 205.828Z" fill="#FFB8B8"/>
<path d="M103.865 211.774L86.745 211.775L86.7447 205.16L97.2501 205.16C99.0043 205.16 100.687 205.857 101.927 207.097C103.168 208.338 103.865 210.02 103.865 211.774Z" fill="#2F2E41"/>
<path d="M60.8088 205.828L66.2561 205.828L68.8474 184.817L60.8079 184.818L60.8088 205.828Z" fill="#FFB8B8"/>
<path d="M76.7615 211.774L59.6417 211.775L59.6413 205.16L70.1467 205.16C71.901 205.16 73.5834 205.857 74.824 207.097C76.0645 208.338 76.7614 210.02 76.7615 211.774Z" fill="#2F2E41"/>
<path d="M89.401 120.194L94.1893 158.133C94.8476 163.348 95.3082 168.583 95.571 173.837L96.8611 199.638C96.8731 199.879 96.8361 200.119 96.7523 200.345C96.6686 200.571 96.5398 200.777 96.3737 200.952C96.2077 201.127 96.008 201.265 95.7866 201.36C95.5653 201.455 95.3269 201.504 95.086 201.504H87.8186C87.3935 201.504 86.9824 201.352 86.66 201.075C86.3376 200.798 86.1253 200.414 86.0615 199.994L79.5255 156.933C79.494 156.726 79.39 156.536 79.232 156.398C79.0739 156.26 78.872 156.182 78.662 156.178C78.4521 156.175 78.2477 156.246 78.085 156.378C77.9223 156.511 77.812 156.697 77.7734 156.904L69.8994 199.077C69.8215 199.456 69.622 199.799 69.3312 200.055C69.0404 200.31 68.6742 200.463 68.2882 200.492L61.5995 200.916C61.3512 200.934 61.1018 200.9 60.8675 200.816C60.6332 200.731 60.4193 200.599 60.2396 200.426C60.0599 200.254 59.9184 200.046 59.8243 199.815C59.7302 199.585 59.6856 199.337 59.6934 199.088L61.8533 129.969L89.401 120.194Z" fill="#2F2E41"/>
<path d="M68.1857 66.1566C74.2127 66.1566 79.0986 61.2707 79.0986 55.2437C79.0986 49.2167 74.2127 44.3308 68.1857 44.3308C62.1587 44.3308 57.2728 49.2167 57.2728 55.2437C57.2728 61.2707 62.1587 66.1566 68.1857 66.1566Z" fill="#FFB8B8"/>
<path d="M59.6317 130.858C62.2976 137.078 73.8499 141.522 76.5158 132.635C78.5775 125.766 86.7439 122.878 90.3473 121.923C90.8004 121.802 91.1877 121.508 91.4255 121.104C91.6634 120.7 91.7326 120.218 91.6182 119.763L81.5454 80.1969C80.9587 77.8921 79.7902 75.7764 78.1519 74.0525C76.5135 72.3285 74.46 71.054 72.188 70.3508C64.1816 67.8716 55.7396 72.9767 54.3843 81.2455C54.0142 83.5641 53.7783 85.9021 53.6779 88.2479C52.8424 105.705 57.8766 126.761 59.6317 130.858Z" fill="#C47169"/>
<path d="M120.246 95.213C119.709 94.8418 119.096 94.5929 118.452 94.4838C117.808 94.3748 117.148 94.4083 116.518 94.582C115.889 94.7556 115.305 95.0653 114.808 95.489C114.311 95.9128 113.913 96.4404 113.641 97.0347L97.834 95.5443L101.71 102.828L116.127 103.127C117.155 103.516 118.291 103.515 119.318 103.122C120.346 102.73 121.194 101.975 121.701 101C122.209 100.024 122.341 98.8963 122.073 97.8298C121.805 96.7633 121.155 95.8322 120.246 95.213Z" fill="#FFB8B8"/>
<path d="M112.385 103.314C112.197 103.522 111.968 103.689 111.711 103.804C111.454 103.918 111.177 103.977 110.896 103.977L90.2617 103.505C85.2671 103.502 80.4439 101.684 76.6893 98.3899L64.3171 87.5392C63.5742 87.1328 62.9188 86.584 62.3882 85.924C61.8577 85.2641 61.4625 84.5061 61.2252 83.6932C60.9879 82.8804 60.9132 82.0288 61.0054 81.1871C61.0976 80.3453 61.3549 79.5301 61.7624 78.7879C62.17 78.0457 62.72 77.3911 63.3808 76.8617C64.0416 76.3322 64.8003 75.9383 65.6135 75.7023C66.4267 75.4664 67.2785 75.3931 68.12 75.4867C68.9616 75.5803 69.7765 75.8389 70.518 76.2477L91.0089 92.417L110.96 96.2618C111.359 96.3598 111.719 96.578 111.99 96.8868C112.261 97.1957 112.43 97.5803 112.476 97.9887L112.885 101.762C112.929 102.166 112.848 102.575 112.654 102.932C112.58 103.07 112.489 103.198 112.385 103.314Z" fill="#2F2E41"/>
<path d="M59.9026 64.1698C60.1376 64.3091 60.4015 64.3925 60.6739 64.4135C60.9464 64.4344 61.22 64.3924 61.4735 64.2907C61.7271 64.1889 61.9538 64.0302 62.1362 63.8268C62.3186 63.6233 62.4517 63.3806 62.5253 63.1175L62.5314 63.0927C62.7294 62.2644 62.565 61.3995 62.5081 60.5498C62.4513 59.7001 62.5344 58.7667 63.1132 58.1419C64.192 56.9773 66.1112 57.5946 67.6712 57.3002C68.5849 57.0962 69.393 56.5663 69.9442 55.8096C70.4954 55.0528 70.752 54.1212 70.6659 53.1889C70.6437 53.0123 70.6088 52.8355 70.5698 52.6588C70.4722 52.2111 70.4797 51.7469 70.5918 51.3025C70.7038 50.8582 70.9173 50.4459 71.2155 50.098C71.5138 49.7501 71.8885 49.476 72.3105 49.2973C72.7324 49.1187 73.1901 49.0402 73.6474 49.0682C75.2239 49.1583 76.9256 49.636 78.2299 48.4683C78.7081 48.0077 79.0401 47.4165 79.1844 46.7685C79.3287 46.1204 79.279 45.4443 79.0415 44.8243C78.2967 42.6746 76.1918 41.5491 74.1088 40.9304C71.5325 40.1861 68.8228 40.0252 66.1765 40.4594C63.5303 40.8936 61.0141 41.912 58.8108 43.4406C57.4951 44.368 56.2663 45.5333 55.7056 47.0422C55.1448 48.551 55.4153 50.4546 56.6798 51.4507C55.6997 52.4885 55.0094 53.7656 54.6783 55.1542C54.3472 56.5428 54.3868 57.994 54.7932 59.3624C55.4178 61.3749 58.3986 63.3044 59.9026 64.1698Z" fill="#2F2E41"/>
<path d="M295.085 205.744H289.638L287.046 184.733L295.086 184.734L295.085 205.744Z" fill="#A0616A"/>
<path d="M285.747 205.077H296.252V211.691H279.133C279.133 210.823 279.304 209.962 279.636 209.16C279.969 208.357 280.456 207.628 281.07 207.014C281.684 206.4 282.413 205.913 283.216 205.58C284.018 205.248 284.878 205.077 285.747 205.077Z" fill="#2F2E41"/>
<path d="M333.741 205.744H328.294L325.702 184.733L333.742 184.734L333.741 205.744Z" fill="#A0616A"/>
<path d="M324.403 205.077H334.908V211.691H317.788C317.788 210.823 317.959 209.962 318.292 209.16C318.624 208.357 319.111 207.628 319.725 207.014C320.34 206.4 321.069 205.913 321.871 205.58C322.674 205.248 323.534 205.077 324.403 205.077Z" fill="#2F2E41"/>
<path d="M295.177 192.731C295.118 192.731 295.059 192.729 294.999 192.724L287.289 192.107C286.984 192.083 286.686 191.995 286.416 191.85C286.145 191.705 285.908 191.505 285.719 191.264C285.529 191.023 285.392 190.745 285.315 190.448C285.239 190.151 285.224 189.841 285.273 189.538L296.962 117.239L297.745 107.041C297.78 106.565 297.968 106.112 298.282 105.751C298.596 105.391 299.018 105.142 299.485 105.041L311.243 102.47C311.675 102.373 312.126 102.409 312.538 102.572C312.949 102.735 313.303 103.019 313.551 103.385L316.418 107.575C317.544 109.204 318.767 110.764 320.081 112.245C322.115 114.561 325.574 119.705 325.884 128.122C325.967 130.888 326.254 133.643 326.743 136.366L336.209 187.356C336.256 187.655 336.243 187.961 336.168 188.254C336.094 188.548 335.96 188.823 335.775 189.063C335.591 189.303 335.359 189.502 335.094 189.649C334.829 189.796 334.537 189.888 334.236 189.918L326.928 190.471C326.405 190.523 325.881 190.387 325.449 190.087C325.018 189.788 324.707 189.344 324.572 188.836L311.608 140.628C311.583 140.533 311.527 140.45 311.449 140.39C311.372 140.331 311.276 140.298 311.179 140.299C311.081 140.299 310.986 140.331 310.908 140.391C310.831 140.451 310.775 140.534 310.75 140.629L297.323 191.081C297.197 191.554 296.918 191.972 296.53 192.271C296.142 192.569 295.666 192.731 295.177 192.731Z" fill="#2F2E41"/>
<path d="M315.679 69.7042C321.706 69.7042 326.592 64.8183 326.592 58.7913C326.592 52.7643 321.706 47.8784 315.679 47.8784C309.652 47.8784 304.766 52.7643 304.766 58.7913C304.766 64.8183 309.652 69.7042 315.679 69.7042Z" fill="#A0616A"/>
<path d="M297.183 108.682L296.957 93.0977C296.126 83.1305 300.54 77.8972 304.389 75.2647C305.382 74.5946 306.5 74.133 307.677 73.9078C308.853 73.6826 310.063 73.6986 311.233 73.9547L319.822 75.8114C321.017 76.072 322.148 76.5724 323.145 77.2824C324.142 77.9924 324.985 78.8972 325.622 79.9422C326.232 80.928 326.632 82.0288 326.798 83.1759C326.964 84.3231 326.892 85.4921 326.587 86.6104C325.991 88.7035 324.667 90.5154 322.855 91.7209C315.476 96.9303 314.956 105.681 314.951 105.769L314.942 105.95L297.183 108.682Z" fill="#C47169"/>
<path d="M273.346 99.5696C272.902 100.101 272.349 100.532 271.726 100.834C271.102 101.136 270.422 101.302 269.729 101.322C269.037 101.342 268.348 101.215 267.708 100.95C267.068 100.684 266.492 100.286 266.017 99.7816C261.713 95.2679 268.748 88.4903 273.069 93.0138C273.221 93.1697 273.362 93.336 273.492 93.5114L295.276 92.9699L297.876 88.2144L305.867 91.3172C304.333 93.6963 302.571 103.034 298.559 102.579C298.033 102.593 273.884 99.608 273.346 99.5696Z" fill="#A0616A"/>
<path d="M302.488 95.9716L296.398 91.5026C295.971 91.1885 295.686 90.7178 295.606 90.1938C295.526 89.6699 295.656 89.1354 295.969 88.7077L303.724 78.1406C304.173 77.5289 304.738 77.0115 305.387 76.6181C306.035 76.2247 306.755 75.9629 307.505 75.8477C308.255 75.7325 309.02 75.7662 309.757 75.9468C310.494 76.1274 311.188 76.4513 311.799 76.9002C312.411 77.3491 312.928 77.914 313.322 78.5628C313.715 79.2116 313.976 79.9315 314.091 80.6813C314.206 81.4312 314.173 82.1964 313.992 82.9332C313.811 83.67 313.487 84.364 313.038 84.9755L305.283 95.5426C304.969 95.9696 304.498 96.2546 303.974 96.335C303.45 96.4154 302.916 96.2847 302.488 95.9716Z" fill="#C47169"/>
<path d="M313.026 56.064C311.484 56.5523 309.882 56.8281 308.265 56.884C306.649 56.8656 304.97 56.3522 303.879 55.1604C302.329 53.4676 302.349 50.7098 303.549 48.753C304.748 46.7963 306.901 45.5773 309.128 45.0192C311.354 44.461 313.679 44.4873 315.974 44.5183C318.7 42.5313 322.673 42.8336 325.47 44.719C328.266 46.6043 329.975 49.8002 330.7 53.0939C331.426 56.3876 331.268 59.8072 330.993 63.1687C330.842 65.0107 330.996 67.4022 332.756 67.9669C333.866 68.3233 335.067 67.6695 335.863 66.8169C336.658 65.9644 337.214 64.9051 338.046 64.0876C339.819 62.3454 342.664 61.9922 345.006 62.8245C347.348 63.6568 349.216 65.5104 350.533 67.6182C352.33 70.4938 353.208 73.8488 353.049 77.236C352.891 80.6231 351.704 83.8816 349.647 86.577C347.589 89.2723 344.759 91.2765 341.534 92.3225C338.308 93.3684 334.84 93.4063 331.593 92.4312C325.584 90.6269 321.047 85.5555 318.128 80.0021C314.385 72.8451 312.836 64.7428 313.676 56.7099L313.026 56.064Z" fill="#2F2E41"/>
<path d="M386.556 211.887H0.444317C0.326477 211.887 0.213463 211.841 0.130137 211.757C0.0468115 211.674 0 211.561 0 211.443C0 211.325 0.0468115 211.212 0.130137 211.129C0.213463 211.046 0.326477 210.999 0.444317 210.999H386.556C386.674 210.999 386.787 211.046 386.87 211.129C386.953 211.212 387 211.325 387 211.443C387 211.561 386.953 211.674 386.87 211.757C386.787 211.841 386.674 211.887 386.556 211.887Z" fill="#3F3D56"/>
</svg>
