<svg width="475" height="237" viewBox="0 0 475 237" fill="none" xmlns="http://www.w3.org/2000/svg">
<path d="M416.241 208.653C431.516 193.377 431.516 168.611 416.241 153.336C400.965 138.061 376.199 138.061 360.924 153.336C345.649 168.611 345.649 193.377 360.924 208.653C376.199 223.928 400.965 223.928 416.241 208.653Z" fill="#2F2E41"/>
<path d="M388.365 184.592C395.573 182.997 400.123 175.859 398.528 168.651C396.932 161.442 389.795 156.892 382.586 158.487C375.378 160.083 370.827 167.22 372.423 174.429C374.019 181.638 381.156 186.188 388.365 184.592Z" fill="white"/>
<path d="M381.023 172.438C383.426 171.906 384.943 169.527 384.411 167.124C383.879 164.721 381.5 163.205 379.097 163.737C376.694 164.268 375.178 166.648 375.709 169.05C376.241 171.453 378.62 172.97 381.023 172.438Z" fill="#3F3D56"/>
<path d="M387.037 154.551C371.04 154.521 359.811 151.664 359.837 137.171C359.864 122.678 372.854 110.954 388.851 110.983C404.847 111.013 417.794 122.785 417.767 137.278C417.74 151.771 403.034 154.58 387.037 154.551Z" fill="#95E3CA"/>
<path d="M449.889 187.532C445.301 203.45 431.903 214.593 417.928 224.058C415.976 225.38 414.024 226.672 412.072 227.933C412.058 227.939 412.045 227.951 412.031 227.957C411.937 228.017 411.843 228.078 411.756 228.138C411.353 228.398 410.95 228.658 410.55 228.915L410.769 229.014C410.769 229.014 410.985 229.128 410.749 229.032C410.679 229.003 410.605 228.976 410.535 228.947C402.417 225.672 394.154 222.156 387.932 216.022C381.477 209.652 377.705 199.662 381.2 191.293C381.66 190.197 382.24 189.156 382.93 188.188C383.214 187.783 383.519 187.394 383.837 187.013C385.765 184.66 388.285 182.863 391.137 181.807C393.99 180.751 397.072 180.473 400.067 181.003C403.063 181.533 405.863 182.852 408.18 184.822C410.497 186.793 412.247 189.346 413.25 192.217C414.277 182.657 406.394 174.65 398.808 168.741C391.219 162.836 382.596 156.404 381.128 146.898C380.309 141.608 382.148 136.483 385.499 132.368C385.603 132.243 385.706 132.118 385.813 131.996C389.892 127.203 395.628 124.126 401.877 123.378C413.514 122.169 424.818 128.329 433.272 136.42C446.879 149.438 455.105 169.434 449.889 187.532Z" fill="#E6E6E6"/>
<path d="M428.015 166.712C430.249 170.187 431.963 173.969 433.105 177.938C434.071 181.486 434.501 185.159 434.38 188.834C434.069 196.397 431.946 203.774 428.19 210.345C425.36 215.33 421.912 219.938 417.928 224.058C415.976 225.38 414.024 226.672 412.072 227.933C412.058 227.939 412.045 227.951 412.031 227.957C411.937 228.017 411.843 228.078 411.756 228.139C411.353 228.398 410.95 228.658 410.55 228.915C410.55 228.915 410.985 229.128 410.749 229.032C410.679 229.003 410.605 228.976 410.535 228.947C411.263 222.981 410.55 216.928 408.457 211.294C406.363 205.66 402.95 200.611 398.502 196.568C394.045 192.587 388.709 189.716 382.93 188.188C383.214 187.783 383.519 187.394 383.837 187.013C386.069 187.639 388.241 188.461 390.328 189.469C397.788 193.052 403.897 198.941 407.749 206.266C411.206 212.916 412.694 220.416 412.038 227.882C412.372 227.58 412.706 227.271 413.03 226.965C419.199 221.214 424.679 214.611 428.387 206.992C431.605 200.539 433.186 193.394 432.992 186.187C432.689 178.328 429.558 171.048 425.024 164.711C420.055 157.95 414.185 151.9 407.577 146.73C400.917 141.396 393.63 136.897 385.877 133.333C385.703 133.251 385.566 133.105 385.495 132.926C385.425 132.746 385.426 132.546 385.499 132.368C385.551 132.207 385.664 132.074 385.813 131.996C385.89 131.963 385.974 131.948 386.057 131.951C386.141 131.955 386.223 131.977 386.297 132.017C387.254 132.457 388.204 132.904 389.147 133.37C397.001 137.252 404.342 142.094 411.001 147.786C417.434 153.27 423.49 159.536 428.015 166.712Z" fill="white"/>
<path d="M66.9487 231.649C72.4177 231.649 76.8511 229.986 76.8511 227.935C76.8511 225.884 72.4177 224.222 66.9487 224.222C61.4797 224.222 57.0462 225.884 57.0462 227.935C57.0462 229.986 61.4797 231.649 66.9487 231.649Z" fill="#2F2E41"/>
<path d="M90.7146 231.154C96.1835 231.154 100.617 229.491 100.617 227.44C100.617 225.389 96.1835 223.727 90.7146 223.727C85.2456 223.727 80.8121 225.389 80.8121 227.44C80.8121 229.491 85.2456 231.154 90.7146 231.154Z" fill="#2F2E41"/>
<path d="M122.265 168.738C131.622 163.344 137.835 156.589 136.142 153.651C134.448 150.714 125.49 152.705 116.132 158.1C106.774 163.495 100.561 170.249 102.255 173.187C103.948 176.124 112.907 174.133 122.265 168.738Z" fill="#2F2E41"/>
<path d="M113.48 181.966C116.941 160.642 102.46 140.551 81.1361 137.09C59.8126 133.63 39.7213 148.111 36.2609 169.435C32.8006 190.758 47.2816 210.849 68.6051 214.31C89.9286 217.77 110.02 203.289 113.48 181.966Z" fill="#2F2E41"/>
<path d="M68.9291 206.398H57.0462V227.688H68.9291V206.398Z" fill="#2F2E41"/>
<path d="M92.695 206.398H80.8121V227.688H92.695V206.398Z" fill="#2F2E41"/>
<path d="M75.8609 179.166C83.244 179.166 89.2292 173.181 89.2292 165.797C89.2292 158.414 83.244 152.429 75.8609 152.429C68.4778 152.429 62.4926 158.414 62.4926 165.797C62.4926 173.181 68.4778 179.166 75.8609 179.166Z" fill="white"/>
<path d="M75.8608 170.254C78.3219 170.254 80.3169 168.258 80.3169 165.797C80.3169 163.336 78.3219 161.341 75.8608 161.341C73.3998 161.341 71.4047 163.336 71.4047 165.797C71.4047 168.258 73.3998 170.254 75.8608 170.254Z" fill="#3F3D56"/>
<path d="M36.9281 139.324C33.7697 125.18 43.8657 110.888 59.4779 107.401C75.0902 103.915 90.3068 112.556 93.4651 126.7C96.6235 140.845 86.2766 146.061 70.6643 149.547C55.052 153.033 40.0864 153.469 36.9281 139.324Z" fill="#E6E6E6"/>
<path d="M48.485 165.931C49.9381 162.868 43.2046 156.632 33.4454 152.003C23.6862 147.375 14.5969 146.106 13.1438 149.17C11.6908 152.233 18.4242 158.469 28.1834 163.098C37.9426 167.727 47.032 168.995 48.485 165.931Z" fill="#2F2E41"/>
<path d="M55.6576 189.811C55.6576 193.639 65.5147 201.199 76.4527 201.199C87.3907 201.199 97.6462 190.421 97.6462 186.593C97.6462 182.764 87.3906 187.335 76.4527 187.335C65.5148 187.335 55.6576 185.983 55.6576 189.811Z" fill="white"/>
<path d="M211.26 231.649C216.729 231.649 221.163 229.986 221.163 227.935C221.163 225.884 216.729 224.222 211.26 224.222C205.791 224.222 201.358 225.884 201.358 227.935C201.358 229.986 205.791 231.649 211.26 231.649Z" fill="#2F2E41"/>
<path d="M187.494 231.154C192.963 231.154 197.397 229.491 197.397 227.44C197.397 225.389 192.963 223.727 187.494 223.727C182.026 223.727 177.592 225.389 177.592 227.44C177.592 229.491 182.026 231.154 187.494 231.154Z" fill="#2F2E41"/>
<path d="M175.954 173.186C177.648 170.249 171.435 163.494 162.077 158.1C152.719 152.705 143.761 150.714 142.067 153.651C140.374 156.589 146.587 163.343 155.944 168.738C165.302 174.132 174.261 176.124 175.954 173.186Z" fill="#2F2E41"/>
<path d="M203.338 214.815C224.941 214.815 242.453 197.302 242.453 175.7C242.453 154.097 224.941 136.585 203.338 136.585C181.736 136.585 164.224 154.097 164.224 175.7C164.224 197.302 181.736 214.815 203.338 214.815Z" fill="#2F2E41"/>
<path d="M221.163 206.398H209.28V227.688H221.163V206.398Z" fill="#2F2E41"/>
<path d="M197.397 206.398H185.514V227.688H197.397V206.398Z" fill="#2F2E41"/>
<path d="M194.174 179.166C201.557 179.166 207.542 173.181 207.542 165.797C207.542 158.414 201.557 152.429 194.174 152.429C186.791 152.429 180.806 158.414 180.806 165.797C180.806 173.181 186.791 179.166 194.174 179.166Z" fill="white"/>
<path d="M190.953 167.12C192.699 165.376 192.71 162.556 190.978 160.822C189.246 159.089 186.426 159.097 184.68 160.842C182.934 162.586 182.923 165.406 184.655 167.14C186.387 168.873 189.207 168.865 190.953 167.12Z" fill="#3F3D56"/>
<path d="M207.545 149.547C191.932 146.061 181.586 140.845 184.744 126.7C187.902 112.556 203.119 103.915 218.731 107.401C234.343 110.888 244.439 125.18 241.281 139.324C238.123 153.469 223.157 153.033 207.545 149.547Z" fill="#95E3CA"/>
<path d="M244.241 205.516C247.518 204.645 247.927 195.477 245.154 185.038C242.382 174.598 237.477 166.841 234.2 167.712C230.923 168.582 230.514 177.751 233.287 188.19C236.059 198.629 240.964 206.386 244.241 205.516Z" fill="#2F2E41"/>
<path d="M194.477 187.336C187.296 187.336 180.563 182.765 180.563 186.593C180.563 190.421 187.296 201.199 194.477 201.199C201.658 201.199 208.129 193.64 208.129 189.812C208.129 185.983 201.658 187.336 194.477 187.336Z" fill="white"/>
<path d="M143.927 110.846H140.454C137.342 110.843 134.359 109.605 132.158 107.405C129.958 105.205 128.72 102.221 128.717 99.1096V96.1933C128.717 88.9701 130.085 82.9221 132.785 78.2174C136.056 72.7447 139.873 67.617 144.176 62.9124C147.033 60.0395 149.625 56.9151 151.921 53.577C153.568 50.9836 154.419 47.964 154.367 44.8921C154.367 37.6463 149.646 34.1238 139.935 34.1238C134.548 34.1847 129.195 34.9882 124.027 36.5114C122.034 37.0803 119.937 37.1789 117.899 36.7994C115.862 36.4199 113.94 35.5727 112.286 34.3245C110.631 33.0763 109.289 31.4611 108.365 29.6062C107.441 27.7512 106.96 25.707 106.96 23.6345V17.731C106.948 15.1897 107.674 12.6996 109.05 10.5626C110.425 8.4256 112.391 6.73348 114.709 5.69133C123.835 1.79648 133.677 -0.139739 143.599 0.00784497C153.993 0.00784497 163.376 1.75378 171.488 5.19642C179.615 8.64704 186.035 13.5128 190.571 19.6588C195.093 25.7613 197.497 33.1746 197.415 40.7696C197.415 48.9254 195.189 56.0289 190.797 61.8827C186.454 67.677 180.228 74.0204 172.292 80.7376C168.11 84.2151 164.148 87.9479 160.427 91.9147C158.024 94.5032 156.325 97.6652 155.494 101.098C155.031 103.829 153.615 106.307 151.497 108.092C149.379 109.877 146.697 110.853 143.927 110.846Z" fill="#95E3CA"/>
<path d="M141.996 166.04H141.538C135.771 166.037 130.242 163.743 126.165 159.664C122.089 155.585 119.799 150.054 119.799 144.287C119.799 138.52 122.089 132.99 126.165 128.911C130.242 124.832 135.771 122.538 141.538 122.534H141.996C144.854 122.532 147.684 123.094 150.325 124.186C152.966 125.279 155.365 126.881 157.387 128.901C159.408 130.921 161.012 133.319 162.106 135.96C163.2 138.6 163.763 141.429 163.763 144.287C163.763 147.145 163.2 149.975 162.106 152.615C161.012 155.255 159.408 157.654 157.387 159.674C155.365 161.694 152.966 163.296 150.325 164.388C147.684 165.481 144.854 166.042 141.996 166.04Z" fill="#95E3CA"/>
<path d="M283.365 232.058H0.908191C0.667316 232.058 0.436319 231.963 0.265995 231.792C0.09567 231.622 -3.05176e-05 231.391 -3.05176e-05 231.15C-3.05176e-05 230.909 0.09567 230.678 0.265995 230.508C0.436319 230.338 0.667316 230.242 0.908191 230.242H283.365C283.606 230.242 283.837 230.338 284.007 230.508C284.178 230.678 284.273 230.909 284.273 231.15C284.273 231.391 284.178 231.622 284.007 231.792C283.837 231.963 283.606 232.058 283.365 232.058Z" fill="#CCCCCC"/>
<path d="M474.092 232.058H323.327C323.086 232.058 322.855 231.963 322.685 231.792C322.514 231.622 322.419 231.391 322.419 231.15C322.419 230.909 322.514 230.678 322.685 230.508C322.855 230.338 323.086 230.242 323.327 230.242H474.092C474.333 230.242 474.564 230.338 474.734 230.508C474.904 230.678 475 230.909 475 231.15C475 231.391 474.904 231.622 474.734 231.792C474.564 231.963 474.333 232.058 474.092 232.058Z" fill="#CCCCCC"/>
<path d="M380.518 205.53C391.318 205.318 400.018 202.399 399.952 199.009C399.886 195.619 391.077 193.041 380.278 193.253C369.479 193.464 360.778 196.383 360.845 199.774C360.911 203.164 369.719 205.741 380.518 205.53Z" fill="#2F2E41"/>
<path d="M370.701 62.2209H347.087C345.883 62.2196 344.729 61.7407 343.878 60.8894C343.026 60.038 342.548 58.8838 342.546 57.6798V34.0661C342.548 32.8621 343.026 31.7079 343.878 30.8566C344.729 30.0052 345.883 29.5263 347.087 29.525H370.701C371.905 29.5263 373.059 30.0052 373.911 30.8566C374.762 31.7079 375.241 32.8621 375.242 34.0661V57.6798C375.241 58.8838 374.762 60.038 373.911 60.8894C373.059 61.7407 371.905 62.2196 370.701 62.2209ZM347.087 31.3414C346.365 31.3422 345.672 31.6295 345.161 32.1403C344.651 32.6511 344.363 33.3437 344.363 34.0661V57.6798C344.363 58.4022 344.651 59.0948 345.161 59.6056C345.672 60.1164 346.365 60.4037 347.087 60.4045H370.701C371.423 60.4037 372.116 60.1164 372.627 59.6056C373.138 59.0948 373.425 58.4022 373.426 57.6798V34.0661C373.425 33.3437 373.138 32.6511 372.627 32.1403C372.116 31.6295 371.423 31.3422 370.701 31.3414H347.087Z" fill="#F2F2F2"/>
<path d="M381.6 46.7812H357.986C356.782 46.7798 355.628 46.3009 354.776 45.4496C353.925 44.5983 353.446 43.444 353.445 42.2401V18.6263C353.446 17.4224 353.925 16.2681 354.776 15.4168C355.628 14.5655 356.782 14.0866 357.986 14.0852H381.6C382.804 14.0866 383.958 14.5655 384.809 15.4168C385.661 16.2681 386.139 17.4224 386.141 18.6263V42.2401C386.139 43.444 385.661 44.5983 384.809 45.4496C383.958 46.3009 382.804 46.7798 381.6 46.7812ZM357.986 15.9016C357.264 15.9024 356.571 16.1898 356.06 16.7006C355.549 17.2114 355.262 17.9039 355.261 18.6263V42.2401C355.262 42.9625 355.549 43.655 356.06 44.1658C356.571 44.6766 357.264 44.964 357.986 44.9647H381.6C382.322 44.964 383.015 44.6766 383.525 44.1658C384.036 43.655 384.324 42.9625 384.324 42.2401V18.6263C384.324 17.9039 384.036 17.2114 383.525 16.7006C383.015 16.1898 382.322 15.9024 381.6 15.9016H357.986Z" fill="#F2F2F2"/>
<path d="M291.739 99.1283C294.983 99.1283 297.613 96.4987 297.613 93.2549C297.613 90.0111 294.983 87.3815 291.739 87.3815C288.496 87.3815 285.866 90.0111 285.866 93.2549C285.866 96.4987 288.496 99.1283 291.739 99.1283Z" fill="#F2F2F2"/>
<path d="M55.6017 78.2392C58.8455 78.2392 61.4751 75.6096 61.4751 72.3658C61.4751 69.122 58.8455 66.4924 55.6017 66.4924C52.3579 66.4924 49.7283 69.122 49.7283 72.3658C49.7283 75.6096 52.3579 78.2392 55.6017 78.2392Z" fill="#F2F2F2"/>
<path d="M451.586 129.1C454.83 129.1 457.46 126.47 457.46 123.226C457.46 119.982 454.83 117.353 451.586 117.353C448.343 117.353 445.713 119.982 445.713 123.226C445.713 126.47 448.343 129.1 451.586 129.1Z" fill="#F2F2F2"/>
</svg>
