<svg width="295" height="204" viewBox="0 0 295 204" fill="none" xmlns="http://www.w3.org/2000/svg">
<path d="M190.838 65.9315V57.2909H191.932V65.7606C191.932 66.2255 192.123 66.4169 192.588 66.4169H196.395V67.4423H192.369C191.275 67.4423 190.838 67.0253 190.838 65.9315ZM202.63 64.6259V61.9257C202.63 61.2694 202.52 60.8456 202.22 60.4969C201.919 60.1483 201.379 59.9911 200.565 59.9911C199.745 59.9911 199.205 60.1483 198.904 60.4969C198.604 60.8456 198.494 61.2694 198.494 61.9257V64.6259C198.494 65.2821 198.604 65.7128 198.904 66.0614C199.205 66.41 199.745 66.5741 200.565 66.5741C201.379 66.5741 201.919 66.41 202.22 66.0614C202.52 65.7128 202.63 65.2821 202.63 64.6259ZM200.565 67.5653C199.458 67.5653 198.665 67.3192 198.18 66.8202C197.694 66.3212 197.448 65.5897 197.448 64.6259V61.9257C197.448 60.0389 198.385 58.9999 200.565 58.9999C201.673 58.9999 202.466 59.246 202.951 59.7382C203.437 60.2372 203.676 60.9618 203.676 61.9257V64.6259C203.676 66.5194 202.732 67.5653 200.565 67.5653ZM209.705 58.9999V60.121C209.438 60.1005 209.199 60.1141 208.974 60.162C208.7 60.2098 208.481 60.2987 208.235 60.5448C208.112 60.6747 208.003 60.7977 207.907 60.9208C207.812 61.0438 207.688 61.2284 207.545 61.4813C207.401 61.7343 207.271 61.9598 207.162 62.1581C207.053 62.3632 206.895 62.6571 206.697 63.0468V67.4423H205.631V59.1093H206.54L206.622 61.536C206.772 61.2557 206.895 61.037 206.991 60.8661C207.087 60.6952 207.203 60.5106 207.333 60.3124C207.463 60.1141 207.586 59.9569 207.702 59.8407C208.044 59.4716 208.516 59.1503 209.09 59.0682C209.309 59.0204 209.514 58.9999 209.705 58.9999ZM216.855 61.8573C216.855 62.6776 216.821 63.286 216.753 63.6757H211.838V64.7284C211.838 65.4188 212.016 65.8973 212.371 66.1639C212.727 66.4374 213.314 66.5741 214.135 66.5741C214.565 66.5741 215.017 66.5331 215.481 66.451C215.946 66.3759 216.322 66.2733 216.616 66.1571V67.1483C215.905 67.4286 215.085 67.5653 214.148 67.5653C212.986 67.5653 212.139 67.3397 211.599 66.8885C211.059 66.4442 210.792 65.6923 210.792 64.6395V61.9393C210.792 60.2167 211.551 58.9999 213.868 58.9999C215.803 58.9999 216.855 59.9637 216.855 61.8573ZM211.838 61.6591V62.7665H215.844V61.6591C215.844 60.5175 215.174 59.9501 213.841 59.9501C212.508 59.9501 211.838 60.4628 211.838 61.6591ZM224.368 61.2147V61.5907C224.484 61.3514 224.58 61.1669 224.642 61.037C224.703 60.9071 224.785 60.743 224.888 60.5585C224.99 60.3739 225.072 60.2372 225.134 60.1346C225.264 59.9432 225.469 59.6288 225.626 59.4989C225.783 59.369 226.002 59.1844 226.214 59.1161C226.426 59.0477 226.679 58.9999 226.973 58.9999C228.388 58.9999 229.003 59.9159 229.003 61.7411V67.4423H227.937V62.2059C227.937 61.5975 227.909 61.2147 227.82 60.8251C227.772 60.6268 227.711 60.4764 227.629 60.3602C227.465 60.1346 227.191 59.9911 226.802 59.9911C226.521 59.9911 226.289 60.0731 226.098 60.1825C225.899 60.2919 225.674 60.6063 225.496 60.8593C225.407 60.9891 225.298 61.1737 225.175 61.4266C225.045 61.6796 224.929 61.912 224.826 62.1307C224.724 62.3495 224.58 62.6503 224.409 63.0331V67.4423H223.391V62.2059C223.391 61.4335 223.315 60.8661 223.165 60.5175C223.015 60.1688 222.714 59.9911 222.256 59.9911C222.01 59.9911 221.812 60.0184 221.613 60.1483C221.415 60.2782 221.278 60.3739 221.08 60.661C220.978 60.8046 220.895 60.9413 220.82 61.0643C220.745 61.1874 220.656 61.3651 220.54 61.6044C220.424 61.8436 220.321 62.0555 220.232 62.2469C220.144 62.4452 220.02 62.7118 219.863 63.0468V67.4423H218.797V59.1093H219.706L219.788 61.536C219.932 61.2421 220.041 61.0233 220.116 60.8661C220.191 60.7157 220.294 60.5311 220.417 60.3124C220.533 60.1005 220.636 59.9364 220.725 59.8339C220.813 59.7313 220.916 59.6151 221.046 59.4852C221.415 59.1298 221.798 59.0341 222.406 58.9999C223.657 58.9999 224.259 59.7723 224.368 61.2147ZM173.864 91.4423H172.818V83.1093H173.864V91.4423ZM172.661 81.5028C172.661 81.12 172.962 80.8192 173.345 80.8192C173.721 80.8192 174.021 81.1268 174.021 81.5028C174.021 81.8788 173.721 82.1864 173.345 82.1864C172.955 82.1864 172.661 81.8925 172.661 81.5028ZM177.125 94.1698H176.072V85.912C176.072 84.0184 177.104 82.9999 179.183 82.9999C181.363 82.9999 182.3 83.9501 182.3 85.912V88.8241C182.3 90.6561 181.644 91.5653 180.051 91.5653C179.668 91.5653 179.36 91.5311 179.073 91.3944C178.786 91.2645 178.588 91.1825 178.349 90.9159C178.226 90.786 178.123 90.6698 178.041 90.5673C177.959 90.4647 177.856 90.3212 177.74 90.1229C177.624 89.9247 177.528 89.7606 177.453 89.6239C177.378 89.494 177.269 89.2958 177.125 89.036V94.1698ZM181.24 88.8378V85.9257C181.24 85.2694 181.145 84.8456 180.851 84.4969C180.55 84.1483 180.017 83.9911 179.196 83.9911C178.369 83.9911 177.829 84.1483 177.528 84.4969C177.228 84.8524 177.125 85.2694 177.125 85.9257V87.5253C177.316 87.9012 177.474 88.1952 177.597 88.4208C177.713 88.6464 177.843 88.8788 177.986 89.118C178.267 89.6102 178.444 89.8221 178.69 90.0887C179.06 90.4647 179.381 90.5468 179.88 90.5741C180.892 90.5741 181.24 90.0204 181.24 88.8378ZM183.879 91.1757V90.1844C184.747 90.451 185.629 90.5878 186.538 90.5878C187.762 90.5878 188.274 90.3417 188.274 89.6512C188.274 89.3983 188.206 89.1932 188.069 89.0292C187.933 88.8651 187.7 88.6669 187.365 88.4344L185.335 87.0194C184.925 86.7255 184.686 86.5341 184.412 86.1854C184.132 85.8368 183.988 85.413 183.988 84.8934C183.988 83.6083 184.809 82.9999 186.675 82.9999C187.522 82.9999 188.295 83.1366 188.985 83.4169V84.4012C188.24 84.121 187.454 83.9774 186.634 83.9774C185.465 83.9774 185.027 84.2303 185.027 84.8934C185.027 85.4061 185.28 85.7001 185.848 86.1102L187.864 87.5253C188.056 87.662 188.206 87.7714 188.315 87.8534C188.425 87.9423 188.555 88.0516 188.698 88.1884C188.842 88.3319 188.944 88.4618 189.02 88.5917C189.163 88.8446 189.293 89.2274 189.293 89.6376C189.293 90.9569 188.411 91.5653 186.436 91.5653C185.608 91.5653 184.754 91.4354 183.879 91.1757ZM190.954 88.8241V83.1093H192V88.8378C192 90.0135 192.355 90.5741 193.36 90.5741C193.736 90.5741 194.01 90.5194 194.311 90.2802C194.461 90.1639 194.591 90.0409 194.7 89.9178C194.81 89.7948 194.946 89.5966 195.117 89.3163C195.288 89.0428 195.432 88.7899 195.562 88.5507C195.685 88.3182 195.862 87.9764 196.102 87.5253V83.1093H197.154V91.4423H196.259L196.17 89.036C196.061 89.2411 195.972 89.3983 195.91 89.5145C195.842 89.6307 195.76 89.7675 195.664 89.9315C195.562 90.0956 195.479 90.2255 195.418 90.3143C195.288 90.4989 195.083 90.7928 194.926 90.9227C194.673 91.162 194.365 91.3739 194.017 91.4559C193.77 91.538 193.497 91.5653 193.189 91.5653C191.597 91.5653 190.954 90.663 190.954 88.8241ZM205.029 85.2147V85.5907C205.145 85.3514 205.241 85.1669 205.303 85.037C205.364 84.9071 205.446 84.743 205.549 84.5585C205.651 84.3739 205.733 84.2372 205.795 84.1346C205.925 83.9432 206.13 83.6288 206.287 83.4989C206.444 83.369 206.663 83.1844 206.875 83.1161C207.087 83.0477 207.34 82.9999 207.634 82.9999C209.049 82.9999 209.664 83.9159 209.664 85.7411V91.4423H208.598V86.2059C208.598 85.5975 208.57 85.2147 208.481 84.8251C208.434 84.6268 208.372 84.4764 208.29 84.3602C208.126 84.1346 207.853 83.9911 207.463 83.9911C207.183 83.9911 206.95 84.0731 206.759 84.1825C206.561 84.2919 206.335 84.6063 206.157 84.8593C206.068 84.9891 205.959 85.1737 205.836 85.4266C205.706 85.6796 205.59 85.912 205.487 86.1307C205.385 86.3495 205.241 86.6503 205.07 87.0331V91.4423H204.052V86.2059C204.052 85.4335 203.977 84.8661 203.826 84.5175C203.676 84.1688 203.375 83.9911 202.917 83.9911C202.671 83.9911 202.473 84.0184 202.274 84.1483C202.076 84.2782 201.939 84.3739 201.741 84.661C201.639 84.8046 201.557 84.9413 201.481 85.0643C201.406 85.1874 201.317 85.3651 201.201 85.6044C201.085 85.8436 200.982 86.0555 200.894 86.2469C200.805 86.4452 200.682 86.7118 200.524 87.0468V91.4423H199.458V83.1093H200.367L200.449 85.536C200.593 85.2421 200.702 85.0233 200.777 84.8661C200.853 84.7157 200.955 84.5311 201.078 84.3124C201.194 84.1005 201.297 83.9364 201.386 83.8339C201.475 83.7313 201.577 83.6151 201.707 83.4852C202.076 83.1298 202.459 83.0341 203.067 82.9999C204.318 82.9999 204.92 83.7723 205.029 85.2147ZM220.889 80.8739H221.935V88.6395C221.935 90.5468 220.889 91.5653 218.811 91.5653C216.65 91.5653 215.707 90.6014 215.707 88.6395V85.7411C215.707 83.9022 216.356 82.9999 217.963 82.9999C218.482 83.0204 218.865 83.0751 219.207 83.2938C219.446 83.451 219.597 83.5399 219.809 83.7997C219.911 83.9296 220 84.0458 220.075 84.1346C220.144 84.2303 220.232 84.3671 220.342 84.5516C220.444 84.7362 220.533 84.8866 220.602 85.0028C220.67 85.1259 220.766 85.3036 220.889 85.536V80.8739ZM216.753 85.7137V88.6259C216.753 89.2889 216.849 89.7059 217.149 90.0614C217.45 90.4169 217.983 90.5741 218.811 90.5741C219.631 90.5741 220.178 90.41 220.479 90.0546C220.779 89.7059 220.889 89.2753 220.889 88.6259V87.0468C220.663 86.6024 220.479 86.2606 220.349 86.0145C220.212 85.7684 220.062 85.5087 219.897 85.2421C219.733 84.9755 219.597 84.7772 219.48 84.6473C219.248 84.3944 218.927 84.1278 218.626 84.0458C218.476 84.0116 218.305 83.9911 218.113 83.9911C217.108 83.9911 216.753 84.538 216.753 85.7137ZM228.955 88.6259V85.9257C228.955 85.2694 228.846 84.8456 228.545 84.4969C228.244 84.1483 227.704 83.9911 226.891 83.9911C226.07 83.9911 225.53 84.1483 225.229 84.4969C224.929 84.8456 224.819 85.2694 224.819 85.9257V88.6259C224.819 89.2821 224.929 89.7128 225.229 90.0614C225.53 90.41 226.07 90.5741 226.891 90.5741C227.704 90.5741 228.244 90.41 228.545 90.0614C228.846 89.7128 228.955 89.2821 228.955 88.6259ZM226.891 91.5653C225.783 91.5653 224.99 91.3192 224.505 90.8202C224.02 90.3212 223.773 89.5897 223.773 88.6259V85.9257C223.773 84.0389 224.71 82.9999 226.891 82.9999C227.998 82.9999 228.791 83.246 229.276 83.7382C229.762 84.2372 230.001 84.9618 230.001 85.9257V88.6259C230.001 90.5194 229.058 91.5653 226.891 91.5653ZM232.011 89.5829V80.8739H233.063V89.4803C233.063 90.2802 233.316 90.5331 233.815 90.5331C234.02 90.5331 234.198 90.5126 234.349 90.4784V91.4423C234.164 91.4969 233.945 91.5243 233.679 91.5243C232.564 91.5243 232.011 90.8749 232.011 89.5829ZM240.686 88.6259V85.9257C240.686 85.2694 240.576 84.8456 240.275 84.4969C239.975 84.1483 239.435 83.9911 238.621 83.9911C237.801 83.9911 237.261 84.1483 236.96 84.4969C236.659 84.8456 236.55 85.2694 236.55 85.9257V88.6259C236.55 89.2821 236.659 89.7128 236.96 90.0614C237.261 90.41 237.801 90.5741 238.621 90.5741C239.435 90.5741 239.975 90.41 240.275 90.0614C240.576 89.7128 240.686 89.2821 240.686 88.6259ZM238.621 91.5653C237.514 91.5653 236.721 91.3192 236.235 90.8202C235.75 90.3212 235.504 89.5897 235.504 88.6259V85.9257C235.504 84.0389 236.44 82.9999 238.621 82.9999C239.729 82.9999 240.521 83.246 241.007 83.7382C241.492 84.2372 241.731 84.9618 241.731 85.9257V88.6259C241.731 90.5194 240.788 91.5653 238.621 91.5653ZM247.761 82.9999V84.121C247.494 84.1005 247.255 84.1141 247.029 84.162C246.756 84.2098 246.537 84.2987 246.291 84.5448C246.168 84.6747 246.059 84.7977 245.963 84.9208C245.867 85.0438 245.744 85.2284 245.601 85.4813C245.457 85.7343 245.327 85.9598 245.218 86.1581C245.108 86.3632 244.951 86.6571 244.753 87.0468V91.4423H243.687V83.1093H244.596L244.678 85.536C244.828 85.2557 244.951 85.037 245.047 84.8661C245.143 84.6952 245.259 84.5106 245.389 84.3124C245.519 84.1141 245.642 83.9569 245.758 83.8407C246.1 83.4716 246.571 83.1503 247.145 83.0682C247.364 83.0204 247.569 82.9999 247.761 82.9999ZM181.288 115.176V114.184C182.156 114.451 183.038 114.588 183.947 114.588C185.171 114.588 185.684 114.342 185.684 113.651C185.684 113.398 185.615 113.193 185.479 113.029C185.342 112.865 185.109 112.667 184.774 112.434L182.744 111.019C182.334 110.725 182.095 110.534 181.821 110.185C181.541 109.837 181.397 109.413 181.397 108.893C181.397 107.608 182.218 107 184.084 107C184.932 107 185.704 107.137 186.395 107.417V108.401C185.649 108.121 184.863 107.977 184.043 107.977C182.874 107.977 182.437 108.23 182.437 108.893C182.437 109.406 182.689 109.7 183.257 110.11L185.273 111.525C185.465 111.662 185.615 111.771 185.725 111.853C185.834 111.942 185.964 112.052 186.107 112.188C186.251 112.332 186.354 112.462 186.429 112.592C186.572 112.845 186.702 113.227 186.702 113.638C186.702 114.957 185.82 115.565 183.845 115.565C183.018 115.565 182.163 115.435 181.288 115.176ZM189.717 115.442H188.671V107.109H189.717V115.442ZM188.514 105.503C188.514 105.12 188.814 104.819 189.197 104.819C189.573 104.819 189.874 105.127 189.874 105.503C189.874 105.879 189.573 106.186 189.197 106.186C188.808 106.186 188.514 105.892 188.514 105.503ZM192.991 108.08H191.521V107.294L192.991 107.109L193.155 105.571H194.037V107.109H196.587V108.08H194.037V113.022C194.037 114.178 194.543 114.588 195.452 114.588C195.985 114.588 196.45 114.499 196.84 114.321V115.319C196.45 115.483 195.944 115.565 195.315 115.565C194.598 115.565 194.071 115.408 193.647 115.025C193.224 114.642 192.991 113.966 192.991 113.009V108.08ZM208.57 109.912V115.442H207.675L207.593 113.036C207.449 113.289 207.34 113.487 207.265 113.624C207.189 113.761 207.087 113.925 206.971 114.123C206.848 114.321 206.745 114.465 206.663 114.567C206.574 114.67 206.472 114.786 206.349 114.916C206.103 115.182 205.904 115.265 205.61 115.394C205.31 115.531 204.988 115.565 204.599 115.565C202.992 115.565 202.343 114.663 202.343 112.824V109.912C202.343 107.95 203.286 107 205.446 107C207.524 107 208.57 108.018 208.57 109.912ZM203.389 109.926V112.838C203.389 114.014 203.744 114.574 204.749 114.574C205.132 114.574 205.412 114.513 205.713 114.28C205.863 114.164 206 114.048 206.116 113.918C206.232 113.788 206.369 113.59 206.533 113.323C206.697 113.057 206.848 112.797 206.984 112.551C207.114 112.311 207.299 111.97 207.524 111.525V109.926C207.524 109.276 207.415 108.852 207.114 108.504C206.807 108.155 206.267 107.991 205.446 107.991C204.619 107.991 204.086 108.148 203.785 108.497C203.484 108.846 203.389 109.263 203.389 109.926ZM216.315 109.215V109.591C216.432 109.351 216.527 109.167 216.589 109.037C216.65 108.907 216.732 108.743 216.835 108.558C216.937 108.374 217.02 108.237 217.081 108.135C217.211 107.943 217.416 107.629 217.573 107.499C217.73 107.369 217.949 107.184 218.161 107.116C218.373 107.048 218.626 107 218.92 107C220.335 107 220.95 107.916 220.95 109.741V115.442H219.884V110.206C219.884 109.598 219.856 109.215 219.768 108.825C219.72 108.627 219.658 108.476 219.576 108.36C219.412 108.135 219.139 107.991 218.749 107.991C218.469 107.991 218.236 108.073 218.045 108.182C217.847 108.292 217.621 108.606 217.443 108.859C217.354 108.989 217.245 109.174 217.122 109.427C216.992 109.68 216.876 109.912 216.773 110.131C216.671 110.349 216.527 110.65 216.356 111.033V115.442H215.338V110.206C215.338 109.433 215.263 108.866 215.112 108.517C214.962 108.169 214.661 107.991 214.203 107.991C213.957 107.991 213.759 108.018 213.561 108.148C213.362 108.278 213.226 108.374 213.027 108.661C212.925 108.805 212.843 108.941 212.768 109.064C212.692 109.187 212.604 109.365 212.487 109.604C212.371 109.844 212.269 110.056 212.18 110.247C212.091 110.445 211.968 110.712 211.811 111.047V115.442H210.744V107.109H211.653L211.735 109.536C211.879 109.242 211.988 109.023 212.063 108.866C212.139 108.716 212.241 108.531 212.364 108.312C212.48 108.1 212.583 107.936 212.672 107.834C212.761 107.731 212.863 107.615 212.993 107.485C213.362 107.13 213.745 107.034 214.354 107C215.604 107 216.206 107.772 216.315 109.215ZM228.846 109.857C228.846 110.678 228.812 111.286 228.743 111.676H223.828V112.728C223.828 113.419 224.006 113.897 224.361 114.164C224.717 114.437 225.305 114.574 226.125 114.574C226.556 114.574 227.007 114.533 227.472 114.451C227.937 114.376 228.312 114.273 228.606 114.157V115.148C227.895 115.429 227.075 115.565 226.139 115.565C224.977 115.565 224.129 115.34 223.589 114.889C223.049 114.444 222.782 113.692 222.782 112.64V109.939C222.782 108.217 223.541 107 225.858 107C227.793 107 228.846 107.964 228.846 109.857ZM223.828 109.659V110.766H227.834V109.659C227.834 108.517 227.164 107.95 225.831 107.95C224.498 107.95 223.828 108.463 223.828 109.659ZM231.341 108.08H229.871V107.294L231.341 107.109L231.505 105.571H232.387V107.109H234.937V108.08H232.387V113.022C232.387 114.178 232.893 114.588 233.802 114.588C234.335 114.588 234.8 114.499 235.189 114.321V115.319C234.8 115.483 234.294 115.565 233.665 115.565C232.947 115.565 232.421 115.408 231.997 115.025C231.573 114.642 231.341 113.966 231.341 113.009V108.08ZM236.926 117.5L236.591 117.418C236.591 117.315 236.618 117.008 236.673 116.509C236.693 116.392 236.728 116.228 236.762 116.016C236.796 115.805 236.823 115.627 236.851 115.49C236.898 115.217 236.987 114.793 237.076 114.554C237.199 114.184 237.411 113.849 237.685 113.877C237.917 113.877 238.067 113.986 238.129 114.198C238.149 114.28 238.156 114.403 238.143 114.574C238.095 114.923 237.931 115.415 237.65 116.064C237.37 116.714 237.124 117.192 236.926 117.5ZM171.697 136.667V133.885C171.697 131.964 172.743 131 174.835 131C175.621 131 176.291 131.116 176.845 131.349V132.36C176.223 132.114 175.587 131.991 174.931 131.991C174.11 131.991 173.543 132.141 173.222 132.435C172.9 132.729 172.743 133.222 172.743 133.898V136.653C172.743 137.357 172.921 137.856 173.27 138.143C173.618 138.431 174.199 138.574 175.013 138.574C175.717 138.574 176.38 138.465 177.002 138.239V139.244C176.366 139.456 175.683 139.565 174.944 139.565C172.709 139.565 171.697 138.656 171.697 136.667ZM183.414 136.626V133.926C183.414 133.269 183.305 132.846 183.004 132.497C182.703 132.148 182.163 131.991 181.35 131.991C180.529 131.991 179.989 132.148 179.688 132.497C179.388 132.846 179.278 133.269 179.278 133.926V136.626C179.278 137.282 179.388 137.713 179.688 138.061C179.989 138.41 180.529 138.574 181.35 138.574C182.163 138.574 182.703 138.41 183.004 138.061C183.305 137.713 183.414 137.282 183.414 136.626ZM181.35 139.565C180.242 139.565 179.449 139.319 178.964 138.82C178.479 138.321 178.232 137.59 178.232 136.626V133.926C178.232 132.039 179.169 131 181.35 131C182.457 131 183.25 131.246 183.735 131.738C184.221 132.237 184.46 132.962 184.46 133.926V136.626C184.46 138.519 183.517 139.565 181.35 139.565ZM192.629 133.741V139.442H191.569V133.714C191.569 132.538 191.228 131.991 190.223 131.991C189.942 131.991 189.717 132.018 189.484 132.148C189.252 132.278 189.088 132.374 188.869 132.661C188.753 132.805 188.657 132.941 188.568 133.064C188.479 133.194 188.377 133.372 188.247 133.604C188.117 133.844 188.001 134.056 187.898 134.247C187.796 134.445 187.652 134.712 187.481 135.047V139.442H186.415V131.109H187.324L187.406 133.536C187.55 133.283 187.659 133.085 187.734 132.941C187.81 132.805 187.912 132.641 188.035 132.442C188.151 132.251 188.254 132.1 188.343 131.998C188.425 131.895 188.527 131.779 188.65 131.649C188.89 131.39 189.102 131.301 189.389 131.171C189.676 131.041 189.997 131 190.38 131C191.973 131 192.629 131.909 192.629 133.741ZM194.406 139.176V138.184C195.274 138.451 196.156 138.588 197.065 138.588C198.289 138.588 198.802 138.342 198.802 137.651C198.802 137.398 198.733 137.193 198.597 137.029C198.46 136.865 198.228 136.667 197.893 136.434L195.862 135.019C195.452 134.725 195.213 134.534 194.939 134.185C194.659 133.837 194.516 133.413 194.516 132.893C194.516 131.608 195.336 131 197.202 131C198.05 131 198.822 131.137 199.513 131.417V132.401C198.768 132.121 197.981 131.977 197.161 131.977C195.992 131.977 195.555 132.23 195.555 132.893C195.555 133.406 195.808 133.7 196.375 134.11L198.392 135.525C198.583 135.662 198.733 135.771 198.843 135.853C198.952 135.942 199.082 136.052 199.226 136.188C199.369 136.332 199.472 136.462 199.547 136.592C199.69 136.845 199.82 137.227 199.82 137.638C199.82 138.957 198.938 139.565 196.963 139.565C196.136 139.565 195.281 139.435 194.406 139.176ZM207.333 133.857C207.333 134.678 207.299 135.286 207.23 135.676H202.315V136.728C202.315 137.419 202.493 137.897 202.849 138.164C203.204 138.437 203.792 138.574 204.612 138.574C205.043 138.574 205.494 138.533 205.959 138.451C206.424 138.376 206.8 138.273 207.094 138.157V139.148C206.383 139.429 205.562 139.565 204.626 139.565C203.464 139.565 202.616 139.34 202.076 138.889C201.536 138.444 201.27 137.692 201.27 136.64V133.939C201.27 132.217 202.028 131 204.346 131C206.28 131 207.333 131.964 207.333 133.857ZM202.315 133.659V134.766H206.321V133.659C206.321 132.517 205.651 131.95 204.318 131.95C202.985 131.95 202.315 132.463 202.315 133.659ZM208.939 136.667V133.885C208.939 131.964 209.985 131 212.077 131C212.863 131 213.533 131.116 214.087 131.349V132.36C213.465 132.114 212.829 131.991 212.173 131.991C211.353 131.991 210.785 132.141 210.464 132.435C210.143 132.729 209.985 133.222 209.985 133.898V136.653C209.985 137.357 210.163 137.856 210.512 138.143C210.86 138.431 211.441 138.574 212.255 138.574C212.959 138.574 213.622 138.465 214.244 138.239V139.244C213.608 139.456 212.925 139.565 212.187 139.565C209.951 139.565 208.939 138.656 208.939 136.667ZM216.76 132.08H215.29V131.294L216.76 131.109L216.924 129.571H217.806V131.109H220.355V132.08H217.806V137.022C217.806 138.178 218.312 138.588 219.221 138.588C219.754 138.588 220.219 138.499 220.608 138.321V139.319C220.219 139.483 219.713 139.565 219.084 139.565C218.366 139.565 217.84 139.408 217.416 139.025C216.992 138.642 216.76 137.966 216.76 137.009V132.08ZM227.937 133.857C227.937 134.678 227.902 135.286 227.834 135.676H222.919V136.728C222.919 137.419 223.097 137.897 223.452 138.164C223.808 138.437 224.395 138.574 225.216 138.574C225.646 138.574 226.098 138.533 226.562 138.451C227.027 138.376 227.403 138.273 227.697 138.157V139.148C226.986 139.429 226.166 139.565 225.229 139.565C224.067 139.565 223.22 139.34 222.68 138.889C222.14 138.444 221.873 137.692 221.873 136.64V133.939C221.873 132.217 222.632 131 224.949 131C226.884 131 227.937 131.964 227.937 133.857ZM222.919 133.659V134.766H226.925V133.659C226.925 132.517 226.255 131.95 224.922 131.95C223.589 131.95 222.919 132.463 222.919 133.659ZM230.432 132.08H228.962V131.294L230.432 131.109L230.596 129.571H231.478V131.109H234.027V132.08H231.478V137.022C231.478 138.178 231.983 138.588 232.893 138.588C233.426 138.588 233.891 138.499 234.28 138.321V139.319C233.891 139.483 233.385 139.565 232.756 139.565C232.038 139.565 231.512 139.408 231.088 139.025C230.664 138.642 230.432 137.966 230.432 137.009V132.08ZM235.784 136.824V131.109H236.83V136.838C236.83 138.014 237.186 138.574 238.19 138.574C238.566 138.574 238.84 138.519 239.141 138.28C239.291 138.164 239.421 138.041 239.53 137.918C239.64 137.795 239.776 137.597 239.947 137.316C240.118 137.043 240.262 136.79 240.392 136.551C240.515 136.318 240.692 135.976 240.932 135.525V131.109H241.984V139.442H241.089L241 137.036C240.891 137.241 240.802 137.398 240.74 137.515C240.672 137.631 240.59 137.767 240.494 137.932C240.392 138.096 240.31 138.225 240.248 138.314C240.118 138.499 239.913 138.793 239.756 138.923C239.503 139.162 239.195 139.374 238.847 139.456C238.601 139.538 238.327 139.565 238.02 139.565C236.427 139.565 235.784 138.663 235.784 136.824ZM248.362 131V132.121C248.096 132.1 247.856 132.114 247.631 132.162C247.357 132.21 247.139 132.299 246.893 132.545C246.77 132.675 246.66 132.798 246.564 132.921C246.469 133.044 246.346 133.228 246.202 133.481C246.059 133.734 245.929 133.96 245.819 134.158C245.71 134.363 245.553 134.657 245.354 135.047V139.442H244.288V131.109H245.197L245.279 133.536C245.43 133.256 245.553 133.037 245.648 132.866C245.744 132.695 245.86 132.511 245.99 132.312C246.12 132.114 246.243 131.957 246.359 131.841C246.701 131.472 247.173 131.15 247.747 131.068C247.966 131.02 248.171 131 248.362 131ZM177.029 157.857C177.029 158.678 176.995 159.286 176.927 159.676H172.012V160.728C172.012 161.419 172.189 161.897 172.545 162.164C172.9 162.437 173.488 162.574 174.309 162.574C174.739 162.574 175.19 162.533 175.655 162.451C176.12 162.376 176.496 162.273 176.79 162.157V163.148C176.079 163.429 175.259 163.565 174.322 163.565C173.16 163.565 172.312 163.34 171.772 162.889C171.232 162.444 170.966 161.692 170.966 160.64V157.939C170.966 156.217 171.725 155 174.042 155C175.977 155 177.029 155.964 177.029 157.857ZM172.012 157.659V158.766H176.018V157.659C176.018 156.517 175.348 155.95 174.015 155.95C172.682 155.95 172.012 156.463 172.012 157.659ZM179.025 161.583V152.874H180.078V161.48C180.078 162.28 180.331 162.533 180.83 162.533C181.035 162.533 181.213 162.513 181.363 162.478V163.442C181.179 163.497 180.96 163.524 180.693 163.524C179.579 163.524 179.025 162.875 179.025 161.583ZM184.084 163.442H183.038V155.109H184.084V163.442ZM182.881 153.503C182.881 153.12 183.182 152.819 183.564 152.819C183.94 152.819 184.241 153.127 184.241 153.503C184.241 153.879 183.94 154.186 183.564 154.186C183.175 154.186 182.881 153.892 182.881 153.503ZM192.301 157.857C192.301 158.678 192.267 159.286 192.198 159.676H187.283V160.728C187.283 161.419 187.461 161.897 187.816 162.164C188.172 162.437 188.76 162.574 189.58 162.574C190.011 162.574 190.462 162.533 190.927 162.451C191.392 162.376 191.768 162.273 192.062 162.157V163.148C191.351 163.429 190.53 163.565 189.594 163.565C188.432 163.565 187.584 163.34 187.044 162.889C186.504 162.444 186.237 161.692 186.237 160.64V157.939C186.237 156.217 186.996 155 189.313 155C191.248 155 192.301 155.964 192.301 157.857ZM187.283 157.659V158.766H191.289V157.659C191.289 156.517 190.619 155.95 189.286 155.95C187.953 155.95 187.283 156.463 187.283 157.659ZM198.562 161.932V154.815C198.562 153.722 199 153.291 200.094 153.291H201.406C202.855 153.291 203.778 153.496 204.435 154.057C205.091 154.617 205.357 155.506 205.357 156.893V159.86C205.357 161.159 205.057 162.082 204.455 162.622C203.847 163.169 202.835 163.442 201.406 163.442H200.094C199 163.442 198.562 163.025 198.562 161.932ZM200.312 162.417H201.406C202.917 162.417 203.676 162.102 204.004 161.385C204.168 161.029 204.25 160.523 204.25 159.86V156.893C204.25 155.909 204.106 155.314 203.669 154.891C203.231 154.467 202.534 154.316 201.406 154.316H200.312C199.841 154.316 199.656 154.501 199.656 154.986V161.761C199.656 162.225 199.848 162.417 200.312 162.417ZM207.271 160.824V155.109H208.317V160.838C208.317 162.014 208.673 162.574 209.678 162.574C210.054 162.574 210.327 162.519 210.628 162.28C210.778 162.164 210.908 162.041 211.018 161.918C211.127 161.795 211.264 161.597 211.435 161.316C211.605 161.043 211.749 160.79 211.879 160.551C212.002 160.318 212.18 159.976 212.419 159.525V155.109H213.472V163.442H212.576L212.487 161.036C212.378 161.241 212.289 161.398 212.228 161.515C212.159 161.631 212.077 161.767 211.981 161.932C211.879 162.096 211.797 162.225 211.735 162.314C211.605 162.499 211.4 162.793 211.243 162.923C210.99 163.162 210.683 163.374 210.334 163.456C210.088 163.538 209.814 163.565 209.507 163.565C207.914 163.565 207.271 162.663 207.271 160.824ZM217.006 163.442H215.96V155.109H217.006V163.442ZM215.803 153.503C215.803 153.12 216.104 152.819 216.486 152.819C216.862 152.819 217.163 153.127 217.163 153.503C217.163 153.879 216.862 154.186 216.486 154.186C216.097 154.186 215.803 153.892 215.803 153.503ZM219.104 163.176V162.184C219.973 162.451 220.854 162.588 221.764 162.588C222.987 162.588 223.5 162.342 223.5 161.651C223.5 161.398 223.432 161.193 223.295 161.029C223.158 160.865 222.926 160.667 222.591 160.434L220.561 159.019C220.15 158.725 219.911 158.534 219.638 158.185C219.357 157.837 219.214 157.413 219.214 156.893C219.214 155.608 220.034 155 221.9 155C222.748 155 223.52 155.137 224.211 155.417V156.401C223.466 156.121 222.68 155.977 221.859 155.977C220.69 155.977 220.253 156.23 220.253 156.893C220.253 157.406 220.506 157.7 221.073 158.11L223.09 159.525C223.281 159.662 223.432 159.771 223.541 159.853C223.65 159.942 223.78 160.052 223.924 160.188C224.067 160.332 224.17 160.462 224.245 160.592C224.389 160.845 224.519 161.227 224.519 161.638C224.519 162.957 223.637 163.565 221.661 163.565C220.834 163.565 219.979 163.435 219.104 163.176ZM230.124 163.176V162.184C230.992 162.451 231.874 162.588 232.783 162.588C234.007 162.588 234.52 162.342 234.52 161.651C234.52 161.398 234.451 161.193 234.314 161.029C234.178 160.865 233.945 160.667 233.61 160.434L231.58 159.019C231.17 158.725 230.931 158.534 230.657 158.185C230.377 157.837 230.233 157.413 230.233 156.893C230.233 155.608 231.054 155 232.92 155C233.768 155 234.54 155.137 235.23 155.417V156.401C234.485 156.121 233.699 155.977 232.879 155.977C231.71 155.977 231.272 156.23 231.272 156.893C231.272 157.406 231.525 157.7 232.093 158.11L234.109 159.525C234.301 159.662 234.451 159.771 234.561 159.853C234.67 159.942 234.8 160.052 234.943 160.188C235.087 160.332 235.189 160.462 235.265 160.592C235.408 160.845 235.538 161.227 235.538 161.638C235.538 162.957 234.656 163.565 232.681 163.565C231.854 163.565 230.999 163.435 230.124 163.176ZM238.553 163.442H237.507V155.109H238.553V163.442ZM237.35 153.503C237.35 153.12 237.65 152.819 238.033 152.819C238.409 152.819 238.71 153.127 238.71 153.503C238.71 153.879 238.409 154.186 238.033 154.186C237.644 154.186 237.35 153.892 237.35 153.503ZM241.827 156.08H240.357V155.294L241.827 155.109L241.991 153.571H242.873V155.109H245.423V156.08H242.873V161.022C242.873 162.178 243.379 162.588 244.288 162.588C244.821 162.588 245.286 162.499 245.676 162.321V163.319C245.286 163.483 244.78 163.565 244.151 163.565C243.434 163.565 242.907 163.408 242.483 163.025C242.06 162.642 241.827 161.966 241.827 161.009V156.08ZM247.05 162.759C247.05 162.56 247.125 162.383 247.275 162.232C247.419 162.089 247.597 162.014 247.795 162.014C248.205 162.014 248.533 162.349 248.533 162.759C248.533 163.176 248.212 163.511 247.795 163.511C247.392 163.511 247.05 163.176 247.05 162.759Z" fill="#FFF9F3"/>
<path d="M192.545 54.209V49.8438C192.545 48.8574 192.428 48.2617 192.037 47.7539C191.646 47.2461 190.904 47.0215 189.723 47.0215C188.541 47.0215 187.809 47.2363 187.418 47.7539C187.018 48.2715 186.91 48.8574 186.91 49.8438V54.209C186.91 55.1953 187.018 55.7812 187.418 56.2891C187.809 56.8066 188.541 57.0215 189.723 57.0215C190.904 57.0215 191.646 56.8066 192.037 56.2891C192.428 55.7812 192.545 55.1953 192.545 54.209ZM191.988 59.2578C191.334 59.4336 190.582 59.5215 189.723 59.5215C188.863 59.5215 188.111 59.4336 187.467 59.2578C186.812 59.082 186.285 58.8379 185.875 58.5352C185.055 57.9297 184.547 56.9727 184.352 55.9473C184.254 55.4395 184.205 54.8633 184.205 54.209V49.8438C184.205 48.5449 184.371 47.5586 184.879 46.6406C185.133 46.1816 185.465 45.8008 185.875 45.498C186.695 44.8926 188.004 44.5215 189.723 44.5215C192.35 44.5215 193.834 45.3223 194.566 46.6406C195.074 47.5586 195.25 48.5449 195.25 49.8438V54.209C195.25 55.5078 195.074 56.4941 194.566 57.4023C194.059 58.3105 193.277 58.9062 191.988 59.2578ZM211.93 51.5039V63.3301H209.332V57.1875C209.078 57.5977 208.863 57.9199 208.678 58.1641C208.492 58.4082 208.268 58.6426 207.984 58.8672C207.428 59.3359 206.715 59.5215 205.728 59.5215C203.414 59.5215 202.389 58.3496 202.389 55.625V51.5039C202.389 48.457 204.059 47.1289 207.174 47.1289C208.531 47.1289 209.664 47.4609 210.543 48.1348C211.422 48.8086 211.93 49.9805 211.93 51.5039ZM205.016 51.5625V55.6836C205.016 56.6211 205.348 57.0703 206.168 57.0703C206.705 57.0703 207.203 56.8262 207.643 56.3477C208.082 55.8691 208.639 54.9707 209.332 53.6426V51.5625C209.332 50.8691 209.186 50.3711 208.883 50.0586C208.58 49.7461 208.004 49.5898 207.154 49.5898C206.256 49.5898 205.699 49.7461 205.396 50.0977C205.094 50.459 205.016 50.8691 205.016 51.5625ZM214.176 55.625V47.3242H216.793V55.6836C216.793 56.6211 217.125 57.0703 217.936 57.0703C218.473 57.0703 218.941 56.8359 219.361 56.3672C219.771 55.9082 220.328 55 221.031 53.6426V47.3242H223.648V59.3262H221.432L221.236 57.1875C220.973 57.5977 220.748 57.9199 220.562 58.1641C220.367 58.4082 220.123 58.6426 219.83 58.8672C219.244 59.3359 218.512 59.5215 217.496 59.5215C215.201 59.5215 214.176 58.3301 214.176 55.625ZM235.27 51.6309C235.27 52.8516 235.191 53.75 235.045 54.3262H228.57V55.3418C228.57 56.0156 228.775 56.4648 229.195 56.709C229.605 56.9531 230.318 57.0703 231.324 57.0703C231.9 57.0703 232.555 57.0117 233.277 56.8945C233.99 56.7773 234.547 56.6406 234.947 56.4844V58.9453C233.971 59.3262 232.76 59.5215 231.305 59.5215C229.449 59.5215 228.092 59.1895 227.232 58.5156C226.373 57.8418 225.943 56.7188 225.943 55.1465V51.6309C225.943 50.293 226.266 49.248 227.008 48.418C227.74 47.5977 229.02 47.1289 230.748 47.1289C233.746 47.1289 235.27 48.6621 235.27 51.6309ZM228.57 50.9863V52.1094H232.789V50.9863C232.789 49.9707 232.086 49.4629 230.67 49.4629C229.273 49.4629 228.57 49.9707 228.57 50.9863ZM193.834 79.5039V87.3262H191.637L191.432 85.1875C191.168 85.5977 190.943 85.9199 190.748 86.1641C190.553 86.4082 190.309 86.6426 190.016 86.8672C189.43 87.3359 188.678 87.5215 187.633 87.5215C185.318 87.5215 184.293 86.3496 184.293 83.625V79.5039C184.293 76.457 185.963 75.1289 189.078 75.1289C190.436 75.1289 191.568 75.4609 192.447 76.1348C193.326 76.8086 193.834 77.9805 193.834 79.5039ZM186.92 79.5625V83.6836C186.92 84.6211 187.252 85.0703 188.072 85.0703C188.609 85.0703 189.107 84.8262 189.547 84.3477C189.986 83.8691 190.543 82.9707 191.236 81.6426V79.5625C191.236 78.8691 191.09 78.3711 190.787 78.0586C190.484 77.7461 189.908 77.5898 189.059 77.5898C188.16 77.5898 187.603 77.7461 187.301 78.0977C186.998 78.459 186.92 78.8691 186.92 79.5625ZM195.914 83.2441V79.4062C195.914 78.0879 196.324 77.0527 197.154 76.2812C197.975 75.5098 199.176 75.1289 200.758 75.1289C201.773 75.1289 202.711 75.2852 203.58 75.6074V78.0684C202.691 77.7461 201.822 77.5898 200.992 77.5898C200.084 77.5898 199.449 77.7168 199.088 77.9707C198.727 78.2344 198.541 78.7227 198.541 79.4453V83.166C198.541 83.8691 198.746 84.3574 199.156 84.6406C199.557 84.9238 200.23 85.0703 201.178 85.0703C201.978 85.0703 202.838 84.9336 203.756 84.6504V87.082C202.75 87.375 201.852 87.5215 201.061 87.5215C197.535 87.5215 195.914 86.0566 195.914 83.2441ZM211.92 83.0879V79.5625C211.92 78.8691 211.832 78.459 211.529 78.0977C211.217 77.7461 210.67 77.5898 209.781 77.5898C208.932 77.5898 208.355 77.7461 208.053 78.0586C207.75 78.3711 207.603 78.8691 207.603 79.5625V83.0879C207.603 83.7812 207.75 84.2793 208.053 84.5918C208.355 84.9141 208.932 85.0703 209.781 85.0703C210.67 85.0703 211.227 84.9141 211.529 84.5527C211.832 84.1914 211.92 83.7812 211.92 83.0879ZM209.781 87.5215C206.51 87.5215 204.977 86.0664 204.977 83.0879V79.5625C204.977 76.7012 206.666 75.1289 209.781 75.1289C213.033 75.1289 214.537 76.584 214.537 79.5625V83.0879C214.537 85.9688 212.877 87.5215 209.781 87.5215ZM226.324 79.0254V87.3262H223.707V78.9668C223.707 78.0293 223.375 77.5898 222.564 77.5898C222.027 77.5898 221.559 77.8242 221.139 78.2832C220.719 78.752 220.162 79.6602 219.469 81.0078V87.3262H216.842V75.3242H219.068L219.264 77.4629C219.527 77.0527 219.752 76.7305 219.947 76.4863C220.133 76.2422 220.377 76.0078 220.67 75.7734C221.256 75.3145 221.988 75.1289 223.004 75.1289C225.299 75.1289 226.324 76.3203 226.324 79.0254ZM229.918 77.6875H227.877V75.7246L229.918 75.3242L230.318 73.127H232.516V75.3242H235.68V77.6875H232.516V83.5273C232.516 84.709 233.092 85.0898 234.137 85.0898C234.879 85.0898 235.514 84.9727 236.041 84.7285V87.1895C235.387 87.4141 234.615 87.5215 233.736 87.5215C232.564 87.5215 231.695 87.2773 230.992 86.6816C230.289 86.0957 229.918 85.0215 229.918 83.5078V77.6875ZM188.551 107.631C188.551 108.852 188.473 109.75 188.326 110.326H181.852V111.342C181.852 112.016 182.057 112.465 182.477 112.709C182.887 112.953 183.6 113.07 184.605 113.07C185.182 113.07 185.836 113.012 186.559 112.895C187.271 112.777 187.828 112.641 188.228 112.484V114.945C187.252 115.326 186.041 115.521 184.586 115.521C182.73 115.521 181.373 115.189 180.514 114.516C179.654 113.842 179.225 112.719 179.225 111.146V107.631C179.225 106.293 179.547 105.248 180.289 104.418C181.021 103.598 182.301 103.129 184.029 103.129C187.027 103.129 188.551 104.662 188.551 107.631ZM181.852 106.986V108.109H186.07V106.986C186.07 105.971 185.367 105.463 183.951 105.463C182.555 105.463 181.852 105.971 181.852 106.986ZM190.494 111.244V107.406C190.494 106.088 190.904 105.053 191.734 104.281C192.555 103.51 193.756 103.129 195.338 103.129C196.353 103.129 197.291 103.285 198.16 103.607V106.068C197.271 105.746 196.402 105.59 195.572 105.59C194.664 105.59 194.029 105.717 193.668 105.971C193.307 106.234 193.121 106.723 193.121 107.445V111.166C193.121 111.869 193.326 112.357 193.736 112.641C194.137 112.924 194.811 113.07 195.758 113.07C196.559 113.07 197.418 112.934 198.336 112.65V115.082C197.33 115.375 196.432 115.521 195.641 115.521C192.115 115.521 190.494 114.057 190.494 111.244ZM208.883 107.631C208.883 108.852 208.805 109.75 208.658 110.326H202.184V111.342C202.184 112.016 202.389 112.465 202.809 112.709C203.219 112.953 203.932 113.07 204.937 113.07C205.514 113.07 206.168 113.012 206.891 112.895C207.603 112.777 208.16 112.641 208.561 112.484V114.945C207.584 115.326 206.373 115.521 204.918 115.521C203.062 115.521 201.705 115.189 200.846 114.516C199.986 113.842 199.557 112.719 199.557 111.146V107.631C199.557 106.293 199.879 105.248 200.621 104.418C201.353 103.598 202.633 103.129 204.361 103.129C207.359 103.129 208.883 104.662 208.883 107.631ZM202.184 106.986V108.109H206.402V106.986C206.402 105.971 205.699 105.463 204.283 105.463C202.887 105.463 202.184 105.971 202.184 106.986ZM216.666 112.104V100.131H219.264V111.723C219.264 112.729 219.527 113.07 220.143 113.07C220.426 113.07 220.68 113.031 220.924 112.943V115.326C220.562 115.453 220.143 115.521 219.645 115.521C217.838 115.521 216.666 114.418 216.666 112.104ZM227.179 104.186C228.645 104.186 229.765 104.506 230.539 105.146C231.325 105.773 231.719 106.74 231.719 108.046V115.326H229.639L229.059 113.846H228.979C228.672 114.233 228.352 114.553 228.019 114.806C227.699 115.06 227.325 115.24 226.899 115.346C226.485 115.466 225.972 115.526 225.359 115.526C224.719 115.526 224.139 115.406 223.619 115.166C223.112 114.913 222.712 114.533 222.419 114.026C222.125 113.506 221.979 112.853 221.979 112.066C221.979 110.906 222.385 110.053 223.199 109.506C224.012 108.946 225.232 108.64 226.859 108.586L228.759 108.526V108.046C228.759 107.473 228.605 107.053 228.299 106.786C228.005 106.52 227.592 106.386 227.059 106.386C226.525 106.386 226.005 106.466 225.499 106.626C224.992 106.773 224.485 106.96 223.979 107.186L222.999 105.166C223.585 104.86 224.232 104.62 224.939 104.446C225.659 104.273 226.405 104.186 227.179 104.186ZM227.599 110.306C226.639 110.333 225.972 110.506 225.599 110.826C225.225 111.146 225.039 111.566 225.039 112.086C225.039 112.54 225.172 112.866 225.439 113.066C225.705 113.253 226.052 113.346 226.479 113.346C227.119 113.346 227.659 113.16 228.099 112.786C228.539 112.4 228.759 111.86 228.759 111.166V110.266L227.599 110.306ZM231.399 100.206C231.212 100.393 230.965 100.62 230.659 100.886C230.352 101.153 230.019 101.433 229.659 101.726C229.312 102.02 228.965 102.3 228.619 102.566C228.285 102.82 227.992 103.033 227.739 103.206H225.759V102.946C225.972 102.693 226.219 102.4 226.499 102.066C226.792 101.72 227.079 101.366 227.359 101.006C227.639 100.633 227.872 100.3 228.059 100.006H231.399V100.206ZM234.469 114.984C234.166 114.682 234.01 114.32 234.01 113.891C234.01 113.461 234.166 113.09 234.469 112.787C234.771 112.484 235.143 112.328 235.572 112.328C236.002 112.328 236.373 112.484 236.676 112.787C236.978 113.09 237.125 113.461 237.125 113.891C237.125 114.32 236.978 114.682 236.676 114.984C236.373 115.287 236.002 115.443 235.572 115.443C235.143 115.443 234.771 115.287 234.469 114.984ZM240.748 104.965C240.748 106.127 240.504 107.045 240.035 107.748C239.557 108.451 239 108.93 238.17 109.447C237.271 110.004 236.91 110.531 236.705 111.322H234.43C234.342 110.668 234.322 110.219 234.576 109.711C234.664 109.525 234.742 109.389 234.791 109.281C234.84 109.174 234.947 109.037 235.113 108.861C235.27 108.686 235.377 108.568 235.436 108.5C235.494 108.432 235.621 108.314 235.826 108.148C236.031 107.982 236.148 107.875 236.187 107.846C236.227 107.816 236.353 107.709 236.568 107.543C236.891 107.279 237.135 107.074 237.301 106.918C237.457 106.771 237.603 106.596 237.74 106.391C238.014 106 238.072 105.6 238.072 104.965C238.072 104.213 237.936 103.695 237.652 103.412C237.369 103.139 236.881 103.002 236.187 103.002C235.748 103.002 235.289 103.041 234.811 103.109C234.332 103.188 233.99 103.275 233.785 103.363V100.785C234.537 100.609 235.348 100.521 236.227 100.521C237.73 100.521 238.863 100.863 239.615 101.547C240.367 102.24 240.748 103.373 240.748 104.965Z" fill="#FFF9F3"/>
<path d="M104.749 65.9315V57.2909H105.843V65.7606C105.843 66.2255 106.035 66.4169 106.499 66.4169H110.307V67.4423H106.281C105.187 67.4423 104.749 67.0253 104.749 65.9315ZM116.541 64.6259V61.9257C116.541 61.2694 116.432 60.8456 116.131 60.4969C115.83 60.1483 115.29 59.9911 114.477 59.9911C113.657 59.9911 113.117 60.1483 112.816 60.4969C112.515 60.8456 112.406 61.2694 112.406 61.9257V64.6259C112.406 65.2821 112.515 65.7128 112.816 66.0614C113.117 66.41 113.657 66.5741 114.477 66.5741C115.29 66.5741 115.83 66.41 116.131 66.0614C116.432 65.7128 116.541 65.2821 116.541 64.6259ZM114.477 67.5653C113.37 67.5653 112.577 67.3192 112.091 66.8202C111.606 66.3212 111.36 65.5897 111.36 64.6259V61.9257C111.36 60.0389 112.296 58.9999 114.477 58.9999C115.584 58.9999 116.377 59.246 116.863 59.7382C117.348 60.2372 117.587 60.9618 117.587 61.9257V64.6259C117.587 66.5194 116.644 67.5653 114.477 67.5653ZM123.617 58.9999V60.121C123.35 60.1005 123.111 60.1141 122.885 60.162C122.612 60.2098 122.393 60.2987 122.147 60.5448C122.024 60.6747 121.914 60.7977 121.819 60.9208C121.723 61.0438 121.6 61.2284 121.456 61.4813C121.313 61.7343 121.183 61.9598 121.074 62.1581C120.964 62.3632 120.807 62.6571 120.609 63.0468V67.4423H119.542V59.1093H120.452L120.534 61.536C120.684 61.2557 120.807 61.037 120.903 60.8661C120.998 60.6952 121.115 60.5106 121.245 60.3124C121.374 60.1141 121.497 59.9569 121.614 59.8407C121.955 59.4716 122.427 59.1503 123.001 59.0682C123.22 59.0204 123.425 58.9999 123.617 58.9999ZM130.767 61.8573C130.767 62.6776 130.733 63.286 130.664 63.6757H125.749V64.7284C125.749 65.4188 125.927 65.8973 126.283 66.1639C126.638 66.4374 127.226 66.5741 128.046 66.5741C128.477 66.5741 128.928 66.5331 129.393 66.451C129.858 66.3759 130.234 66.2733 130.528 66.1571V67.1483C129.817 67.4286 128.996 67.5653 128.06 67.5653C126.898 67.5653 126.05 67.3397 125.51 66.8885C124.97 66.4442 124.703 65.6923 124.703 64.6395V61.9393C124.703 60.2167 125.462 58.9999 127.78 58.9999C129.714 58.9999 130.767 59.9637 130.767 61.8573ZM125.749 61.6591V62.7665H129.755V61.6591C129.755 60.5175 129.085 59.9501 127.752 59.9501C126.419 59.9501 125.749 60.4628 125.749 61.6591ZM138.28 61.2147V61.5907C138.396 61.3514 138.492 61.1669 138.553 61.037C138.615 60.9071 138.697 60.743 138.799 60.5585C138.902 60.3739 138.984 60.2372 139.045 60.1346C139.175 59.9432 139.38 59.6288 139.537 59.4989C139.695 59.369 139.913 59.1844 140.125 59.1161C140.337 59.0477 140.59 58.9999 140.884 58.9999C142.299 58.9999 142.914 59.9159 142.914 61.7411V67.4423H141.848V62.2059C141.848 61.5975 141.821 61.2147 141.732 60.8251C141.684 60.6268 141.622 60.4764 141.54 60.3602C141.376 60.1346 141.103 59.9911 140.713 59.9911C140.433 59.9911 140.201 60.0731 140.009 60.1825C139.811 60.2919 139.585 60.6063 139.408 60.8593C139.319 60.9891 139.209 61.1737 139.086 61.4266C138.956 61.6796 138.84 61.912 138.738 62.1307C138.635 62.3495 138.492 62.6503 138.321 63.0331V67.4423H137.302V62.2059C137.302 61.4335 137.227 60.8661 137.077 60.5175C136.926 60.1688 136.625 59.9911 136.167 59.9911C135.921 59.9911 135.723 60.0184 135.525 60.1483C135.327 60.2782 135.19 60.3739 134.992 60.661C134.889 60.8046 134.807 60.9413 134.732 61.0643C134.657 61.1874 134.568 61.3651 134.452 61.6044C134.335 61.8436 134.233 62.0555 134.144 62.2469C134.055 62.4452 133.932 62.7118 133.775 63.0468V67.4423H132.708V59.1093H133.618L133.7 61.536C133.843 61.2421 133.953 61.0233 134.028 60.8661C134.103 60.7157 134.205 60.5311 134.328 60.3124C134.445 60.1005 134.547 59.9364 134.636 59.8339C134.725 59.7313 134.828 59.6151 134.957 59.4852C135.327 59.1298 135.709 59.0341 136.318 58.9999C137.569 58.9999 138.17 59.7723 138.28 61.2147ZM87.7758 91.4423H86.7299V83.1093H87.7758V91.4423ZM86.5726 81.5028C86.5726 81.12 86.8734 80.8192 87.2562 80.8192C87.6322 80.8192 87.933 81.1268 87.933 81.5028C87.933 81.8788 87.6322 82.1864 87.2562 82.1864C86.8666 82.1864 86.5726 81.8925 86.5726 81.5028ZM91.0365 94.1698H89.9838V85.912C89.9838 84.0184 91.016 82.9999 93.0941 82.9999C95.2748 82.9999 96.2113 83.9501 96.2113 85.912V88.8241C96.2113 90.6561 95.5551 91.5653 93.9623 91.5653C93.5795 91.5653 93.2719 91.5311 92.9847 91.3944C92.6976 91.2645 92.4994 91.1825 92.2601 90.9159C92.1371 90.786 92.0346 90.6698 91.9525 90.5673C91.8705 90.4647 91.768 90.3212 91.6517 90.1229C91.5355 89.9247 91.4398 89.7606 91.3646 89.6239C91.2894 89.494 91.1801 89.2958 91.0365 89.036V94.1698ZM95.1517 88.8378V85.9257C95.1517 85.2694 95.056 84.8456 94.7621 84.4969C94.4613 84.1483 93.9281 83.9911 93.1078 83.9911C92.2806 83.9911 91.7406 84.1483 91.4398 84.4969C91.139 84.8524 91.0365 85.2694 91.0365 85.9257V87.5253C91.2279 87.9012 91.3851 88.1952 91.5082 88.4208C91.6244 88.6464 91.7543 88.8788 91.8978 89.118C92.1781 89.6102 92.3558 89.8221 92.6019 90.0887C92.9711 90.4647 93.2924 90.5468 93.7914 90.5741C94.8031 90.5741 95.1517 90.0204 95.1517 88.8378ZM97.7904 91.1757V90.1844C98.6586 90.451 99.5404 90.5878 100.45 90.5878C101.673 90.5878 102.186 90.3417 102.186 89.6512C102.186 89.3983 102.118 89.1932 101.981 89.0292C101.844 88.8651 101.612 88.6669 101.277 88.4344L99.2465 87.0194C98.8363 86.7255 98.5971 86.5341 98.3236 86.1854C98.0433 85.8368 97.8998 85.413 97.8998 84.8934C97.8998 83.6083 98.7201 82.9999 100.586 82.9999C101.434 82.9999 102.206 83.1366 102.897 83.4169V84.4012C102.152 84.121 101.366 83.9774 100.545 83.9774C99.3764 83.9774 98.9389 84.2303 98.9389 84.8934C98.9389 85.4061 99.1918 85.7001 99.7592 86.1102L101.776 87.5253C101.967 87.662 102.118 87.7714 102.227 87.8534C102.336 87.9423 102.466 88.0516 102.61 88.1884C102.753 88.3319 102.856 88.4618 102.931 88.5917C103.075 88.8446 103.204 89.2274 103.204 89.6376C103.204 90.9569 102.323 91.5653 100.347 91.5653C99.5199 91.5653 98.6654 91.4354 97.7904 91.1757ZM104.866 88.8241V83.1093H105.912V88.8378C105.912 90.0135 106.267 90.5741 107.272 90.5741C107.648 90.5741 107.921 90.5194 108.222 90.2802C108.372 90.1639 108.502 90.0409 108.612 89.9178C108.721 89.7948 108.858 89.5966 109.029 89.3163C109.2 89.0428 109.343 88.7899 109.473 88.5507C109.596 88.3182 109.774 87.9764 110.013 87.5253V83.1093H111.066V91.4423H110.17L110.081 89.036C109.972 89.2411 109.883 89.3983 109.822 89.5145C109.753 89.6307 109.671 89.7675 109.576 89.9315C109.473 90.0956 109.391 90.2255 109.329 90.3143C109.2 90.4989 108.995 90.7928 108.837 90.9227C108.584 91.162 108.277 91.3739 107.928 91.4559C107.682 91.538 107.409 91.5653 107.101 91.5653C105.508 91.5653 104.866 90.663 104.866 88.8241ZM118.941 85.2147V85.5907C119.057 85.3514 119.153 85.1669 119.214 85.037C119.276 84.9071 119.358 84.743 119.46 84.5585C119.563 84.3739 119.645 84.2372 119.706 84.1346C119.836 83.9432 120.041 83.6288 120.199 83.4989C120.356 83.369 120.575 83.1844 120.787 83.1161C120.998 83.0477 121.251 82.9999 121.545 82.9999C122.96 82.9999 123.576 83.9159 123.576 85.7411V91.4423H122.509V86.2059C122.509 85.5975 122.482 85.2147 122.393 84.8251C122.345 84.6268 122.284 84.4764 122.202 84.3602C122.037 84.1346 121.764 83.9911 121.374 83.9911C121.094 83.9911 120.862 84.0731 120.67 84.1825C120.472 84.2919 120.246 84.6063 120.069 84.8593C119.98 84.9891 119.87 85.1737 119.747 85.4266C119.618 85.6796 119.501 85.912 119.399 86.1307C119.296 86.3495 119.153 86.6503 118.982 87.0331V91.4423H117.963V86.2059C117.963 85.4335 117.888 84.8661 117.738 84.5175C117.587 84.1688 117.287 83.9911 116.828 83.9911C116.582 83.9911 116.384 84.0184 116.186 84.1483C115.988 84.2782 115.851 84.3739 115.653 84.661C115.55 84.8046 115.468 84.9413 115.393 85.0643C115.318 85.1874 115.229 85.3651 115.113 85.6044C114.996 85.8436 114.894 86.0555 114.805 86.2469C114.716 86.4452 114.593 86.7118 114.436 87.0468V91.4423H113.37V83.1093H114.279L114.361 85.536C114.504 85.2421 114.614 85.0233 114.689 84.8661C114.764 84.7157 114.867 84.5311 114.99 84.3124C115.106 84.1005 115.208 83.9364 115.297 83.8339C115.386 83.7313 115.489 83.6151 115.619 83.4852C115.988 83.1298 116.37 83.0341 116.979 82.9999C118.23 82.9999 118.831 83.7723 118.941 85.2147ZM134.8 80.8739H135.846V88.6395C135.846 90.5468 134.8 91.5653 132.722 91.5653C130.562 91.5653 129.619 90.6014 129.619 88.6395V85.7411C129.619 83.9022 130.268 82.9999 131.874 82.9999C132.394 83.0204 132.777 83.0751 133.119 83.2938C133.358 83.451 133.508 83.5399 133.72 83.7997C133.823 83.9296 133.912 84.0458 133.987 84.1346C134.055 84.2303 134.144 84.3671 134.253 84.5516C134.356 84.7362 134.445 84.8866 134.513 85.0028C134.581 85.1259 134.677 85.3036 134.8 85.536V80.8739ZM130.664 85.7137V88.6259C130.664 89.2889 130.76 89.7059 131.061 90.0614C131.362 90.4169 131.895 90.5741 132.722 90.5741C133.542 90.5741 134.089 90.41 134.39 90.0546C134.691 89.7059 134.8 89.2753 134.8 88.6259V87.0468C134.575 86.6024 134.39 86.2606 134.26 86.0145C134.123 85.7684 133.973 85.5087 133.809 85.2421C133.645 84.9755 133.508 84.7772 133.392 84.6473C133.16 84.3944 132.838 84.1278 132.537 84.0458C132.387 84.0116 132.216 83.9911 132.025 83.9911C131.02 83.9911 130.664 84.538 130.664 85.7137ZM142.867 88.6259V85.9257C142.867 85.2694 142.757 84.8456 142.456 84.4969C142.156 84.1483 141.616 83.9911 140.802 83.9911C139.982 83.9911 139.442 84.1483 139.141 84.4969C138.84 84.8456 138.731 85.2694 138.731 85.9257V88.6259C138.731 89.2821 138.84 89.7128 139.141 90.0614C139.442 90.41 139.982 90.5741 140.802 90.5741C141.616 90.5741 142.156 90.41 142.456 90.0614C142.757 89.7128 142.867 89.2821 142.867 88.6259ZM140.802 91.5653C139.695 91.5653 138.902 91.3192 138.416 90.8202C137.931 90.3212 137.685 89.5897 137.685 88.6259V85.9257C137.685 84.0389 138.621 82.9999 140.802 82.9999C141.91 82.9999 142.703 83.246 143.188 83.7382C143.673 84.2372 143.912 84.9618 143.912 85.9257V88.6259C143.912 90.5194 142.969 91.5653 140.802 91.5653ZM145.922 89.5829V80.8739H146.975V89.4803C146.975 90.2802 147.228 90.5331 147.727 90.5331C147.932 90.5331 148.11 90.5126 148.26 90.4784V91.4423C148.076 91.4969 147.857 91.5243 147.59 91.5243C146.476 91.5243 145.922 90.8749 145.922 89.5829ZM154.597 88.6259V85.9257C154.597 85.2694 154.488 84.8456 154.187 84.4969C153.886 84.1483 153.346 83.9911 152.533 83.9911C151.712 83.9911 151.172 84.1483 150.871 84.4969C150.571 84.8456 150.461 85.2694 150.461 85.9257V88.6259C150.461 89.2821 150.571 89.7128 150.871 90.0614C151.172 90.41 151.712 90.5741 152.533 90.5741C153.346 90.5741 153.886 90.41 154.187 90.0614C154.488 89.7128 154.597 89.2821 154.597 88.6259ZM152.533 91.5653C151.425 91.5653 150.632 91.3192 150.147 90.8202C149.662 90.3212 149.415 89.5897 149.415 88.6259V85.9257C149.415 84.0389 150.352 82.9999 152.533 82.9999C153.64 82.9999 154.433 83.246 154.918 83.7382C155.404 84.2372 155.643 84.9618 155.643 85.9257V88.6259C155.643 90.5194 154.7 91.5653 152.533 91.5653ZM161.672 82.9999V84.121C161.406 84.1005 161.166 84.1141 160.941 84.162C160.667 84.2098 160.449 84.2987 160.203 84.5448C160.079 84.6747 159.97 84.7977 159.874 84.9208C159.779 85.0438 159.656 85.2284 159.512 85.4813C159.369 85.7343 159.239 85.9598 159.129 86.1581C159.02 86.3632 158.863 86.6571 158.664 87.0468V91.4423H157.598V83.1093H158.507L158.589 85.536C158.74 85.2557 158.863 85.037 158.958 84.8661C159.054 84.6952 159.17 84.5106 159.3 84.3124C159.43 84.1141 159.553 83.9569 159.669 83.8407C160.011 83.4716 160.483 83.1503 161.057 83.0682C161.276 83.0204 161.481 82.9999 161.672 82.9999ZM95.1996 115.176V114.184C96.0678 114.451 96.9496 114.588 97.8588 114.588C99.0824 114.588 99.5951 114.342 99.5951 113.651C99.5951 113.398 99.5267 113.193 99.39 113.029C99.2533 112.865 99.0209 112.667 98.6859 112.434L96.6556 111.019C96.2455 110.725 96.0062 110.534 95.7328 110.185C95.4525 109.837 95.309 109.413 95.309 108.893C95.309 107.608 96.1293 107 97.9955 107C98.8431 107 99.6156 107.137 100.306 107.417V108.401C99.5609 108.121 98.7748 107.977 97.9545 107.977C96.7855 107.977 96.348 108.23 96.348 108.893C96.348 109.406 96.601 109.7 97.1683 110.11L99.1849 111.525C99.3764 111.662 99.5267 111.771 99.6361 111.853C99.7455 111.942 99.8754 112.052 100.019 112.188C100.162 112.332 100.265 112.462 100.34 112.592C100.484 112.845 100.614 113.227 100.614 113.638C100.614 114.957 99.7318 115.565 97.7562 115.565C96.9291 115.565 96.0746 115.435 95.1996 115.176ZM103.628 115.442H102.582V107.109H103.628V115.442ZM102.425 105.503C102.425 105.12 102.726 104.819 103.109 104.819C103.485 104.819 103.786 105.127 103.786 105.503C103.786 105.879 103.485 106.186 103.109 106.186C102.719 106.186 102.425 105.892 102.425 105.503ZM106.903 108.08H105.433V107.294L106.903 107.109L107.067 105.571H107.949V107.109H110.498V108.08H107.949V113.022C107.949 114.178 108.454 114.588 109.364 114.588C109.897 114.588 110.362 114.499 110.751 114.321V115.319C110.362 115.483 109.856 115.565 109.227 115.565C108.509 115.565 107.983 115.408 107.559 115.025C107.135 114.642 106.903 113.966 106.903 113.009V108.08ZM122.482 109.912V115.442H121.586L121.504 113.036C121.361 113.289 121.251 113.487 121.176 113.624C121.101 113.761 120.998 113.925 120.882 114.123C120.759 114.321 120.657 114.465 120.575 114.567C120.486 114.67 120.383 114.786 120.26 114.916C120.014 115.182 119.816 115.265 119.522 115.394C119.221 115.531 118.9 115.565 118.51 115.565C116.904 115.565 116.254 114.663 116.254 112.824V109.912C116.254 107.95 117.198 107 119.358 107C121.436 107 122.482 108.018 122.482 109.912ZM117.3 109.926V112.838C117.3 114.014 117.656 114.574 118.661 114.574C119.043 114.574 119.324 114.513 119.624 114.28C119.775 114.164 119.912 114.048 120.028 113.918C120.144 113.788 120.281 113.59 120.445 113.323C120.609 113.057 120.759 112.797 120.896 112.551C121.026 112.311 121.21 111.97 121.436 111.525V109.926C121.436 109.276 121.327 108.852 121.026 108.504C120.718 108.155 120.178 107.991 119.358 107.991C118.531 107.991 117.997 108.148 117.697 108.497C117.396 108.846 117.3 109.263 117.3 109.926ZM130.227 109.215V109.591C130.343 109.351 130.439 109.167 130.5 109.037C130.562 108.907 130.644 108.743 130.746 108.558C130.849 108.374 130.931 108.237 130.993 108.135C131.122 107.943 131.328 107.629 131.485 107.499C131.642 107.369 131.861 107.184 132.073 107.116C132.285 107.048 132.537 107 132.831 107C134.246 107 134.862 107.916 134.862 109.741V115.442H133.795V110.206C133.795 109.598 133.768 109.215 133.679 108.825C133.631 108.627 133.57 108.476 133.488 108.36C133.324 108.135 133.05 107.991 132.661 107.991C132.38 107.991 132.148 108.073 131.956 108.182C131.758 108.292 131.533 108.606 131.355 108.859C131.266 108.989 131.157 109.174 131.034 109.427C130.904 109.68 130.787 109.912 130.685 110.131C130.582 110.349 130.439 110.65 130.268 111.033V115.442H129.249V110.206C129.249 109.433 129.174 108.866 129.024 108.517C128.873 108.169 128.573 107.991 128.115 107.991C127.869 107.991 127.67 108.018 127.472 108.148C127.274 108.278 127.137 108.374 126.939 108.661C126.836 108.805 126.754 108.941 126.679 109.064C126.604 109.187 126.515 109.365 126.399 109.604C126.283 109.844 126.18 110.056 126.091 110.247C126.002 110.445 125.879 110.712 125.722 111.047V115.442H124.656V107.109H125.565L125.647 109.536C125.79 109.242 125.9 109.023 125.975 108.866C126.05 108.716 126.153 108.531 126.276 108.312C126.392 108.1 126.495 107.936 126.583 107.834C126.672 107.731 126.775 107.615 126.905 107.485C127.274 107.13 127.657 107.034 128.265 107C129.516 107 130.118 107.772 130.227 109.215ZM142.757 109.857C142.757 110.678 142.723 111.286 142.655 111.676H137.74V112.728C137.74 113.419 137.917 113.897 138.273 114.164C138.628 114.437 139.216 114.574 140.037 114.574C140.467 114.574 140.918 114.533 141.383 114.451C141.848 114.376 142.224 114.273 142.518 114.157V115.148C141.807 115.429 140.987 115.565 140.05 115.565C138.888 115.565 138.04 115.34 137.5 114.889C136.96 114.444 136.694 113.692 136.694 112.64V109.939C136.694 108.217 137.453 107 139.77 107C141.704 107 142.757 107.964 142.757 109.857ZM137.74 109.659V110.766H141.745V109.659C141.745 108.517 141.076 107.95 139.743 107.95C138.41 107.95 137.74 108.463 137.74 109.659ZM145.252 108.08H143.783V107.294L145.252 107.109L145.416 105.571H146.298V107.109H148.848V108.08H146.298V113.022C146.298 114.178 146.804 114.588 147.713 114.588C148.246 114.588 148.711 114.499 149.101 114.321V115.319C148.711 115.483 148.205 115.565 147.577 115.565C146.859 115.565 146.332 115.408 145.909 115.025C145.485 114.642 145.252 113.966 145.252 113.009V108.08ZM150.837 117.5L150.502 117.418C150.502 117.315 150.53 117.008 150.584 116.509C150.605 116.392 150.639 116.228 150.673 116.016C150.707 115.805 150.735 115.627 150.762 115.49C150.81 115.217 150.899 114.793 150.988 114.554C151.111 114.184 151.323 113.849 151.596 113.877C151.828 113.877 151.979 113.986 152.04 114.198C152.061 114.28 152.068 114.403 152.054 114.574C152.006 114.923 151.842 115.415 151.562 116.064C151.282 116.714 151.036 117.192 150.837 117.5ZM85.6088 136.667V133.885C85.6088 131.964 86.6547 131 88.7465 131C89.5326 131 90.2025 131.116 90.7562 131.349V132.36C90.1342 132.114 89.4984 131.991 88.8422 131.991C88.0219 131.991 87.4545 132.141 87.1332 132.435C86.8119 132.729 86.6547 133.222 86.6547 133.898V136.653C86.6547 137.357 86.8324 137.856 87.181 138.143C87.5297 138.431 88.1107 138.574 88.9242 138.574C89.6283 138.574 90.2914 138.465 90.9135 138.239V139.244C90.2777 139.456 89.5941 139.565 88.8558 139.565C86.6205 139.565 85.6088 138.656 85.6088 136.667ZM97.3256 136.626V133.926C97.3256 133.269 97.2162 132.846 96.9154 132.497C96.6146 132.148 96.0746 131.991 95.2611 131.991C94.4408 131.991 93.9008 132.148 93.6 132.497C93.2992 132.846 93.1898 133.269 93.1898 133.926V136.626C93.1898 137.282 93.2992 137.713 93.6 138.061C93.9008 138.41 94.4408 138.574 95.2611 138.574C96.0746 138.574 96.6146 138.41 96.9154 138.061C97.2162 137.713 97.3256 137.282 97.3256 136.626ZM95.2611 139.565C94.1537 139.565 93.3607 139.319 92.8754 138.82C92.39 138.321 92.1439 137.59 92.1439 136.626V133.926C92.1439 132.039 93.0805 131 95.2611 131C96.3685 131 97.1615 131.246 97.6469 131.738C98.1322 132.237 98.3715 132.962 98.3715 133.926V136.626C98.3715 138.519 97.4281 139.565 95.2611 139.565ZM106.54 133.741V139.442H105.481V133.714C105.481 132.538 105.139 131.991 104.134 131.991C103.854 131.991 103.628 132.018 103.396 132.148C103.163 132.278 102.999 132.374 102.781 132.661C102.664 132.805 102.569 132.941 102.48 133.064C102.391 133.194 102.288 133.372 102.159 133.604C102.029 133.844 101.912 134.056 101.81 134.247C101.707 134.445 101.564 134.712 101.393 135.047V139.442H100.327V131.109H101.236L101.318 133.536C101.461 133.283 101.571 133.085 101.646 132.941C101.721 132.805 101.824 132.641 101.947 132.442C102.063 132.251 102.165 132.1 102.254 131.998C102.336 131.895 102.439 131.779 102.562 131.649C102.801 131.39 103.013 131.301 103.3 131.171C103.587 131.041 103.909 131 104.291 131C105.884 131 106.54 131.909 106.54 133.741ZM108.318 139.176V138.184C109.186 138.451 110.068 138.588 110.977 138.588C112.201 138.588 112.713 138.342 112.713 137.651C112.713 137.398 112.645 137.193 112.508 137.029C112.371 136.865 112.139 136.667 111.804 136.434L109.774 135.019C109.364 134.725 109.124 134.534 108.851 134.185C108.571 133.837 108.427 133.413 108.427 132.893C108.427 131.608 109.247 131 111.114 131C111.961 131 112.734 131.137 113.424 131.417V132.401C112.679 132.121 111.893 131.977 111.073 131.977C109.904 131.977 109.466 132.23 109.466 132.893C109.466 133.406 109.719 133.7 110.287 134.11L112.303 135.525C112.495 135.662 112.645 135.771 112.754 135.853C112.864 135.942 112.994 136.052 113.137 136.188C113.281 136.332 113.383 136.462 113.458 136.592C113.602 136.845 113.732 137.227 113.732 137.638C113.732 138.957 112.85 139.565 110.874 139.565C110.047 139.565 109.193 139.435 108.318 139.176ZM121.245 133.857C121.245 134.678 121.21 135.286 121.142 135.676H116.227V136.728C116.227 137.419 116.405 137.897 116.76 138.164C117.116 138.437 117.703 138.574 118.524 138.574C118.954 138.574 119.406 138.533 119.87 138.451C120.335 138.376 120.711 138.273 121.005 138.157V139.148C120.294 139.429 119.474 139.565 118.537 139.565C117.375 139.565 116.528 139.34 115.988 138.889C115.448 138.444 115.181 137.692 115.181 136.64V133.939C115.181 132.217 115.94 131 118.257 131C120.192 131 121.245 131.964 121.245 133.857ZM116.227 133.659V134.766H120.233V133.659C120.233 132.517 119.563 131.95 118.23 131.95C116.897 131.95 116.227 132.463 116.227 133.659ZM122.851 136.667V133.885C122.851 131.964 123.897 131 125.989 131C126.775 131 127.445 131.116 127.998 131.349V132.36C127.376 132.114 126.741 131.991 126.084 131.991C125.264 131.991 124.697 132.141 124.375 132.435C124.054 132.729 123.897 133.222 123.897 133.898V136.653C123.897 137.357 124.075 137.856 124.423 138.143C124.772 138.431 125.353 138.574 126.166 138.574C126.87 138.574 127.534 138.465 128.156 138.239V139.244C127.52 139.456 126.836 139.565 126.098 139.565C123.863 139.565 122.851 138.656 122.851 136.667ZM130.671 132.08H129.202V131.294L130.671 131.109L130.835 129.571H131.717V131.109H134.267V132.08H131.717V137.022C131.717 138.178 132.223 138.588 133.132 138.588C133.665 138.588 134.13 138.499 134.52 138.321V139.319C134.13 139.483 133.624 139.565 132.995 139.565C132.278 139.565 131.751 139.408 131.328 139.025C130.904 138.642 130.671 137.966 130.671 137.009V132.08ZM141.848 133.857C141.848 134.678 141.814 135.286 141.745 135.676H136.83V136.728C136.83 137.419 137.008 137.897 137.364 138.164C137.719 138.437 138.307 138.574 139.127 138.574C139.558 138.574 140.009 138.533 140.474 138.451C140.939 138.376 141.315 138.273 141.609 138.157V139.148C140.898 139.429 140.078 139.565 139.141 139.565C137.979 139.565 137.131 139.34 136.591 138.889C136.051 138.444 135.785 137.692 135.785 136.64V133.939C135.785 132.217 136.543 131 138.861 131C140.795 131 141.848 131.964 141.848 133.857ZM136.83 133.659V134.766H140.836V133.659C140.836 132.517 140.166 131.95 138.833 131.95C137.5 131.95 136.83 132.463 136.83 133.659ZM144.343 132.08H142.873V131.294L144.343 131.109L144.507 129.571H145.389V131.109H147.939V132.08H145.389V137.022C145.389 138.178 145.895 138.588 146.804 138.588C147.337 138.588 147.802 138.499 148.192 138.321V139.319C147.802 139.483 147.296 139.565 146.667 139.565C145.95 139.565 145.423 139.408 144.999 139.025C144.576 138.642 144.343 137.966 144.343 137.009V132.08ZM149.696 136.824V131.109H150.742V136.838C150.742 138.014 151.097 138.574 152.102 138.574C152.478 138.574 152.751 138.519 153.052 138.28C153.203 138.164 153.332 138.041 153.442 137.918C153.551 137.795 153.688 137.597 153.859 137.316C154.03 137.043 154.173 136.79 154.303 136.551C154.426 136.318 154.604 135.976 154.843 135.525V131.109H155.896V139.442H155L154.912 137.036C154.802 137.241 154.713 137.398 154.652 137.515C154.583 137.631 154.501 137.767 154.406 137.932C154.303 138.096 154.221 138.225 154.16 138.314C154.03 138.499 153.825 138.793 153.667 138.923C153.414 139.162 153.107 139.374 152.758 139.456C152.512 139.538 152.239 139.565 151.931 139.565C150.338 139.565 149.696 138.663 149.696 136.824ZM162.274 131V132.121C162.007 132.1 161.768 132.114 161.542 132.162C161.269 132.21 161.05 132.299 160.804 132.545C160.681 132.675 160.572 132.798 160.476 132.921C160.38 133.044 160.257 133.228 160.114 133.481C159.97 133.734 159.84 133.96 159.731 134.158C159.621 134.363 159.464 134.657 159.266 135.047V139.442H158.2V131.109H159.109L159.191 133.536C159.341 133.256 159.464 133.037 159.56 132.866C159.656 132.695 159.772 132.511 159.902 132.312C160.032 132.114 160.155 131.957 160.271 131.841C160.613 131.472 161.084 131.15 161.659 131.068C161.877 131.02 162.082 131 162.274 131ZM90.9408 157.857C90.9408 158.678 90.9066 159.286 90.8383 159.676H85.9232V160.728C85.9232 161.419 86.101 161.897 86.4564 162.164C86.8119 162.437 87.3998 162.574 88.2201 162.574C88.6508 162.574 89.1019 162.533 89.5668 162.451C90.0316 162.376 90.4076 162.273 90.7015 162.157V163.148C89.9906 163.429 89.1703 163.565 88.2338 163.565C87.0717 163.565 86.224 163.34 85.684 162.889C85.1439 162.444 84.8773 161.692 84.8773 160.64V157.939C84.8773 156.217 85.6361 155 87.9535 155C89.8881 155 90.9408 155.964 90.9408 157.857ZM85.9232 157.659V158.766H89.9291V157.659C89.9291 156.517 89.2592 155.95 87.9262 155.95C86.5931 155.95 85.9232 156.463 85.9232 157.659ZM92.9369 161.583V152.874H93.9896V161.48C93.9896 162.28 94.2426 162.533 94.7416 162.533C94.9467 162.533 95.1244 162.513 95.2748 162.478V163.442C95.0902 163.497 94.8715 163.524 94.6049 163.524C93.4906 163.524 92.9369 162.875 92.9369 161.583ZM97.9955 163.442H96.9496V155.109H97.9955V163.442ZM96.7924 153.503C96.7924 153.12 97.0931 152.819 97.476 152.819C97.8519 152.819 98.1527 153.127 98.1527 153.503C98.1527 153.879 97.8519 154.186 97.476 154.186C97.0863 154.186 96.7924 153.892 96.7924 153.503ZM106.212 157.857C106.212 158.678 106.178 159.286 106.11 159.676H101.195V160.728C101.195 161.419 101.372 161.897 101.728 162.164C102.083 162.437 102.671 162.574 103.492 162.574C103.922 162.574 104.373 162.533 104.838 162.451C105.303 162.376 105.679 162.273 105.973 162.157V163.148C105.262 163.429 104.442 163.565 103.505 163.565C102.343 163.565 101.495 163.34 100.955 162.889C100.415 162.444 100.149 161.692 100.149 160.64V157.939C100.149 156.217 100.908 155 103.225 155C105.16 155 106.212 155.964 106.212 157.857ZM101.195 157.659V158.766H105.201V157.659C105.201 156.517 104.531 155.95 103.198 155.95C101.865 155.95 101.195 156.463 101.195 157.659ZM112.474 161.932V154.815C112.474 153.722 112.912 153.291 114.005 153.291H115.318C116.767 153.291 117.69 153.496 118.346 154.057C119.002 154.617 119.269 155.506 119.269 156.893V159.86C119.269 161.159 118.968 162.082 118.367 162.622C117.758 163.169 116.746 163.442 115.318 163.442H114.005C112.912 163.442 112.474 163.025 112.474 161.932ZM114.224 162.417H115.318C116.828 162.417 117.587 162.102 117.915 161.385C118.079 161.029 118.162 160.523 118.162 159.86V156.893C118.162 155.909 118.018 155.314 117.58 154.891C117.143 154.467 116.446 154.316 115.318 154.316H114.224C113.752 154.316 113.568 154.501 113.568 154.986V161.761C113.568 162.225 113.759 162.417 114.224 162.417ZM121.183 160.824V155.109H122.229V160.838C122.229 162.014 122.584 162.574 123.589 162.574C123.965 162.574 124.239 162.519 124.539 162.28C124.69 162.164 124.82 162.041 124.929 161.918C125.038 161.795 125.175 161.597 125.346 161.316C125.517 161.043 125.661 160.79 125.79 160.551C125.913 160.318 126.091 159.976 126.33 159.525V155.109H127.383V163.442H126.488L126.399 161.036C126.289 161.241 126.201 161.398 126.139 161.515C126.071 161.631 125.989 161.767 125.893 161.932C125.79 162.096 125.708 162.225 125.647 162.314C125.517 162.499 125.312 162.793 125.155 162.923C124.902 163.162 124.594 163.374 124.245 163.456C123.999 163.538 123.726 163.565 123.418 163.565C121.826 163.565 121.183 162.663 121.183 160.824ZM130.917 163.442H129.871V155.109H130.917V163.442ZM129.714 153.503C129.714 153.12 130.015 152.819 130.398 152.819C130.774 152.819 131.075 153.127 131.075 153.503C131.075 153.879 130.774 154.186 130.398 154.186C130.008 154.186 129.714 153.892 129.714 153.503ZM133.016 163.176V162.184C133.884 162.451 134.766 162.588 135.675 162.588C136.899 162.588 137.412 162.342 137.412 161.651C137.412 161.398 137.343 161.193 137.206 161.029C137.07 160.865 136.837 160.667 136.502 160.434L134.472 159.019C134.062 158.725 133.823 158.534 133.549 158.185C133.269 157.837 133.125 157.413 133.125 156.893C133.125 155.608 133.946 155 135.812 155C136.66 155 137.432 155.137 138.122 155.417V156.401C137.377 156.121 136.591 155.977 135.771 155.977C134.602 155.977 134.164 156.23 134.164 156.893C134.164 157.406 134.417 157.7 134.985 158.11L137.001 159.525C137.193 159.662 137.343 159.771 137.453 159.853C137.562 159.942 137.692 160.052 137.835 160.188C137.979 160.332 138.081 160.462 138.157 160.592C138.3 160.845 138.43 161.227 138.43 161.638C138.43 162.957 137.548 163.565 135.573 163.565C134.745 163.565 133.891 163.435 133.016 163.176ZM144.036 163.176V162.184C144.904 162.451 145.786 162.588 146.695 162.588C147.918 162.588 148.431 162.342 148.431 161.651C148.431 161.398 148.363 161.193 148.226 161.029C148.089 160.865 147.857 160.667 147.522 160.434L145.492 159.019C145.081 158.725 144.842 158.534 144.569 158.185C144.288 157.837 144.145 157.413 144.145 156.893C144.145 155.608 144.965 155 146.831 155C147.679 155 148.452 155.137 149.142 155.417V156.401C148.397 156.121 147.611 155.977 146.79 155.977C145.621 155.977 145.184 156.23 145.184 156.893C145.184 157.406 145.437 157.7 146.004 158.11L148.021 159.525C148.212 159.662 148.363 159.771 148.472 159.853C148.581 159.942 148.711 160.052 148.855 160.188C148.998 160.332 149.101 160.462 149.176 160.592C149.32 160.845 149.45 161.227 149.45 161.638C149.45 162.957 148.568 163.565 146.592 163.565C145.765 163.565 144.911 163.435 144.036 163.176ZM152.464 163.442H151.418V155.109H152.464V163.442ZM151.261 153.503C151.261 153.12 151.562 152.819 151.945 152.819C152.321 152.819 152.621 153.127 152.621 153.503C152.621 153.879 152.321 154.186 151.945 154.186C151.555 154.186 151.261 153.892 151.261 153.503ZM155.739 156.08H154.269V155.294L155.739 155.109L155.903 153.571H156.785V155.109H159.334V156.08H156.785V161.022C156.785 162.178 157.29 162.588 158.2 162.588C158.733 162.588 159.198 162.499 159.587 162.321V163.319C159.198 163.483 158.692 163.565 158.063 163.565C157.345 163.565 156.819 163.408 156.395 163.025C155.971 162.642 155.739 161.966 155.739 161.009V156.08ZM160.961 162.759C160.961 162.56 161.037 162.383 161.187 162.232C161.33 162.089 161.508 162.014 161.706 162.014C162.117 162.014 162.445 162.349 162.445 162.759C162.445 163.176 162.123 163.511 161.706 163.511C161.303 163.511 160.961 163.176 160.961 162.759Z" fill="#FFF9F3"/>
<path d="M97.892 54.209V49.8438C97.892 48.8574 97.7748 48.2617 97.3842 47.7539C96.9936 47.2461 96.2514 47.0215 95.0697 47.0215C93.8881 47.0215 93.1557 47.2363 92.765 47.7539C92.3646 48.2715 92.2572 48.8574 92.2572 49.8438V54.209C92.2572 55.1953 92.3646 55.7812 92.765 56.2891C93.1557 56.8066 93.8881 57.0215 95.0697 57.0215C96.2514 57.0215 96.9936 56.8066 97.3842 56.2891C97.7748 55.7812 97.892 55.1953 97.892 54.209ZM97.3354 59.2578C96.6811 59.4336 95.9291 59.5215 95.0697 59.5215C94.2104 59.5215 93.4584 59.4336 92.8139 59.2578C92.1596 59.082 91.6322 58.8379 91.2221 58.5352C90.4018 57.9297 89.8939 56.9727 89.6986 55.9473C89.601 55.4395 89.5521 54.8633 89.5521 54.209V49.8438C89.5521 48.5449 89.7182 47.5586 90.226 46.6406C90.4799 46.1816 90.8119 45.8008 91.2221 45.498C92.0424 44.8926 93.351 44.5215 95.0697 44.5215C97.6967 44.5215 99.1811 45.3223 99.9135 46.6406C100.421 47.5586 100.597 48.5449 100.597 49.8438V54.209C100.597 55.5078 100.421 56.4941 99.9135 57.4023C99.4057 58.3105 98.6244 58.9062 97.3354 59.2578ZM117.277 51.5039V63.3301H114.679V57.1875C114.425 57.5977 114.21 57.9199 114.025 58.1641C113.839 58.4082 113.615 58.6426 113.331 58.8672C112.775 59.3359 112.062 59.5215 111.076 59.5215C108.761 59.5215 107.736 58.3496 107.736 55.625V51.5039C107.736 48.457 109.406 47.1289 112.521 47.1289C113.878 47.1289 115.011 47.4609 115.89 48.1348C116.769 48.8086 117.277 49.9805 117.277 51.5039ZM110.363 51.5625V55.6836C110.363 56.6211 110.695 57.0703 111.515 57.0703C112.052 57.0703 112.55 56.8262 112.99 56.3477C113.429 55.8691 113.986 54.9707 114.679 53.6426V51.5625C114.679 50.8691 114.533 50.3711 114.23 50.0586C113.927 49.7461 113.351 49.5898 112.501 49.5898C111.603 49.5898 111.046 49.7461 110.744 50.0977C110.441 50.459 110.363 50.8691 110.363 51.5625ZM119.523 55.625V47.3242H122.14V55.6836C122.14 56.6211 122.472 57.0703 123.283 57.0703C123.82 57.0703 124.288 56.8359 124.708 56.3672C125.119 55.9082 125.675 55 126.378 53.6426V47.3242H128.996V59.3262H126.779L126.583 57.1875C126.32 57.5977 126.095 57.9199 125.91 58.1641C125.714 58.4082 125.47 58.6426 125.177 58.8672C124.591 59.3359 123.859 59.5215 122.843 59.5215C120.548 59.5215 119.523 58.3301 119.523 55.625ZM140.617 51.6309C140.617 52.8516 140.538 53.75 140.392 54.3262H133.917V55.3418C133.917 56.0156 134.122 56.4648 134.542 56.709C134.953 56.9531 135.665 57.0703 136.671 57.0703C137.247 57.0703 137.902 57.0117 138.624 56.8945C139.337 56.7773 139.894 56.6406 140.294 56.4844V58.9453C139.318 59.3262 138.107 59.5215 136.652 59.5215C134.796 59.5215 133.439 59.1895 132.579 58.5156C131.72 57.8418 131.29 56.7188 131.29 55.1465V51.6309C131.29 50.293 131.613 49.248 132.355 48.418C133.087 47.5977 134.367 47.1289 136.095 47.1289C139.093 47.1289 140.617 48.6621 140.617 51.6309ZM133.917 50.9863V52.1094H138.136V50.9863C138.136 49.9707 137.433 49.4629 136.017 49.4629C134.621 49.4629 133.917 49.9707 133.917 50.9863ZM152.975 48.2062C153.989 48.2062 154.855 48.3995 155.575 48.7862C156.309 49.1728 156.875 49.7328 157.275 50.4662C157.675 51.1995 157.875 52.0995 157.875 53.1662V54.6062H150.835C150.862 55.4462 151.109 56.1062 151.575 56.5862C152.055 57.0662 152.715 57.3062 153.555 57.3062C154.262 57.3062 154.902 57.2395 155.475 57.1062C156.049 56.9595 156.642 56.7395 157.255 56.4462V58.7462C156.722 59.0128 156.155 59.2062 155.555 59.3262C154.969 59.4595 154.255 59.5262 153.415 59.5262C152.322 59.5262 151.355 59.3262 150.515 58.9262C149.675 58.5128 149.015 57.8928 148.535 57.0662C148.055 56.2395 147.815 55.1995 147.815 53.9462C147.815 52.6662 148.029 51.6062 148.455 50.7662C148.895 49.9128 149.502 49.2728 150.275 48.8462C151.049 48.4195 151.949 48.2062 152.975 48.2062ZM152.995 50.3262C152.422 50.3262 151.942 50.5128 151.555 50.8862C151.182 51.2595 150.962 51.8395 150.895 52.6262H155.075C155.075 52.1862 154.995 51.7928 154.835 51.4462C154.689 51.0995 154.462 50.8262 154.155 50.6262C153.849 50.4262 153.462 50.3262 152.995 50.3262ZM157.055 44.2062C156.869 44.3928 156.622 44.6195 156.315 44.8862C156.009 45.1528 155.675 45.4328 155.315 45.7262C154.969 46.0195 154.622 46.2995 154.275 46.5662C153.942 46.8195 153.649 47.0328 153.395 47.2062H151.415V46.9462C151.629 46.6928 151.875 46.3995 152.155 46.0662C152.449 45.7195 152.735 45.3662 153.015 45.0062C153.295 44.6328 153.529 44.2995 153.715 44.0062H157.055V44.2062ZM115.587 81.125H109.767V84.2305C109.767 84.6504 109.943 84.8262 110.363 84.8262H116.388V87.3262H109.484C107.804 87.3262 107.081 86.6035 107.081 84.9238V75.1289C107.081 73.4492 107.804 72.7266 109.484 72.7266H116.388V75.2266H110.363C109.943 75.2266 109.767 75.4023 109.767 75.8223V78.625H115.587V81.125ZM118.634 72.7266H121.31V83.7617C121.31 86.3301 120.675 88.293 119.689 89.582C119.191 90.2168 118.566 90.8125 117.794 91.3691L116.388 89.2695C117.121 88.7324 117.677 88.0488 118.058 87.2188C118.439 86.3984 118.634 85.3145 118.634 83.9668V72.7266ZM126.398 77.7461V82.502C126.398 83.2539 126.544 83.8008 126.974 84.2793C127.404 84.7578 128.224 85.0215 129.435 85.0215C130.773 85.0215 131.867 84.7578 132.697 84.2305V86.7109C132.218 86.9941 131.73 87.1992 131.232 87.3359C130.724 87.4629 130.089 87.5215 129.318 87.5215C125.538 87.5215 123.634 86.0176 123.634 82.502V77.7461C123.634 76.1055 124.113 74.8262 125.07 73.8984C126.017 72.9805 127.443 72.5215 129.337 72.5215C130.079 72.5215 130.685 72.5898 131.154 72.7266C131.613 72.873 132.13 73.0879 132.697 73.3906V75.8613C131.72 75.3047 130.597 75.0215 129.337 75.0215C127.267 75.0215 126.398 75.8809 126.398 77.7461ZM134.894 86.9844C134.591 86.6816 134.435 86.3203 134.435 85.8906C134.435 85.4609 134.591 85.0898 134.894 84.7871C135.197 84.4844 135.568 84.3281 135.997 84.3281C136.427 84.3281 136.798 84.4844 137.101 84.7871C137.404 85.0898 137.55 85.4609 137.55 85.8906C137.55 86.3203 137.404 86.6816 137.101 86.9844C136.798 87.2871 136.427 87.4434 135.997 87.4434C135.568 87.4434 135.197 87.2871 134.894 86.9844ZM141.173 76.9648C141.173 78.127 140.929 79.0449 140.46 79.748C139.982 80.4512 139.425 80.9297 138.595 81.4473C137.697 82.0039 137.335 82.5312 137.13 83.3223H134.855C134.767 82.668 134.747 82.2188 135.001 81.7109C135.089 81.5254 135.167 81.3887 135.216 81.2812C135.265 81.1738 135.372 81.0371 135.538 80.8613C135.695 80.6855 135.802 80.5684 135.861 80.5C135.919 80.4316 136.046 80.3145 136.251 80.1484C136.456 79.9824 136.574 79.875 136.613 79.8457C136.652 79.8164 136.779 79.709 136.994 79.543C137.316 79.2793 137.56 79.0742 137.726 78.918C137.882 78.7715 138.029 78.5957 138.165 78.3906C138.439 78 138.497 77.5996 138.497 76.9648C138.497 76.2129 138.361 75.6953 138.078 75.4121C137.794 75.1387 137.306 75.002 136.613 75.002C136.173 75.002 135.714 75.041 135.236 75.1094C134.757 75.1875 134.415 75.2754 134.21 75.3633V72.7852C134.962 72.6094 135.773 72.5215 136.652 72.5215C138.156 72.5215 139.288 72.8633 140.04 73.5469C140.792 74.2402 141.173 75.373 141.173 76.9648Z" fill="#FFF9F3"/>
<path d="M29.0689 189.089C29.1959 193.83 29.9902 198.53 31.4284 203.05C31.4602 203.154 31.4956 203.258 31.5301 203.363H40.3344C40.3251 203.269 40.3155 203.164 40.3063 203.05C39.7193 196.301 43.0729 155.716 47.1197 148.692C46.7652 149.261 28.3862 167.645 29.0689 189.089Z" fill="#E6E6E6"/>
<path d="M29.7295 203.049C29.8032 203.154 29.8797 203.259 29.9581 203.363H36.5634C36.5133 203.273 36.4553 203.168 36.388 203.049C35.2969 201.08 32.0673 195.192 29.0695 189.089C25.8492 182.529 22.8922 175.721 23.1412 173.257C23.0641 173.813 20.8347 190.754 29.7295 203.049Z" fill="#E6E6E6"/>
<path d="M136.791 196.11C136.856 198.519 137.259 200.907 137.99 203.203C138.006 203.256 138.024 203.309 138.042 203.362H142.515C142.51 203.314 142.505 203.261 142.5 203.203C142.202 199.774 143.906 179.155 145.962 175.586C145.782 175.876 136.444 185.216 136.791 196.11Z" fill="#E6E6E6"/>
<path d="M137.127 203.203C137.164 203.257 137.203 203.31 137.243 203.362H140.599C140.573 203.317 140.544 203.264 140.51 203.203C139.955 202.203 138.314 199.211 136.791 196.11C135.155 192.778 133.653 189.319 133.779 188.067C133.74 188.349 132.608 196.957 137.127 203.203Z" fill="#E6E6E6"/>
<path d="M110.309 58.7823L98.9233 66.881L106.008 67.6399L115.876 59.2893L110.309 58.7823Z" fill="#3F3D56"/>
<path d="M65.763 197.062L72.6112 197.062L75.8691 170.647L65.7617 170.648L65.763 197.062Z" fill="#9F616A"/>
<path d="M64.016 194.827L77.5026 194.826H77.5032C79.7826 194.826 81.9686 195.732 83.5804 197.343C85.1922 198.955 86.0977 201.141 86.0979 203.421V203.7L64.0164 203.701L64.016 194.827Z" fill="#2F2E41"/>
<path d="M61.4575 102.715C61.4575 102.715 58.4895 106.07 63.404 119.148L62.5384 190.858L78.4648 190.547L81.9656 155.568L88.3394 104.523L61.4575 102.715Z" fill="#2F2E41"/>
<path d="M45.5565 91.3954C44.6155 91.3929 43.7126 91.0238 43.0393 90.3664C42.3661 89.709 41.9755 88.8152 41.9504 87.8746L41.2031 59.7084L53.9915 35.4465C54.2819 34.9002 54.7068 34.4369 55.2261 34.1004C55.7453 33.764 56.3418 33.5655 56.9591 33.5238L66.7051 32.8981L65.8635 89.6734L45.8734 91.3819C45.7673 91.3911 45.6617 91.3956 45.5565 91.3954Z" fill="#95E3CA"/>
<path d="M93.8017 112.63L93.6274 112.603C73.2531 109.496 57.8784 106.517 57.7254 106.487L57.5345 106.45L62.8754 93.4598C62.8332 92.1023 61.6771 53.984 63.8903 43.0322C66.0328 32.4303 76.1319 30.6928 77.2828 30.5294L78.4383 26.7006L93.0375 34.2973L95.5836 43.0604L96.1008 67.078L93.8017 112.63Z" fill="#3F3D56"/>
<path d="M73.7389 76.2688C64.333 76.2688 56.6806 66.0419 56.6806 53.4713C56.6806 40.9007 64.333 30.6738 73.7389 30.6738C83.1449 30.6738 90.7972 40.9007 90.7972 53.4713C90.7972 66.0419 83.1449 76.2688 73.7389 76.2688ZM73.7389 32.9057C65.5637 32.9057 58.9126 42.1314 58.9126 53.4713C58.9126 64.8112 65.5637 74.0368 73.7389 74.0368C81.9142 74.0368 88.5653 64.8112 88.5653 53.4713C88.5653 42.1314 81.9142 32.9057 73.7389 32.9057Z" fill="#95E3CA"/>
<path d="M102.595 63.1961C101.937 63.1959 101.287 63.3318 100.684 63.5953C100.082 63.8587 99.5408 64.2439 99.0946 64.7268H74.5559L65.5675 66.64L67.0432 78.0224L99.0175 71.146C99.5469 71.7438 100.218 72.1995 100.968 72.4715C101.719 72.7435 102.526 72.823 103.316 72.7029C104.105 72.5829 104.852 72.2669 105.488 71.784C106.124 71.3011 106.629 70.6665 106.956 69.9383C107.284 69.2101 107.424 68.4114 107.364 67.6152C107.303 66.8189 107.044 66.0505 106.611 65.38C106.177 64.7095 105.582 64.1584 104.881 63.7769C104.179 63.3954 103.393 63.1957 102.595 63.1961Z" fill="#9F616A"/>
<path d="M100.793 25.0875C105.411 20.469 105.411 12.981 100.793 8.3625C96.1744 3.74403 88.6864 3.74403 84.0679 8.3625C79.4494 12.981 79.4494 20.469 84.0679 25.0875C88.6864 29.7059 96.1744 29.7059 100.793 25.0875Z" fill="#9F616A"/>
<path d="M81.3075 7.27047L80.7342 6.11652L83.6191 4.68318C83.6191 4.68318 86.8015 -0.49505 92.5604 0.960148C98.3192 2.41535 100.91 3.28625 100.91 3.28625L103.788 4.73415L102.343 6.17112L104.934 7.04206L103.203 7.90205L105.217 9.05964L104.133 14.9938C104.133 14.9938 102.333 10.493 98.8708 12.213C95.4089 13.933 89.0767 11.3238 89.0767 11.3238L83.5754 21.9706C83.5754 21.9706 82.4405 18.2384 80.417 19.2335C80.417 19.2335 75.2475 11.0008 81.3075 7.27047Z" fill="#2F2E41"/>
<path d="M184.068 80.0786L183.562 70.5982L178.461 66.4532L175.505 75.2322L158.975 97.2783C158.194 97.4035 157.465 97.7499 156.874 98.2766C156.283 98.8033 155.856 99.4882 155.642 100.25C155.428 101.012 155.437 101.82 155.668 102.577C155.899 103.334 156.341 104.009 156.944 104.522C157.546 105.036 158.283 105.366 159.067 105.473C159.851 105.581 160.65 105.462 161.368 105.13C162.087 104.798 162.695 104.267 163.121 103.6C163.548 102.933 163.774 102.158 163.774 101.367C163.774 101.311 163.767 101.257 163.765 101.202L184.068 80.0786Z" fill="#FFB7B7"/>
<path d="M193.891 199.562L189.983 199.562L188.123 184.484L193.892 184.485L193.891 199.562Z" fill="#FFB7B7"/>
<path d="M194.888 203.352L182.284 203.351V203.192C182.284 201.891 182.801 200.643 183.721 199.723C184.641 198.803 185.889 198.286 187.19 198.286L194.889 198.286L194.888 203.352Z" fill="#2F2E41"/>
<path d="M212.066 199.562L208.157 199.562L206.297 184.484L212.066 184.485L212.066 199.562Z" fill="#FFB7B7"/>
<path d="M213.063 203.352L200.458 203.351V203.192C200.458 201.891 200.975 200.643 201.895 199.723C202.815 198.803 204.063 198.286 205.364 198.286L213.063 198.286L213.063 203.352Z" fill="#2F2E41"/>
<path d="M207.934 40.4738C209.589 33.6405 210.991 25.9333 207.87 19.6397C205.704 15.2729 197.693 13.8024 193.1 15.3756C188.508 16.9488 185.188 21.2169 183.727 25.8705C182.267 30.5242 182.437 35.5388 183.073 40.3765C191.519 40.2143 199.966 40.052 207.934 40.4738Z" fill="#2F2E41"/>
<path d="M198.405 39.2651C203.178 36.656 204.932 30.6717 202.323 25.8988C199.714 21.1259 193.73 19.3717 188.957 21.9809C184.184 24.59 182.43 30.5743 185.039 35.3472C187.648 40.1201 193.632 41.8743 198.405 39.2651Z" fill="#FFB8B8"/>
<path d="M205.721 28.594C205.753 26.9363 205.45 25.2893 204.833 23.7507C204.215 22.2122 203.294 20.8135 202.125 19.6378C200.956 18.4621 199.563 17.5334 198.028 16.9069C196.493 16.2803 194.847 15.9687 193.19 15.9906C191.532 16.0124 189.895 16.3673 188.377 17.0341C186.859 17.7009 185.491 18.666 184.353 19.8721C183.216 21.0782 182.332 22.5007 181.755 24.055C181.178 25.6093 180.92 27.2637 180.995 28.9199C189.425 28.9378 197.855 28.9557 205.721 28.594Z" fill="#2F2E41"/>
<path d="M177.865 89.9617C177.865 89.9617 176.262 113.241 177.132 120.342C178.002 127.444 187.472 189.527 187.472 189.527L194.615 189.514L196.736 116.353L205.184 190.225L212.571 189.457L216.762 117.197C216.762 117.197 216.105 90.1437 210.764 87.431L177.865 89.9617Z" fill="#2F2E41"/>
<path d="M189.07 113.038C183.823 113.036 178.652 111.784 173.985 109.385L173.883 109.333L177.832 83.1327L177.575 51.907C177.568 51.0499 177.732 50.2 178.057 49.4069C178.382 48.6138 178.862 47.8934 179.468 47.2876C180.075 46.6819 180.796 46.2029 181.589 45.8788C182.382 45.5546 183.232 45.3917 184.089 45.3996L205.277 45.594C206.215 45.6026 207.141 45.8042 207.998 46.1861C208.855 46.5681 209.624 47.1223 210.258 47.8143C210.891 48.5062 211.375 49.3211 211.68 50.2083C211.985 51.0954 212.104 52.0359 212.03 52.9711L210.048 78.0038L216.605 98.3218L215.465 99.8369C212.392 103.936 208.408 107.262 203.826 109.554C199.245 111.845 194.193 113.038 189.07 113.038Z" fill="#3F3D56"/>
<path d="M175.447 72.3385L177.667 49.6837L178.38 48.6684C178.869 47.9729 179.491 47.3809 180.209 46.9262C180.927 46.4716 181.728 46.1632 182.566 46.0189C183.403 45.8746 184.261 45.8971 185.09 46.0852C185.919 46.2733 186.703 46.6233 187.396 47.1151L188.008 47.549L187.404 70.5076L175.447 72.3385Z" fill="#3F3D56"/>
<path d="M266.421 183.02C272.161 181.435 274.61 190.151 268.885 191.787C263.146 193.372 260.697 184.656 266.421 183.02Z" fill="#3F3D56"/>
<path d="M234.598 194.239C240.338 192.653 242.787 201.369 237.062 203.005C231.323 204.591 228.873 195.875 234.598 194.239Z" fill="#3F3D56"/>
<path d="M221.719 102.313L221.808 102.288L236.591 142.425L238.54 141.877L223.651 101.452C223.618 100.829 223.374 100.236 222.958 99.7706C222.542 99.3056 221.98 98.9968 221.364 98.8956C213.971 97.7264 210.974 104.289 210.974 104.289L211.003 104.333L226.118 145.368L228.067 144.821L213.397 104.993C217.863 100.575 221.719 102.313 221.719 102.313Z" fill="#3F3D56"/>
<path d="M238.662 196.496C236.553 196.478 234.505 195.787 232.816 194.523C231.127 193.26 229.885 191.49 229.272 189.471C226.45 180.236 219.793 158.108 218.911 152.103C217.762 144.284 224.234 142.06 224.378 142.013C224.552 141.954 227.154 141.226 230.756 140.218C236.877 138.505 246.128 135.916 246.468 135.763C247.902 135.264 249.422 135.067 250.935 135.184C252.449 135.301 253.921 135.729 255.261 136.442C256.642 137.168 257.861 138.168 258.843 139.38C259.826 140.592 260.552 141.992 260.977 143.493L270.499 177.371C271.087 179.448 270.922 181.666 270.034 183.633C269.146 185.6 267.591 187.191 265.645 188.124C258.298 191.654 247.522 196.362 238.807 196.495C238.759 196.496 238.71 196.496 238.662 196.496Z" fill="#95E3CA"/>
<path d="M220.147 100.924L215.36 72.9622L214.826 63.5253L207.087 66.0602L213.614 102.675C213.35 103.387 213.288 104.159 213.433 104.904C213.578 105.65 213.926 106.341 214.438 106.903C214.95 107.464 215.606 107.874 216.335 108.088C217.064 108.301 217.838 108.31 218.572 108.113C219.306 107.917 219.971 107.522 220.496 106.973C221.021 106.423 221.384 105.74 221.547 104.998C221.709 104.256 221.665 103.483 221.418 102.765C221.171 102.046 220.731 101.41 220.147 100.924Z" fill="#FFB7B7"/>
<path d="M216.669 71.2082L204.59 70.5512L201.752 47.7606L202.028 47.521C202.709 46.931 203.499 46.4812 204.353 46.1973C205.208 45.9134 206.11 45.8011 207.008 45.8668C207.906 45.9325 208.782 46.1749 209.586 46.5801C210.39 46.9853 211.106 47.5453 211.693 48.2279L212.252 48.8778L212.26 48.9189L216.669 71.2082Z" fill="#3F3D56"/>
<path d="M265.857 182.535L253.511 140.75L224.48 148.954L224.307 148.34L253.944 139.965L254.033 140.267L266.468 182.355L265.857 182.535Z" fill="#3F3D56"/>
<path d="M46.4779 88.3997L45.1633 59.7352L58.6288 33.4131L59.1963 33.7036L45.8083 59.8748L47.1149 88.3704L46.4779 88.3997Z" fill="#3F3D56"/>
<path d="M293.976 204H0.318846C0.234283 204 0.153183 203.967 0.0933876 203.907C0.0335924 203.847 0 203.766 0 203.681C0 203.597 0.0335924 203.516 0.0933876 203.456C0.153183 203.396 0.234283 203.362 0.318846 203.362H293.976C294.061 203.362 294.142 203.396 294.202 203.456C294.261 203.516 294.295 203.597 294.295 203.681C294.295 203.766 294.261 203.847 294.202 203.907C294.142 203.967 294.061 204 293.976 204Z" fill="#CCCCCC"/>
<path d="M67.2003 80.1563L64.3941 71.809L63.7153 43.9838L64.911 40.0359C65.3414 38.6149 66.0542 37.2955 67.0067 36.1567C67.9592 35.0178 69.1318 34.083 70.4543 33.4082C71.7768 32.7335 73.2219 32.3326 74.703 32.2297C76.1841 32.1268 77.6707 32.324 79.0738 32.8094C80.4768 33.2948 81.7674 34.0585 82.8683 35.0547C83.9691 36.0509 84.8575 37.2591 85.4803 38.6068C86.103 39.9546 86.4472 41.4142 86.4923 42.8982C86.5374 44.3822 86.2824 45.86 85.7427 47.2431L79.334 63.6655L79.6598 64.2977L93.5442 64.1853L98.4761 73.0629L67.2003 80.1563Z" fill="#3F3D56"/>
<path d="M155.65 139.557L155.64 139.559L140.251 142.64L127.013 147.971C126.842 148.04 126.659 148.075 126.474 148.073C126.29 148.071 126.107 148.033 125.938 147.961C125.768 147.888 125.614 147.783 125.485 147.652C125.356 147.52 125.254 147.364 125.185 147.193C125.169 147.152 125.154 147.112 125.142 147.07L115.471 114.687C115.369 114.352 115.397 113.99 115.549 113.675C115.701 113.359 115.967 113.112 116.292 112.982L129.773 107.553L129.783 107.551L145.171 104.47L158.41 99.1393C158.755 99.0001 159.142 99.0039 159.485 99.1499C159.828 99.2959 160.098 99.5721 160.238 99.9177C160.254 99.958 160.268 99.9989 160.281 100.041L169.952 132.423C170.053 132.759 170.025 133.12 169.873 133.436C169.721 133.752 169.456 133.999 169.13 134.129L155.65 139.557Z" fill="#E5E5E5"/>
<path d="M139.136 117.805C135.608 116.56 131.96 115.469 128.296 114.563L128.112 114.517L129.972 120.746L139.45 117.916L139.136 117.805ZM130.118 120.477L128.428 114.818C131.915 115.686 135.385 116.722 138.751 117.899L130.118 120.477ZM157.628 126.225C155.986 125.296 154.319 124.407 152.629 123.557C152.163 123.322 151.696 123.091 151.227 122.863C148.366 121.471 145.46 120.201 142.511 119.055L142.477 119.042L130.529 122.61L133.792 133.535L157.85 126.35L157.628 126.225ZM133.937 133.266L130.798 122.755L142.468 119.27C145.311 120.376 148.123 121.601 150.902 122.945C151.384 123.179 151.865 123.415 152.344 123.656C154.017 124.493 155.67 125.371 157.3 126.289L133.937 133.266ZM157.628 126.225C155.986 125.296 154.319 124.407 152.629 123.557C152.163 123.322 151.696 123.091 151.227 122.863C148.366 121.471 145.46 120.201 142.511 119.055L142.477 119.042L130.529 122.61L133.792 133.535L157.85 126.35L157.628 126.225ZM133.937 133.266L130.798 122.755L142.468 119.27C145.311 120.376 148.123 121.601 150.902 122.945C151.384 123.179 151.865 123.415 152.344 123.656C154.017 124.493 155.67 125.371 157.3 126.289L133.937 133.266ZM139.136 117.805C135.608 116.56 131.96 115.469 128.296 114.563L128.112 114.517L129.972 120.746L139.45 117.916L139.136 117.805ZM130.118 120.477L128.428 114.818C131.915 115.686 135.385 116.722 138.751 117.899L130.118 120.477ZM139.136 117.805C135.608 116.56 131.96 115.469 128.296 114.563L128.112 114.517L129.972 120.746L139.45 117.916L139.136 117.805ZM130.118 120.477L128.428 114.818C131.915 115.686 135.385 116.722 138.751 117.899L130.118 120.477ZM157.628 126.225C155.986 125.296 154.319 124.407 152.629 123.557C152.163 123.322 151.696 123.091 151.227 122.863C148.366 121.471 145.46 120.201 142.511 119.055L142.477 119.042L130.529 122.61L133.792 133.535L157.85 126.35L157.628 126.225ZM133.937 133.266L130.798 122.755L142.468 119.27C145.311 120.376 148.123 121.601 150.902 122.945C151.384 123.179 151.865 123.415 152.344 123.656C154.017 124.493 155.67 125.371 157.3 126.289L133.937 133.266ZM124.098 138.46L124.159 138.667L132.339 136.225L133.236 139.228L125.056 141.671L125.118 141.878L133.505 139.373L132.484 135.956L124.098 138.46ZM135.926 140.68L136.552 142.779L136.754 142.698L136.195 140.826L168.089 131.3L168.027 131.093L135.926 140.68ZM166.512 126.019L166.45 125.812L134.348 135.399L135.369 138.816L167.471 129.229L167.409 129.022L135.514 138.547L134.617 135.544L166.512 126.019ZM142.671 116.728C137.782 114.85 132.761 113.338 127.647 112.206L127.021 110.109L126.82 110.19L127.451 112.303L127.663 112.431C132.756 113.562 137.758 115.07 142.628 116.943L142.662 116.956L162.074 111.159L162.012 110.952L142.671 116.728ZM127.839 121.157L119.66 123.6L119.722 123.807L128.108 121.303L125.008 110.919L124.806 111L127.839 121.157ZM162.631 113.023L145.566 118.119L145.844 118.236C148.461 119.337 151.072 120.555 153.675 121.889C154.045 122.078 154.415 122.27 154.785 122.465C156.623 123.43 158.446 124.449 160.256 125.522L160.457 125.572L165.894 123.948L165.832 123.741L160.408 125.361C158.618 124.298 156.811 123.287 154.987 122.327C154.622 122.135 154.257 121.945 153.891 121.757C151.343 120.448 148.78 119.247 146.204 118.154L162.693 113.23L162.631 113.023ZM125.675 143.742L125.737 143.949L133.916 141.506L134.539 143.589L134.74 143.508L134.062 141.237L125.675 143.742ZM120.278 125.671L120.34 125.879L128.52 123.436L131.659 133.946L123.479 136.389L123.541 136.596L131.928 134.092L128.665 123.167L120.278 125.671ZM139.136 117.805C135.608 116.56 131.96 115.469 128.296 114.563L128.112 114.517L129.972 120.746L139.45 117.916L139.136 117.805ZM130.118 120.477L128.428 114.818C131.915 115.686 135.385 116.722 138.751 117.899L130.118 120.477ZM157.628 126.225C155.986 125.296 154.319 124.407 152.629 123.557C152.163 123.322 151.696 123.091 151.227 122.863C148.366 121.471 145.46 120.201 142.511 119.055L142.477 119.042L130.529 122.61L133.792 133.535L157.85 126.35L157.628 126.225ZM133.937 133.266L130.798 122.755L142.468 119.27C145.311 120.376 148.123 121.601 150.902 122.945C151.384 123.179 151.865 123.415 152.344 123.656C154.017 124.493 155.67 125.371 157.3 126.289L133.937 133.266ZM139.136 117.805C135.608 116.56 131.96 115.469 128.296 114.563L128.112 114.517L129.972 120.746L139.45 117.916L139.136 117.805ZM130.118 120.477L128.428 114.818C131.915 115.686 135.385 116.722 138.751 117.899L130.118 120.477ZM157.628 126.225C155.986 125.296 154.319 124.407 152.629 123.557C152.163 123.322 151.696 123.091 151.227 122.863C148.366 121.471 145.46 120.201 142.511 119.055L142.477 119.042L130.529 122.61L133.792 133.535L157.85 126.35L157.628 126.225ZM133.937 133.266L130.798 122.755L142.468 119.27C145.311 120.376 148.123 121.601 150.902 122.945C151.384 123.179 151.865 123.415 152.344 123.656C154.017 124.493 155.67 125.371 157.3 126.289L133.937 133.266Z" fill="white"/>
<path d="M141.884 118.781C142.667 121.404 139.664 128.664 139.664 128.664C139.664 128.664 133.17 124.24 132.387 121.617C132.011 120.358 132.15 119.001 132.775 117.844C133.4 116.688 134.458 115.827 135.717 115.45C136.977 115.074 138.334 115.214 139.491 115.839C140.647 116.463 141.508 117.522 141.884 118.781Z" fill="#95E3CA"/>
<path d="M139.245 119.344C139.373 119.774 139.371 120.231 139.239 120.66C139.107 121.088 138.851 121.467 138.504 121.75C138.156 122.033 137.732 122.206 137.286 122.248C136.84 122.29 136.392 122.199 135.997 121.986C135.603 121.773 135.281 121.448 135.071 121.052C134.862 120.656 134.774 120.207 134.82 119.761C134.866 119.315 135.043 118.893 135.329 118.548C135.615 118.203 135.996 117.95 136.426 117.822C136.711 117.737 137.01 117.708 137.306 117.739C137.602 117.769 137.889 117.858 138.151 117.999C138.413 118.14 138.644 118.332 138.832 118.563C139.019 118.794 139.16 119.059 139.245 119.344Z" fill="white"/>
<path d="M140.305 132.147C141.043 132.147 141.641 131.549 141.641 130.811C141.641 130.073 141.043 129.475 140.305 129.475C139.567 129.475 138.969 130.073 138.969 130.811C138.969 131.549 139.567 132.147 140.305 132.147Z" fill="#95E3CA"/>
<path d="M154.882 113.246L145.598 116.019C145.586 116.022 145.574 116.025 145.562 116.026L147.682 107.109C147.694 107.054 147.722 107.003 147.76 106.961C147.799 106.92 147.848 106.889 147.903 106.873C147.957 106.857 148.015 106.855 148.07 106.869C148.125 106.882 148.176 106.91 148.217 106.949L152.688 111.173L152.902 111.375L154.882 113.246Z" fill="white"/>
<path opacity="0.2" d="M154.882 113.246L151.712 114.193L152.593 111.468L152.657 111.271L152.688 111.173L152.902 111.375L154.882 113.246Z" fill="black"/>
<path d="M160.052 111.702L152.021 114.101L152.902 111.376L152.966 111.179L154.114 107.628C154.136 107.572 154.17 107.522 154.213 107.48C154.256 107.439 154.308 107.406 154.364 107.386C154.421 107.365 154.481 107.357 154.541 107.361C154.601 107.365 154.659 107.382 154.712 107.41C154.726 107.418 154.739 107.427 154.752 107.438L160.052 111.702Z" fill="white"/>
</svg>
