<svg width="144" height="147" viewBox="0 0 144 147" fill="none" xmlns="http://www.w3.org/2000/svg">
<path d="M73.6963 104.814C67.5592 104.814 61.5598 102.993 56.457 99.5804C51.3541 96.1679 47.3769 91.3176 45.0283 85.6429C42.6797 79.9681 42.0652 73.7238 43.2625 67.6995C44.4598 61.6752 47.4151 56.1415 51.7548 51.7982C56.0944 47.455 61.6234 44.4971 67.6426 43.2988C73.6619 42.1005 79.901 42.7155 85.571 45.0661C91.241 47.4167 96.0872 51.3972 99.4969 56.5043C102.907 61.6115 104.726 67.6159 104.726 73.7582C104.717 81.9919 101.445 89.8857 95.6275 95.7078C89.8103 101.53 81.9231 104.805 73.6963 104.814ZM73.6963 47.8781C68.582 47.8781 63.5826 49.396 59.3302 52.2397C55.0778 55.0835 51.7635 59.1254 49.8063 63.8543C47.8492 68.5833 47.3371 73.7869 48.3348 78.8072C49.3326 83.8274 51.7953 88.4388 55.4117 92.0582C59.028 95.6776 63.6356 98.1425 68.6516 99.141C73.6677 100.14 78.8669 99.6271 83.5919 97.6683C88.3169 95.7095 92.3554 92.3924 95.1968 88.1364C98.0381 83.8804 99.5547 78.8768 99.5547 73.7582C99.547 66.8967 96.8201 60.3185 91.9724 55.4668C87.1247 50.615 80.552 47.8859 73.6963 47.8781Z" fill="#95E3CA"/>
<path d="M72.678 34.9381C71.9922 34.9381 71.3345 34.6654 70.8495 34.1801C70.3646 33.6947 70.0922 33.0365 70.0921 32.3501V2.588C70.0921 1.90162 70.3646 1.24335 70.8495 0.758004C71.3345 0.272659 71.9922 0 72.678 0C73.3638 0 74.0215 0.272659 74.5064 0.758004C74.9914 1.24335 75.2638 1.90162 75.2638 2.588V32.3501C75.2638 33.0365 74.9913 33.6948 74.5064 34.1801C74.0214 34.6654 73.3638 34.9381 72.678 34.9381Z" fill="#95E3CA"/>
<path d="M32.3229 75.3276H2.58579C1.89998 75.3276 1.24228 75.055 0.757338 74.5696C0.272399 74.0843 -3.05176e-05 73.426 -3.05176e-05 72.7396C-3.05176e-05 72.0532 0.272399 71.395 0.757338 70.9096C1.24228 70.4243 1.89998 70.1516 2.58579 70.1516H32.3229C33.0087 70.1516 33.6665 70.4243 34.1514 70.9096C34.6363 71.395 34.9088 72.0532 34.9088 72.7396C34.9088 73.426 34.6363 74.0843 34.1514 74.5696C33.6665 75.055 33.0087 75.3276 32.3229 75.3276Z" fill="#95E3CA"/>
<path d="M140.928 75.3276H111.191C110.505 75.3276 109.847 75.055 109.362 74.5696C108.878 74.0843 108.605 73.426 108.605 72.7396C108.605 72.0532 108.878 71.395 109.362 70.9096C109.847 70.4243 110.505 70.1516 111.191 70.1516H140.928C141.614 70.1516 142.272 70.4243 142.757 70.9096C143.241 71.395 143.514 72.0532 143.514 72.7396C143.514 73.426 143.241 74.0843 142.757 74.5696C142.272 75.055 141.614 75.3276 140.928 75.3276Z" fill="#95E3CA"/>
<path d="M110.374 47.03C109.859 47.03 109.356 46.8763 108.929 46.5884C108.502 46.3005 108.171 45.8917 107.978 45.4142C107.784 44.9367 107.738 44.4124 107.844 43.9082C107.95 43.4041 108.204 42.9431 108.574 42.5844L121.027 30.4923C121.27 30.255 121.558 30.0681 121.874 29.9422C122.19 29.8164 122.528 29.7542 122.867 29.7591C123.207 29.7639 123.543 29.8358 123.855 29.9707C124.167 30.1055 124.45 30.3006 124.686 30.5448C124.923 30.789 125.109 31.0776 125.235 31.3939C125.36 31.7102 125.421 32.0482 125.416 32.3883C125.41 32.7285 125.338 33.0643 125.203 33.3765C125.068 33.6886 124.872 33.971 124.628 34.2075L112.175 46.2996C111.693 46.7689 111.046 47.0311 110.374 47.03Z" fill="#95E3CA"/>
<path d="M34.4327 47.03C33.7603 47.0309 33.1142 46.7688 32.6322 46.2996L20.179 34.2075C19.9346 33.971 19.7392 33.6886 19.604 33.3765C19.4687 33.0643 19.3963 32.7285 19.3908 32.3883C19.3854 32.0482 19.447 31.7102 19.5722 31.3939C19.6973 31.0776 19.8836 30.789 20.1203 30.5448C20.357 30.3006 20.6395 30.1055 20.9516 29.9707C21.2637 29.8358 21.5994 29.7639 21.9393 29.7591C22.2792 29.7542 22.6168 29.8164 22.9326 29.9422C23.2485 30.0681 23.5364 30.255 23.78 30.4923L36.2332 42.5844C36.6027 42.9431 36.8568 43.4041 36.963 43.9082C37.0692 44.4124 37.0226 44.9367 36.8292 45.4142C36.6358 45.8917 36.3044 46.3005 35.8775 46.5884C35.4506 46.8763 34.9475 47.03 34.4327 47.03Z" fill="#95E3CA"/>
<path d="M24.5654 117.754C24.0572 117.754 23.5604 117.604 23.1369 117.323C22.7134 117.042 22.3819 116.642 22.184 116.174C21.9861 115.705 21.9304 115.189 22.024 114.689C22.1175 114.189 22.3561 113.728 22.7099 113.363L35.1631 100.528C35.6412 100.036 36.2947 99.7541 36.9802 99.7443C37.6657 99.7345 38.327 99.9975 38.8188 100.475C39.3106 100.953 39.5927 101.607 39.603 102.293C39.6134 102.979 39.3511 103.642 38.874 104.134L26.4208 116.969C26.1798 117.218 25.8914 117.415 25.5727 117.55C25.2539 117.685 24.9114 117.754 24.5654 117.754Z" fill="#95E3CA"/>
<path d="M125.413 120.343C125.068 120.343 124.726 120.275 124.409 120.14C124.091 120.006 123.803 119.809 123.563 119.562L108.524 104.139C108.286 103.896 108.098 103.608 107.972 103.292C107.845 102.977 107.782 102.639 107.786 102.299C107.79 101.959 107.861 101.623 107.995 101.31C108.129 100.998 108.323 100.714 108.566 100.477C108.809 100.239 109.097 100.052 109.412 99.926C109.728 99.7998 110.065 99.7371 110.405 99.7416C110.745 99.746 111.08 99.8174 111.392 99.9517C111.705 100.086 111.987 100.281 112.224 100.524L127.263 115.948C127.619 116.312 127.859 116.773 127.954 117.273C128.048 117.774 127.994 118.291 127.796 118.76C127.599 119.229 127.267 119.63 126.843 119.911C126.419 120.193 125.922 120.343 125.413 120.343Z" fill="#95E3CA"/>
<path d="M72.678 146.222C71.9922 146.222 71.3345 145.95 70.8495 145.464C70.3646 144.979 70.0922 144.321 70.0921 143.634V113.872C70.0921 113.532 70.159 113.196 70.289 112.882C70.4189 112.568 70.6094 112.283 70.8495 112.042C71.0896 111.802 71.3747 111.611 71.6884 111.481C72.0021 111.351 72.3384 111.284 72.678 111.284C73.0176 111.284 73.3538 111.351 73.6675 111.481C73.9813 111.611 74.2663 111.802 74.5064 112.042C74.7465 112.283 74.937 112.568 75.067 112.882C75.1969 113.196 75.2638 113.532 75.2638 113.872V143.634C75.2638 144.321 74.9914 144.979 74.5064 145.464C74.0215 145.95 73.3638 146.222 72.678 146.222Z" fill="#95E3CA"/>
</svg>
